<svg width="24" height="24" viewBox="0 0 24 24" fill="none" xmlns="http://www.w3.org/2000/svg">
<path d="M-1505 -5332C-1505 -5348.57 -1491.57 -5362 -1475 -5362H3378C3394.57 -5362 3408 -5348.57 3408 -5332V1424C3408 1440.57 3394.57 1454 3378 1454H-1475C-1491.57 1454 -1505 1440.57 -1505 1424V-5332Z" fill="#DBE6FF"/>
<path d="M-1475 -5361H3378V-5363H-1475V-5361ZM3407 -5332V1424H3409V-5332H3407ZM3378 1453H-1475V1455H3378V1453ZM-1504 1424V-5332H-1506V1424H-1504ZM-1475 1453C-1491.02 1453 -1504 1440.02 -1504 1424H-1506C-1506 1441.12 -1492.12 1455 -1475 1455V1453ZM3407 1424C3407 1440.02 3394.02 1453 3378 1453V1455C3395.12 1455 3409 1441.12 3409 1424H3407ZM3378 -5361C3394.02 -5361 3407 -5348.02 3407 -5332H3409C3409 -5349.12 3395.12 -5363 3378 -5363V-5361ZM-1475 -5363C-1492.12 -5363 -1506 -5349.12 -1506 -5332H-1504C-1504 -5348.02 -1491.02 -5361 -1475 -5361V-5363Z" fill="black" fill-opacity="0.1"/>
<rect x="-349" y="-59" width="393" height="852" rx="30" fill="#171717"/>
<path d="M11.5 21C16.7467 21 21 16.7467 21 11.5C21 6.25329 16.7467 2 11.5 2C6.25329 2 2 6.25329 2 11.5C2 16.7467 6.25329 21 11.5 21Z" stroke="white" stroke-width="1.5" stroke-linecap="round" stroke-linejoin="round"/>
<path d="M22 22L20 20" stroke="white" stroke-width="1.5" stroke-linecap="round" stroke-linejoin="round"/>
</svg>
