<svg width="22" height="22" viewBox="0 0 22 22" fill="none" xmlns="http://www.w3.org/2000/svg">
<path d="M21.2326 11C21.2326 5.35163 16.6484 0.767442 11 0.767442C5.35163 0.767442 0.767442 5.35163 0.767442 11C0.767442 16.6484 5.35163 21.2326 11 21.2326" stroke="#FFA500" stroke-width="1.5" stroke-linecap="round" stroke-linejoin="round"/>
<path d="M6.90695 1.7907H7.93021C5.93486 7.76651 5.93486 14.2335 7.93021 20.2093H6.90695" stroke="#FFA500" stroke-width="1.5" stroke-linecap="round" stroke-linejoin="round"/>
<path d="M14.0698 1.7907C15.0623 4.7786 15.5637 7.8893 15.5637 11" stroke="#FFA500" stroke-width="1.5" stroke-linecap="round" stroke-linejoin="round"/>
<path d="M1.7907 15.093V14.0698C4.7786 15.0623 7.8893 15.5637 11 15.5637" stroke="#FFA500" stroke-width="1.5" stroke-linecap="round" stroke-linejoin="round"/>
<path d="M1.7907 7.93021C7.76651 5.93486 14.2335 5.93486 20.2093 7.93021" stroke="#FFA500" stroke-width="1.5" stroke-linecap="round" stroke-linejoin="round"/>
<path d="M17.3442 20.6186C19.1526 20.6186 20.6186 19.1526 20.6186 17.3442C20.6186 15.5358 19.1526 14.0698 17.3442 14.0698C15.5358 14.0698 14.0698 15.5358 14.0698 17.3442C14.0698 19.1526 15.5358 20.6186 17.3442 20.6186Z" stroke="#FFA500" stroke-width="1.5" stroke-linecap="round" stroke-linejoin="round"/>
<path d="M21.2326 21.2326L20.2093 20.2093" stroke="#FFA500" stroke-width="1.5" stroke-linecap="round" stroke-linejoin="round"/>
</svg>
