<svg width="195" height="82" viewBox="0 0 195 82" fill="none" xmlns="http://www.w3.org/2000/svg">
<line x1="10.3579" y1="0.30513" x2="1.65418" y2="47.4913" stroke="white" stroke-width="3.36267"/>
<line x1="52.7771" y1="8.12967" x2="44.0734" y2="55.3159" stroke="white" stroke-width="3.36267"/>
<line x1="15.7712" y1="1.30392" x2="7.06757" y2="48.4901" stroke="white" stroke-width="0.840668"/>
<line x1="60.6848" y1="9.58816" x2="51.9811" y2="56.7744" stroke="white" stroke-width="0.840668"/>
<line x1="35.7327" y1="4.98586" x2="27.029" y2="52.1721" stroke="white" stroke-width="0.840668"/>
<line x1="39.0597" y1="5.59943" x2="30.3561" y2="52.7856" stroke="white" stroke-width="0.840668"/>
<line x1="19.9249" y1="2.07006" x2="11.2212" y2="49.2563" stroke="white" stroke-width="2.522"/>
<line x1="58.1849" y1="9.12715" x2="49.4812" y2="56.3133" stroke="white" stroke-width="2.522"/>
<line x1="33.2328" y1="4.52485" x2="24.5291" y2="51.711" stroke="white" stroke-width="2.522"/>
<line x1="27.8196" y1="3.52606" x2="19.116" y2="50.7123" stroke="white" stroke-width="5.04401"/>
<line x1="42.7912" y1="6.28763" x2="34.0875" y2="53.4738" stroke="white" stroke-width="5.04401"/>
<line x1="64.4211" y1="10.2772" x2="55.7174" y2="57.4634" stroke="white" stroke-width="3.36267"/>
<line x1="106.839" y1="18.1017" x2="98.1356" y2="65.2879" stroke="white" stroke-width="3.36267"/>
<line x1="69.8345" y1="11.276" x2="61.1308" y2="58.4622" stroke="white" stroke-width="0.840668"/>
<line x1="114.748" y1="19.5602" x2="106.045" y2="66.7464" stroke="white" stroke-width="0.840668"/>
<line x1="89.7964" y1="14.9579" x2="81.0927" y2="62.1441" stroke="white" stroke-width="0.840668"/>
<line x1="93.1229" y1="15.5715" x2="84.4193" y2="62.7577" stroke="white" stroke-width="0.840668"/>
<line x1="73.9881" y1="12.0421" x2="65.2844" y2="59.2283" stroke="white" stroke-width="2.522"/>
<line x1="112.248" y1="19.0992" x2="103.544" y2="66.2854" stroke="white" stroke-width="2.522"/>
<line x1="87.2965" y1="14.4969" x2="78.5928" y2="61.6831" stroke="white" stroke-width="2.522"/>
<line x1="81.8829" y1="13.4981" x2="73.1792" y2="60.6843" stroke="white" stroke-width="5.04401"/>
<line x1="96.8546" y1="16.2597" x2="88.1509" y2="63.4459" stroke="white" stroke-width="5.04401"/>
<line x1="118.484" y1="20.2497" x2="109.781" y2="67.4359" stroke="white" stroke-width="3.36267"/>
<line x1="160.903" y1="28.0738" x2="152.199" y2="75.26" stroke="white" stroke-width="3.36267"/>
<line x1="123.897" y1="21.248" x2="115.194" y2="68.4342" stroke="white" stroke-width="0.840668"/>
<line x1="168.811" y1="29.5328" x2="160.108" y2="76.719" stroke="white" stroke-width="0.840668"/>
<line x1="143.86" y1="24.93" x2="135.156" y2="72.1162" stroke="white" stroke-width="0.840668"/>
<line x1="147.187" y1="25.5435" x2="138.483" y2="72.7297" stroke="white" stroke-width="0.840668"/>
<line x1="128.051" y1="22.0142" x2="119.348" y2="69.2004" stroke="white" stroke-width="2.522"/>
<line x1="166.312" y1="29.0713" x2="157.608" y2="76.2575" stroke="white" stroke-width="2.522"/>
<line x1="141.36" y1="24.469" x2="132.656" y2="71.6552" stroke="white" stroke-width="2.522"/>
<line x1="135.946" y1="23.4707" x2="127.243" y2="70.6569" stroke="white" stroke-width="5.04401"/>
<line x1="150.918" y1="26.2317" x2="142.214" y2="73.4179" stroke="white" stroke-width="5.04401"/>
<line x1="193.759" y1="34.1342" x2="185.056" y2="81.3204" stroke="white" stroke-width="2.522"/>
<line x1="177.956" y1="31.2193" x2="169.252" y2="78.4055" stroke="white" stroke-width="2.522"/>
<line x1="172.543" y1="30.221" x2="163.839" y2="77.4072" stroke="white" stroke-width="5.04401"/>
<line x1="187.514" y1="32.982" x2="178.811" y2="80.1682" stroke="white" stroke-width="5.04401"/>
</svg>
