<svg width="36" height="36" viewBox="0 0 36 36" fill="none" xmlns="http://www.w3.org/2000/svg">
<path d="M20.7046 25.9038L12.7393 32.7288L11.508 33.7837L10.8104 32.9694C10.243 32.3072 9.24614 32.2303 8.58394 32.7977L8.06096 33.2458L5.98083 30.818L6.50382 30.37C7.16602 29.8026 7.24294 28.8058 6.67545 28.1436C6.10803 27.4813 5.11121 27.4044 4.449 27.9719L3.92602 28.42L1.84583 25.9921L2.80046 25.2351L15.1294 10.2383L23.253 3.27768L24.4917 2.21631L25.1894 3.0306C25.7568 3.6928 26.7536 3.76972 27.4158 3.20223L27.9388 2.7542L30.019 5.18202L29.496 5.63005C28.8338 6.19747 28.7569 7.19429 29.3244 7.8565C29.8918 8.5187 30.8886 8.59562 31.5508 8.02813L32.0738 7.5801L34.154 10.0079L33.1994 10.8823L20.7046 25.9038Z" fill="#D7D5D9"/>
<path d="M24.3047 25.7617H4.43186H2.80061V24.6894C2.80061 23.8174 2.09369 23.1104 1.2216 23.1104H0.532959V19.9133H1.2216C2.09362 19.9133 2.80061 19.2064 2.80061 18.3343C2.80061 17.4623 2.09369 16.7553 1.2216 16.7553H0.532959V13.5582H1.2216C2.09362 13.5582 2.80061 12.8513 2.80061 11.9792V10.2382H4.43186H9.41504H13.4113H31.5683H33.1995V11.3104C33.1995 12.1824 33.9064 12.8894 34.7785 12.8894H35.4672V16.0865H34.7785C33.9065 16.0865 33.1995 16.7935 33.1995 17.6656C33.1995 18.5376 33.9064 19.2446 34.7785 19.2446H35.4672V22.4417H34.7785C33.9065 22.4417 33.1995 23.1486 33.1995 24.0207V25.7617H31.5683H28.982H24.3047Z" fill="#77757E"/>
<path d="M14.9068 12.7365H30.0866V23.2635H5.91345V12.7365H10.834H14.9068Z" fill="#FFDA44"/>
<path d="M11.016 15.6675C11.2109 15.6675 11.3013 15.8762 11.3013 16.071C11.3013 16.2867 11.1969 16.4815 11.016 16.4815H10.0003V20.4679C10.0003 20.6558 9.77072 20.7532 9.54804 20.7532C9.31854 20.7532 9.09587 20.6558 9.09587 20.4679V16.4815H8.0731C7.89219 16.4815 7.78784 16.2936 7.78784 16.071C7.78784 15.8762 7.87826 15.6675 8.0731 15.6675H11.016Z" fill="black"/>
<path d="M11.7953 15.9457C11.7953 15.7509 12.0179 15.6675 12.2475 15.6675C12.4701 15.6675 12.6996 15.7509 12.6996 15.9457V20.4679C12.6996 20.6558 12.4701 20.7532 12.2475 20.7532C12.0179 20.7532 11.7953 20.6558 11.7953 20.4679V15.9457Z" fill="black"/>
<path d="M15.1208 16.4606C14.6546 16.4606 14.3903 16.718 14.3903 17.2607V19.2018C14.3903 19.7444 14.6547 20.0019 15.1347 20.0019C15.7678 20.0019 15.8234 19.5497 15.8443 19.2575C15.8583 19.0418 16.0531 18.9722 16.2896 18.9722C16.6027 18.9722 16.7488 19.0626 16.7488 19.4175C16.7488 20.2594 16.0601 20.7951 15.086 20.7951C14.2094 20.7951 13.4858 20.3637 13.4858 19.2019V17.2608C13.4858 16.0989 14.2163 15.6676 15.0929 15.6676C16.0599 15.6676 16.7488 16.1824 16.7488 16.9895C16.7488 17.3513 16.6026 17.4348 16.2965 17.4348C16.0392 17.4348 15.8512 17.3583 15.8443 17.1495C15.8304 16.9337 15.7817 16.4606 15.1208 16.4606Z" fill="black"/>
<path d="M17.3608 15.9457C17.3608 15.7509 17.5834 15.6675 17.813 15.6675C18.0357 15.6675 18.2652 15.7509 18.2652 15.9457V17.8451L19.768 15.7997C19.8375 15.7023 19.9211 15.6675 20.0184 15.6675C20.2479 15.6675 20.5402 15.904 20.5402 16.1337C20.5402 16.1823 20.5332 16.2449 20.4845 16.3075L19.2392 17.866L20.756 20.1758C20.7907 20.2245 20.8046 20.2801 20.8046 20.3358C20.8046 20.5585 20.5264 20.788 20.262 20.788C20.1437 20.788 20.0255 20.7393 19.949 20.6141L18.641 18.6313L18.2653 19.1044V20.4679C18.2653 20.6558 18.0358 20.7532 17.8131 20.7532C17.5835 20.7532 17.3609 20.6558 17.3609 20.4679V15.9457H17.3608Z" fill="black"/>
<path d="M22.1053 17.8521H23.1629C23.3438 17.8521 23.4481 18.0261 23.4481 18.214C23.4481 18.374 23.3577 18.5619 23.1629 18.5619H22.1053V19.9603H24.0742C24.2552 19.9603 24.3595 20.1482 24.3595 20.3638C24.3595 20.5517 24.2691 20.7534 24.0742 20.7534H21.5975C21.3957 20.7534 21.2009 20.656 21.2009 20.4682V15.953C21.2009 15.7651 21.3957 15.6677 21.5975 15.6677H24.0742C24.269 15.6677 24.3595 15.8695 24.3595 16.0573C24.3595 16.273 24.2552 16.4608 24.0742 16.4608H22.1053V17.8521Z" fill="black"/>
<path d="M27.7824 15.6675C27.9772 15.6675 28.0676 15.8762 28.0676 16.071C28.0676 16.2867 27.9633 16.4815 27.7824 16.4815H26.7667V20.4679C26.7667 20.6558 26.5371 20.7532 26.3144 20.7532C26.0849 20.7532 25.8622 20.6558 25.8622 20.4679V16.4815H24.8395C24.6585 16.4815 24.5542 16.2936 24.5542 16.071C24.5542 15.8762 24.6446 15.6675 24.8395 15.6675H27.7824Z" fill="black"/>
<g opacity="0.19">
<path d="M35.1193 16.0867H35.8079V12.8896H35.1193C34.2473 12.8896 33.5403 12.1826 33.5403 11.3105V10.2383H31.909H29.507C25.4899 22.4644 17.6368 22.9426 13.1505 25.7617H24.6456H29.3227H31.909H33.5403V24.0208C33.5403 23.1488 34.2472 22.4418 35.1193 22.4418H35.8079V19.2447H35.1193C34.2473 19.2447 33.5403 18.5378 33.5403 17.6657C33.5403 16.7937 34.2472 16.0867 35.1193 16.0867Z" fill="#3E3B43"/>
</g>
<path d="M34.7785 16.6196H35.4671C35.7615 16.6196 36 16.3812 36 16.0868V12.8896C36 12.5952 35.7615 12.3567 35.4671 12.3567H34.7785C34.2017 12.3567 33.7324 11.8875 33.7324 11.3106V11.1169L34.5141 10.4009C34.726 10.2067 34.7458 9.87949 34.5589 9.66117L32.4787 7.23335C32.3867 7.12598 32.2559 7.05961 32.115 7.04878C31.9738 7.03697 31.8345 7.08352 31.7273 7.17541L31.2044 7.62352C30.7664 7.99877 30.1046 7.94773 29.7293 7.50975C29.5475 7.29762 29.4592 7.0272 29.4807 6.74862C29.5021 6.47004 29.6308 6.21649 29.8431 6.03466L30.366 5.58656C30.5895 5.3951 30.6155 5.05866 30.4239 4.8352L28.3437 2.40745C28.1523 2.18407 27.8158 2.15798 27.5923 2.34952L27.0693 2.79755C26.8571 2.97937 26.5869 3.06783 26.3083 3.04617C26.0297 3.02473 25.7761 2.89605 25.5943 2.68378L24.8967 1.86949C24.8047 1.76212 24.6739 1.69575 24.5329 1.68492C24.3915 1.67409 24.2525 1.71952 24.1453 1.81155L14.9325 9.7054H13.4112C13.1168 9.7054 12.8783 9.9439 12.8783 10.2383C12.8783 10.5327 13.1168 10.7712 13.4112 10.7712H32.6666V11.3106C32.6666 12.4751 33.614 13.4225 34.7785 13.4225H34.9342V15.5539H34.7785C33.614 15.5539 32.6666 16.5012 32.6666 17.6658C32.6666 18.8303 33.614 19.7777 34.7785 19.7777H34.9342V21.909H34.7785C33.614 21.909 32.6666 22.8563 32.6666 24.0208V25.2289H28.982C28.6876 25.2289 28.4491 25.4674 28.4491 25.7618C28.4491 26.0562 28.6876 26.2947 28.982 26.2947H33.1995C33.4939 26.2947 33.7324 26.0562 33.7324 25.7618V24.0208C33.7324 23.4441 34.2017 22.9748 34.7785 22.9748H35.4671C35.7615 22.9748 36 22.7363 36 22.4419V19.2448C36 18.9504 35.7615 18.7119 35.4671 18.7119H34.7785C34.2017 18.7119 33.7324 18.2426 33.7324 17.6658C33.7324 17.0889 34.2017 16.6196 34.7785 16.6196ZM16.5705 9.7054L24.434 2.96777L24.7849 3.37741C25.1519 3.80583 25.6639 4.06563 26.2263 4.10895C26.7886 4.15219 27.3343 3.97409 27.7627 3.60705L27.8811 3.50573L29.2679 5.12412L29.1496 5.22551C28.2653 5.98313 28.1623 7.31899 28.92 8.20331C29.6778 9.08756 31.0136 9.19057 31.8978 8.43288L32.0161 8.33149L33.1933 9.7054H16.5705Z" fill="black"/>
<path d="M24.3046 25.2288H3.33345V24.6895C3.33345 23.525 2.38605 22.5776 1.22154 22.5776H1.0658V20.4463H1.22154C2.38605 20.4463 3.33345 19.4989 3.33345 18.3344C3.33345 17.1698 2.38605 16.2224 1.22154 16.2224H1.0658V14.0911H1.22154C2.38605 14.0911 3.33345 13.1437 3.33345 11.9792V10.7711H9.41498C9.70938 10.7711 9.94788 10.5326 9.94788 10.2382C9.94788 9.94382 9.70938 9.70532 9.41498 9.70532H2.80055C2.50615 9.70532 2.26765 9.94382 2.26765 10.2382V11.9792C2.26765 12.5561 1.79838 13.0253 1.22154 13.0253H0.532898C0.2385 13.0253 0 13.2638 0 13.5582V16.7553C0 17.0497 0.2385 17.2882 0.532898 17.2882H1.22154C1.79838 17.2882 2.26765 17.7575 2.26765 18.3344C2.26765 18.9113 1.79838 19.3805 1.22154 19.3805H0.532898C0.2385 19.3805 0 19.619 0 19.9134V23.1105C0 23.4049 0.2385 23.6434 0.532898 23.6434H1.22154C1.79838 23.6434 2.26765 24.1126 2.26765 24.6895V24.9776L1.51474 25.5747C1.40119 25.6647 1.32933 25.797 1.31534 25.9411C1.30148 26.0853 1.34691 26.229 1.4412 26.3389L3.52132 28.7668C3.61329 28.8741 3.74414 28.9405 3.88505 28.9513C4.02595 28.9631 4.16545 28.9167 4.27268 28.8247L4.79566 28.3766C5.00787 28.1947 5.27822 28.1058 5.55673 28.128C5.83531 28.1494 6.08885 28.2781 6.27068 28.4904C6.64601 28.9284 6.59496 29.5901 6.15691 29.9654L5.634 30.4135C5.41048 30.6049 5.38453 30.9414 5.57606 31.1648L7.65619 33.5927C7.84765 33.8162 8.18409 33.8423 8.40755 33.6506L8.93053 33.2026C9.14266 33.0207 9.41379 32.9322 9.6916 32.9539C9.97017 32.9754 10.2237 33.1041 10.4055 33.3163L11.1032 34.1305C11.2086 34.2535 11.3579 34.3167 11.5081 34.3167C11.6308 34.3167 11.7541 34.2746 11.8545 34.1885L21.0511 26.3086C21.0563 26.3042 21.0607 26.2994 21.0657 26.2949H24.3044C24.5988 26.2949 24.8373 26.0564 24.8373 25.762C24.8373 25.4676 24.599 25.2288 24.3046 25.2288ZM11.5661 33.0323L11.2151 32.6227C10.8482 32.1944 10.3363 31.9345 9.77379 31.8912C9.21136 31.8475 8.66574 32.026 8.23732 32.3931L8.11899 32.4944L6.73221 30.8759L6.85048 30.7746C7.27889 30.4076 7.5387 29.8957 7.58201 29.3332C7.62532 28.7708 7.44715 28.2251 7.08012 27.7967C6.71316 27.3684 6.20128 27.1085 5.63878 27.0652C5.07649 27.0225 4.53073 27.2001 4.10231 27.5671L3.98398 27.6685L2.80666 26.2946H19.4295L11.5661 33.0323Z" fill="black"/>
<path d="M5.38049 12.7365V23.2636C5.38049 23.558 5.61899 23.7965 5.91339 23.7965H30.0867C30.3811 23.7965 30.6196 23.558 30.6196 23.2636V12.7365C30.6196 12.4421 30.3811 12.2036 30.0867 12.2036H14.9067C14.6123 12.2036 14.3738 12.4421 14.3738 12.7365C14.3738 13.0309 14.6123 13.2694 14.9067 13.2694H29.5537V22.7307H6.44629V13.2694H10.8339C11.1283 13.2694 11.3668 13.0309 11.3668 12.7365C11.3668 12.4421 11.1283 12.2036 10.8339 12.2036H5.91339C5.61899 12.2036 5.38049 12.4423 5.38049 12.7365Z" fill="black"/>
</svg>
