<svg width="24" height="24" viewBox="0 0 24 24" fill="none" xmlns="http://www.w3.org/2000/svg">
<path d="M-553.023 -1499C-553.023 -1515.57 -539.592 -1529 -523.023 -1529H4329.98C4346.54 -1529 4359.98 -1515.57 4359.98 -1499V5257C4359.98 5273.57 4346.54 5287 4329.98 5287H-523.023C-539.592 5287 -553.023 5273.57 -553.023 5257V-1499Z" fill="#DBE6FF"/>
<path d="M-523.023 -1528H4329.98V-1530H-523.023V-1528ZM4358.98 -1499V5257H4360.98V-1499H4358.98ZM4329.98 5286H-523.023V5288H4329.98V5286ZM-552.023 5257V-1499H-554.023V5257H-552.023ZM-523.023 5286C-539.04 5286 -552.023 5273.02 -552.023 5257H-554.023C-554.023 5274.12 -540.144 5288 -523.023 5288V5286ZM4358.98 5257C4358.98 5273.02 4345.99 5286 4329.98 5286V5288C4347.1 5288 4360.98 5274.12 4360.98 5257H4358.98ZM4329.98 -1528C4345.99 -1528 4358.98 -1515.02 4358.98 -1499H4360.98C4360.98 -1516.12 4347.1 -1530 4329.98 -1530V-1528ZM-523.023 -1530C-540.144 -1530 -554.023 -1516.12 -554.023 -1499H-552.023C-552.023 -1515.02 -539.04 -1528 -523.023 -1528V-1530Z" fill="black" fill-opacity="0.1"/>
<rect x="-263.023" y="-131" width="393" height="852" rx="30" fill="#171717"/>
<path d="M19.7897 14.9301C17.7297 16.9801 14.7797 17.6101 12.1897 16.8001L7.47966 21.5001C7.13966 21.8501 6.46966 22.0601 5.98966 21.9901L3.80966 21.6901C3.08966 21.5901 2.41966 20.9101 2.30966 20.1901L2.00966 18.0101C1.93966 17.5301 2.16966 16.8601 2.49966 16.5201L7.19966 11.8201C6.39966 9.22007 7.01966 6.27007 9.07966 4.22007C12.0297 1.27007 16.8197 1.27007 19.7797 4.22007C22.7397 7.17007 22.7397 11.9801 19.7897 14.9301Z" stroke="white" stroke-width="1.5" stroke-miterlimit="10" stroke-linecap="round" stroke-linejoin="round"/>
<path d="M6.88965 17.49L9.18965 19.79" stroke="white" stroke-width="1.5" stroke-miterlimit="10" stroke-linecap="round" stroke-linejoin="round"/>
<path d="M14.5 11C15.3284 11 16 10.3284 16 9.5C16 8.67157 15.3284 8 14.5 8C13.6716 8 13 8.67157 13 9.5C13 10.3284 13.6716 11 14.5 11Z" stroke="white" stroke-width="1.5" stroke-linecap="round" stroke-linejoin="round"/>
</svg>
