<svg width="16" height="16" viewBox="0 0 16 16" fill="none" xmlns="http://www.w3.org/2000/svg">
<path d="M7.26855 13.2467H11.5819C14.0486 13.2467 14.6619 12.6334 14.6619 10.1667C13.8086 10.1667 13.1219 9.47338 13.1219 8.62672C13.1219 7.77338 13.8086 7.08005 14.6619 7.08005V6.46672C14.6619 4.00005 14.0486 3.38672 11.5819 3.38672H7.32855V7.91339" stroke="#DCB2FF" stroke-width="1.5" stroke-linecap="round" stroke-linejoin="round"/>
<path d="M7.32872 11.2467V13.2467H5.48205C4.49538 13.2467 3.91538 12.5734 3.27538 11.0267L3.15538 10.7267C3.96205 10.4067 4.35538 9.47341 4.01538 8.66675C3.68872 7.86008 2.76205 7.47341 1.94872 7.80675L1.83538 7.52008C0.875384 5.17341 1.20872 4.35341 3.55538 3.38675L5.31538 2.66675L7.32872 7.54675V9.24675" stroke="#DCB2FF" stroke-width="1.5" stroke-linecap="round" stroke-linejoin="round"/>
<path d="M5.44146 13.2468H5.32812" stroke="#DCB2FF" stroke-width="1.5" stroke-linecap="round" stroke-linejoin="round"/>
</svg>
