<svg width="120" height="120" viewBox="0 0 120 120" fill="none" xmlns="http://www.w3.org/2000/svg">
<path d="M60 105C84.8528 105 105 84.8528 105 60C105 35.1472 84.8528 15 60 15C35.1472 15 15 35.1472 15 60C15 84.8528 35.1472 105 60 105Z" fill="#6995FE" stroke="#6995FE" stroke-width="3.12" stroke-linecap="round" stroke-linejoin="round"/>
<path d="M80.625 48.75L53.1094 75L39.375 61.875" stroke="white" stroke-width="7.8" stroke-linecap="round" stroke-linejoin="round"/>
<path d="M101.315 29.9214C98.5751 29.9214 96.3535 27.7004 96.3535 24.9607C96.3535 22.221 98.5751 20 101.315 20C104.056 20 106.277 22.221 106.277 24.9607C106.277 27.7004 104.056 29.9214 101.315 29.9214ZM101.315 28.819C103.447 28.819 105.175 27.0916 105.175 24.9607C105.175 22.8298 103.447 21.1024 101.315 21.1024C99.184 21.1024 97.4562 22.8298 97.4562 24.9607C97.4562 27.0916 99.184 28.819 101.315 28.819Z" fill="#5283E9"/>
<path d="M9.24405 85.5907C7.11263 85.5907 5.38477 83.8633 5.38477 81.7324C5.38477 79.6015 7.11263 77.8741 9.24405 77.8741C11.3755 77.8741 13.1033 79.6015 13.1033 81.7324C13.1033 83.8633 11.3755 85.5907 9.24405 85.5907ZM9.24405 84.4884C10.7665 84.4884 12.0007 83.2545 12.0007 81.7324C12.0007 80.2103 10.7665 78.9765 9.24405 78.9765C7.7216 78.9765 6.48742 80.2103 6.48742 81.7324C6.48742 83.2545 7.7216 84.4884 9.24405 84.4884Z" fill="#5283E9"/>
<path fill-rule="evenodd" clip-rule="evenodd" d="M12.8199 24.4494L14.3794 22.8898C14.5947 22.6746 14.9437 22.6746 15.1589 22.8898C15.3742 23.1051 15.3742 23.4541 15.1589 23.6693L13.5994 25.2289L15.1589 26.7885C15.3742 27.0037 15.3742 27.3527 15.1589 27.568C14.9437 27.7832 14.5947 27.7832 14.3794 27.568L12.8199 26.0084L11.2603 27.568C11.045 27.7832 10.696 27.7832 10.4808 27.568C10.2655 27.3527 10.2655 27.0037 10.4808 26.7885L12.0404 25.2289L10.4808 23.6693C10.2655 23.4541 10.2655 23.1051 10.4808 22.8898C10.696 22.6746 11.045 22.6746 11.2603 22.8898L12.8199 24.4494Z" fill="#5283E9"/>
<path fill-rule="evenodd" clip-rule="evenodd" d="M112.058 97.2063L113.618 95.6467C113.833 95.4315 114.182 95.4315 114.397 95.6467C114.612 95.862 114.612 96.211 114.397 96.4262L112.838 97.9858L114.397 99.5454C114.612 99.7606 114.612 100.11 114.397 100.325C114.182 100.54 113.833 100.54 113.618 100.325L112.058 98.7653L110.499 100.325C110.283 100.54 109.934 100.54 109.719 100.325C109.504 100.11 109.504 99.7606 109.719 99.5454L111.279 97.9858L109.719 96.4262C109.504 96.211 109.504 95.862 109.719 95.6467C109.934 95.4315 110.283 95.4315 110.499 95.6467L112.058 97.2063Z" fill="#5283E9"/>
</svg>
