<svg width="25" height="25" viewBox="0 0 25 25" fill="none" xmlns="http://www.w3.org/2000/svg">
<g clip-path="url(#clip0_1039_41060)">
<path d="M23.2759 4.09473H1.7242C0.891009 4.09473 0.215576 4.77016 0.215576 5.60335V19.3965C0.215576 20.2296 0.891009 20.9051 1.7242 20.9051H23.2759C24.1091 20.9051 24.7845 20.2296 24.7845 19.3965V5.60335C24.7845 4.77016 24.1091 4.09473 23.2759 4.09473Z" fill="#171717" stroke="#171717" stroke-width="13.7931"/>
<path fill-rule="evenodd" clip-rule="evenodd" d="M9.159 17.1939V17.8305V18.4671H8.87999V18.3125C8.7915 18.4271 8.65723 18.4991 8.47473 18.4991C8.1149 18.4991 7.83284 18.2195 7.83284 17.8305C7.83284 17.4418 8.1149 17.1619 8.47473 17.1619C8.65723 17.1619 8.7915 17.2338 8.87999 17.3485V17.1939H9.159ZM8.50943 17.4229C8.26792 17.4229 8.12012 17.6067 8.12012 17.8305C8.12012 18.0543 8.26792 18.2381 8.50943 18.2381C8.74021 18.2381 8.89598 18.0622 8.89598 17.8305C8.89598 17.5988 8.74021 17.4229 8.50943 17.4229ZM18.5874 17.8305C18.5874 17.6067 18.7352 17.4229 18.9767 17.4229C19.2078 17.4229 19.3633 17.5988 19.3633 17.8305C19.3633 18.0622 19.2078 18.2381 18.9767 18.2381C18.7352 18.2381 18.5874 18.0543 18.5874 17.8305ZM19.6266 16.6826V17.8305V18.4671H19.3473V18.3125C19.2588 18.4271 19.1245 18.4991 18.942 18.4991C18.5822 18.4991 18.3001 18.2195 18.3001 17.8305C18.3001 17.4418 18.5822 17.1619 18.942 17.1619C19.1245 17.1619 19.2588 17.2338 19.3473 17.3485V16.6826H19.6266ZM12.6223 17.4098C12.8021 17.4098 12.9176 17.5216 12.9471 17.7186H12.2812C12.311 17.5348 12.4235 17.4098 12.6223 17.4098ZM11.9887 17.8305C11.9887 17.4335 12.2517 17.1619 12.6278 17.1619C12.9874 17.1619 13.2344 17.4335 13.2371 17.8305C13.2371 17.8677 13.2344 17.9024 13.2316 17.9369H12.2788C12.319 18.1662 12.4828 18.2488 12.6625 18.2488C12.7913 18.2488 12.9284 18.2006 13.0359 18.1155L13.1726 18.3207C13.0168 18.4512 12.8399 18.4991 12.6466 18.4991C12.2625 18.4991 11.9887 18.2354 11.9887 17.8305ZM15.9968 17.8305C15.9968 17.6067 16.1446 17.4229 16.3861 17.4229C16.6168 17.4229 16.7727 17.5988 16.7727 17.8305C16.7727 18.0622 16.6168 18.2381 16.3861 18.2381C16.1446 18.2381 15.9968 18.0543 15.9968 17.8305ZM17.0357 17.1939V17.8305V18.4671H16.7567V18.3125C16.6679 18.4271 16.5339 18.4991 16.3514 18.4991C15.9915 18.4991 15.7095 18.2195 15.7095 17.8305C15.7095 17.4418 15.9915 17.1619 16.3514 17.1619C16.5339 17.1619 16.6679 17.2338 16.7567 17.3485V17.1939H17.0357ZM14.4211 17.8305C14.4211 18.2168 14.6921 18.4991 15.1057 18.4991C15.299 18.4991 15.4277 18.4564 15.5672 18.3472L15.4332 18.1235C15.3285 18.1982 15.2184 18.2381 15.0974 18.2381C14.8746 18.2354 14.7109 18.0756 14.7109 17.8305C14.7109 17.5854 14.8746 17.4256 15.0974 17.4229C15.2184 17.4229 15.3285 17.4628 15.4332 17.5375L15.5672 17.3137C15.4277 17.2046 15.299 17.1619 15.1057 17.1619C14.6921 17.1619 14.4211 17.4442 14.4211 17.8305ZM17.68 17.3485C17.7525 17.2366 17.8573 17.1619 18.0184 17.1619C18.0749 17.1619 18.1554 17.1726 18.2171 17.1966L18.1311 17.4576C18.0721 17.4335 18.0131 17.4256 17.9566 17.4256C17.774 17.4256 17.6828 17.5427 17.6828 17.7534V18.4671H17.4035V17.1939H17.68V17.3485ZM10.539 17.2951C10.4047 17.2073 10.2197 17.1619 10.0157 17.1619C9.69059 17.1619 9.48133 17.3165 9.48133 17.5695C9.48133 17.7771 9.63715 17.9052 9.92413 17.9451L10.0559 17.9637C10.209 17.9851 10.2812 18.025 10.2812 18.0969C10.2812 18.1954 10.1792 18.2515 9.98865 18.2515C9.79538 18.2515 9.6559 18.1902 9.56184 18.1183L9.43034 18.3338C9.58335 18.4457 9.77663 18.4991 9.9859 18.4991C10.3565 18.4991 10.5712 18.3259 10.5712 18.0835C10.5712 17.8597 10.4022 17.7427 10.1229 17.7027L9.99141 17.6838C9.87068 17.668 9.77387 17.6442 9.77387 17.5588C9.77387 17.4655 9.86512 17.4098 10.0181 17.4098C10.1819 17.4098 10.3405 17.471 10.4182 17.5189L10.539 17.2951ZM13.801 17.3485C13.8732 17.2366 13.978 17.1619 14.139 17.1619C14.1956 17.1619 14.2761 17.1726 14.3378 17.1966L14.2518 17.4576C14.1928 17.4335 14.1338 17.4256 14.0772 17.4256C13.8947 17.4256 13.8035 17.5427 13.8035 17.7534V18.4671H13.5245V17.1939H13.801V17.3485ZM11.7579 17.1939H11.3016V16.8076H11.0196V17.1939H10.7593V17.4469H11.0196V18.0277C11.0196 18.3232 11.1351 18.4991 11.4651 18.4991C11.5862 18.4991 11.7257 18.4619 11.8142 18.4006L11.7337 18.1634C11.6504 18.2113 11.5591 18.2354 11.4866 18.2354C11.3471 18.2354 11.3016 18.15 11.3016 18.0222V17.4469H11.7579V17.1939ZM7.58607 17.668V18.4671H7.304V17.7585C7.304 17.5427 7.21275 17.4229 7.02223 17.4229C6.83693 17.4229 6.70818 17.5402 6.70818 17.7613V18.4671H6.42611V17.7585C6.42611 17.5427 6.3324 17.4229 6.1471 17.4229C5.95628 17.4229 5.83279 17.5402 5.83279 17.7613V18.4671H5.55103V17.1939H5.83034V17.3509C5.93512 17.2018 6.06909 17.1619 6.20611 17.1619C6.40215 17.1619 6.54167 17.2473 6.63016 17.3884C6.74844 17.2098 6.91745 17.1591 7.08124 17.1619C7.39279 17.1646 7.58607 17.3671 7.58607 17.668Z" fill="#231F20"/>
<path d="M14.6752 15.0304H10.4465V7.49023H14.6752V15.0304Z" fill="#FF5F00"/>
<path d="M10.7149 11.2612C10.7149 9.73165 11.4366 8.36915 12.5606 7.49112C11.7387 6.84905 10.7013 6.46582 9.57395 6.46582C6.90499 6.46582 4.74146 8.61277 4.74146 11.2612C4.74146 13.9097 6.90499 16.0566 9.57395 16.0566C10.7013 16.0566 11.7387 15.6734 12.5606 15.0313C11.4366 14.1533 10.7149 12.7908 10.7149 11.2612Z" fill="#EB001B"/>
<path d="M20.3801 11.2612C20.3801 13.9097 18.2165 16.0566 15.5476 16.0566C14.4202 16.0566 13.3828 15.6734 12.5605 15.0313C13.6849 14.1533 14.4067 12.7908 14.4067 11.2612C14.4067 9.73165 13.6849 8.36915 12.5605 7.49112C13.3828 6.84905 14.4202 6.46582 15.5476 6.46582C18.2165 6.46582 20.3801 8.61277 20.3801 11.2612Z" fill="#F79E1B"/>
</g>
<defs>
<clipPath id="clip0_1039_41060">
<rect width="25" height="25" fill="white"/>
</clipPath>
</defs>
</svg>
