<svg width="19" height="19" viewBox="0 0 19 19" fill="none" xmlns="http://www.w3.org/2000/svg">
<path d="M7.71872 3.56242H4.1563C3.82839 3.56242 3.56256 3.82825 3.56256 4.15616V7.71858C3.56256 8.04649 3.82839 8.31231 4.1563 8.31231H7.71872C8.04663 8.31231 8.31245 8.04649 8.31245 7.71858V4.15616C8.31245 3.82825 8.04663 3.56242 7.71872 3.56242Z" stroke="#DCB2FF" stroke-width="1.5" stroke-linecap="round" stroke-linejoin="round"/>
<path d="M7.71872 10.6873H4.1563C3.82839 10.6873 3.56256 10.9531 3.56256 11.281V14.8434C3.56256 15.1713 3.82839 15.4372 4.1563 15.4372H7.71872C8.04663 15.4372 8.31245 15.1713 8.31245 14.8434V11.281C8.31245 10.9531 8.04663 10.6873 7.71872 10.6873Z" stroke="#DCB2FF" stroke-width="1.5" stroke-linecap="round" stroke-linejoin="round"/>
<path d="M14.8438 3.56242H11.2814C10.9535 3.56242 10.6877 3.82825 10.6877 4.15616V7.71858C10.6877 8.04649 10.9535 8.31231 11.2814 8.31231H14.8438C15.1718 8.31231 15.4376 8.04649 15.4376 7.71858V4.15616C15.4376 3.82825 15.1718 3.56242 14.8438 3.56242Z" stroke="#DCB2FF" stroke-width="1.5" stroke-linecap="round" stroke-linejoin="round"/>
<path d="M10.6877 10.6873V13.0622" stroke="#DCB2FF" stroke-width="1.5" stroke-linecap="round" stroke-linejoin="round"/>
<path d="M10.6877 15.4372H13.0626V10.6873" stroke="#DCB2FF" stroke-width="1.5" stroke-linecap="round" stroke-linejoin="round"/>
<path d="M13.0621 11.8747H15.437" stroke="#DCB2FF" stroke-width="1.5" stroke-linecap="round" stroke-linejoin="round"/>
<path d="M15.4374 14.2497V15.4372" stroke="#DCB2FF" stroke-width="1.5" stroke-linecap="round" stroke-linejoin="round"/>
</svg>
