<svg width="279" height="438" viewBox="0 0 279 438" fill="none" xmlns="http://www.w3.org/2000/svg">
<path fill-rule="evenodd" clip-rule="evenodd" d="M71.8358 5.51803C72.511 1.85759 76.0257 -0.56243 79.6861 0.112752L273.121 35.7926C276.782 36.4678 279.202 39.9825 278.526 43.6429L237.123 268.106C232.71 267.677 228.598 270.826 227.748 275.434C226.898 280.041 229.616 284.45 233.892 285.624L206.804 432.482C206.128 436.142 202.614 438.562 198.953 437.887L5.51825 402.207C1.85782 401.532 -0.562205 398.017 0.112975 394.357L27.2015 247.499C31.6153 247.928 35.7269 244.779 36.5768 240.171C37.4266 235.564 34.7092 231.155 30.4327 229.981L71.8358 5.51803Z" fill="#38354B"/>
</svg>
