<svg width="52" height="52" viewBox="0 0 52 52" fill="none" xmlns="http://www.w3.org/2000/svg">
<g clip-path="url(#clip0_1310_2338)">
<path d="M2.66667 9.33398H49.3333C50.8061 9.33398 52 10.5279 52 12.0007V40.0007C52 41.4735 50.8061 42.6673 49.3333 42.6673H2.66667C1.19393 42.6673 0 41.4735 0 40.0007V12.0007C0 10.5279 1.19393 9.33398 2.66667 9.33398Z" fill="#0E4595"/>
<path d="M19.5467 32.5811L21.7707 19.5305H25.3281L23.1024 32.5811H19.5467ZM35.954 19.8118C35.2493 19.5474 34.1449 19.2637 32.7659 19.2637C29.2509 19.2637 26.7749 21.0337 26.7539 23.5705C26.7339 25.4459 28.5215 26.492 29.8707 27.1163C31.2554 27.7559 31.7208 28.1639 31.7143 28.7351C31.7055 29.6099 30.6085 30.0095 29.5861 30.0095C28.1623 30.0095 27.4059 29.8117 26.2377 29.3245L25.7793 29.1171L25.28 32.0387C26.1109 32.4029 27.6473 32.7185 29.2425 32.7349C32.9819 32.7349 35.4092 30.9851 35.4369 28.2761C35.4502 26.7915 34.5025 25.6617 32.4502 24.7302C31.2069 24.1265 30.4454 23.7236 30.4535 23.1123C30.4535 22.5699 31.098 21.9897 32.4906 21.9897C33.6539 21.9717 34.4966 22.2254 35.1531 22.4897L35.4719 22.6404L35.954 19.8118ZM45.108 19.5303H42.3592C41.5077 19.5303 40.8704 19.7627 40.4965 20.6125L35.2135 32.5725H38.9489C38.9489 32.5725 39.5596 30.9643 39.6977 30.6113C40.1061 30.6113 43.7347 30.6169 44.2536 30.6169C44.36 31.0738 44.6863 32.5725 44.6863 32.5725H47.9872L45.108 19.5299V19.5303ZM40.7468 27.9576C41.0409 27.2057 42.1641 24.3094 42.1641 24.3094C42.1431 24.3442 42.4561 23.5538 42.6357 23.0638L42.8761 24.1891C42.8761 24.1891 43.5573 27.3043 43.6997 27.9576H40.7468ZM16.5268 19.5303L13.0441 28.4303L12.673 26.6216C12.0247 24.5367 10.0047 22.2779 7.74646 21.1471L10.9309 32.5604L14.6946 32.5561L20.2949 19.5301H16.5268" fill="white"/>
<path d="M9.79465 19.5315H4.05858L4.01318 19.8031C8.47572 20.8833 11.4285 23.4939 12.6545 26.6304L11.4072 20.6331C11.1919 19.8067 10.5674 19.5601 9.79478 19.5312" fill="#F2AE14"/>
</g>
<defs>
<clipPath id="clip0_1310_2338">
<rect width="52" height="52" fill="white"/>
</clipPath>
</defs>
</svg>
