<svg width="353" height="501" viewBox="0 0 353 501" fill="none" xmlns="http://www.w3.org/2000/svg">
<rect width="353" height="495.858" rx="10" fill="#1C1C1C"/>
<ellipse cx="15" cy="496.884" rx="6" ry="4.115" fill="#1C1C1C"/>
<ellipse cx="49" cy="496.884" rx="6" ry="4.115" fill="#1C1C1C"/>
<ellipse cx="83" cy="496.884" rx="6" ry="4.115" fill="#1C1C1C"/>
<ellipse cx="117" cy="496.884" rx="6" ry="4.115" fill="#1C1C1C"/>
<ellipse cx="151" cy="496.884" rx="6" ry="4.115" fill="#1C1C1C"/>
<ellipse cx="185" cy="496.884" rx="6" ry="4.115" fill="#1C1C1C"/>
<ellipse cx="219" cy="496.884" rx="6" ry="4.115" fill="#1C1C1C"/>
<ellipse cx="253" cy="496.884" rx="6" ry="4.115" fill="#1C1C1C"/>
<ellipse cx="287" cy="496.884" rx="6" ry="4.115" fill="#1C1C1C"/>
<ellipse cx="321" cy="496.884" rx="6" ry="4.115" fill="#1C1C1C"/>
<ellipse cx="32" cy="496.884" rx="6" ry="4.115" fill="#1C1C1C"/>
<ellipse cx="66" cy="496.884" rx="6" ry="4.115" fill="#1C1C1C"/>
<ellipse cx="100" cy="496.884" rx="6" ry="4.115" fill="#1C1C1C"/>
<ellipse cx="134" cy="496.884" rx="6" ry="4.115" fill="#1C1C1C"/>
<ellipse cx="168" cy="496.884" rx="6" ry="4.115" fill="#1C1C1C"/>
<ellipse cx="202" cy="496.884" rx="6" ry="4.115" fill="#1C1C1C"/>
<ellipse cx="236" cy="496.884" rx="6" ry="4.115" fill="#1C1C1C"/>
<ellipse cx="270" cy="496.884" rx="6" ry="4.115" fill="#1C1C1C"/>
<ellipse cx="304" cy="496.884" rx="6" ry="4.115" fill="#1C1C1C"/>
<ellipse cx="338" cy="496.884" rx="6" ry="4.115" fill="#1C1C1C"/>
</svg>
