<svg width="26" height="10" viewBox="0 0 26 10" fill="none" xmlns="http://www.w3.org/2000/svg">
<path fill-rule="evenodd" clip-rule="evenodd" d="M0 7.05309C0.0173114 6.96007 0.0331656 6.86997 0.0487074 6.78165C0.0727287 6.64514 0.096004 6.51287 0.12276 6.3806C0.236078 5.7823 0.350183 5.18478 0.464287 4.58727L0.464304 4.58719C0.578402 3.98971 0.6925 3.39223 0.805812 2.79396C0.82155 2.71819 0.843584 2.66767 0.919129 2.65505C1.50775 2.56664 2.09952 2.5035 2.68814 2.65189C3.20121 2.77818 3.56005 3.14126 3.61986 3.56749C3.74262 4.41679 3.24843 5.0956 2.51501 5.33871C2.12785 5.46499 1.73438 5.49657 1.33463 5.45868C1.24019 5.44921 1.21187 5.47447 1.19613 5.56603C1.11114 6.03014 1.023 6.4911 0.93172 6.95206C0.925424 6.98994 0.8908 7.04993 0.868766 7.04993C0.654841 7.05465 0.444427 7.05408 0.225724 7.05349C0.151588 7.05329 0.0765003 7.05309 0 7.05309ZM1.35351 4.70725C1.41505 4.70725 1.47465 4.70888 1.53272 4.71046C1.65585 4.71381 1.77211 4.71697 1.88547 4.7041C2.21284 4.66937 2.47409 4.52098 2.62204 4.20841C2.78886 3.8548 2.66925 3.47908 2.35448 3.36858C2.131 3.28965 1.90121 3.30544 1.67143 3.33701C1.6431 3.34016 1.60533 3.38437 1.59903 3.41278C1.55504 3.64403 1.51104 3.87627 1.46539 4.11722L1.46535 4.11741L1.46527 4.11784L1.35351 4.70725ZM5.58088 6.4469C5.53107 6.49885 5.48442 6.55113 5.43882 6.60221C5.34034 6.71256 5.24679 6.81738 5.13705 6.90154C4.80655 7.15728 4.42882 7.21411 4.04795 7.0373C3.67023 6.86366 3.51599 6.52583 3.50025 6.12802C3.46562 5.29135 3.75836 4.59991 4.4603 4.12001C4.90098 3.81691 5.40776 3.72535 5.93342 3.75377C6.10731 3.76403 6.27986 3.79429 6.45281 3.82462L6.45282 3.82462C6.54599 3.84096 6.63927 3.85732 6.73294 3.87059C6.83996 3.88637 6.8557 3.94636 6.83681 4.03792C6.81155 4.16996 6.786 4.30186 6.76047 4.43368C6.66514 4.92595 6.57002 5.41707 6.49057 5.91017C6.445 6.19244 6.42683 6.48158 6.40883 6.76784L6.39928 6.91733C6.39299 7.01836 6.36781 7.05941 6.26393 7.05625C6.06878 7.04993 5.87362 7.04993 5.67846 7.05625C5.57773 7.05941 5.54311 7.02152 5.55255 6.92364C5.56154 6.8155 5.56732 6.70414 5.57332 6.58842V6.58841V6.58841L5.57332 6.58836L5.57333 6.58823L5.57334 6.58813L5.57334 6.58806L5.57334 6.588L5.57335 6.58795C5.57575 6.54166 5.57819 6.49466 5.58088 6.4469ZM5.80122 4.49569C5.4959 4.41045 5.24093 4.47043 5.02689 4.6504C4.62398 4.99138 4.44142 5.43339 4.47604 5.96065C4.48549 6.12167 4.54844 6.27638 4.71841 6.34584C4.88839 6.4153 5.04263 6.36478 5.17483 6.25112C5.25352 6.18166 5.32907 6.10273 5.38573 6.01433C5.60775 5.67443 5.6684 5.29102 5.73 4.90157L5.73 4.90154C5.75137 4.76646 5.77285 4.63066 5.80122 4.49569ZM10.2615 6.26377C10.4346 6.81945 10.9099 7.12886 11.7441 7.12886C12.317 7.11307 12.8867 6.78787 13.2424 6.11854C13.4312 5.75861 13.5005 5.37343 13.4753 4.9693C13.4533 4.58096 13.299 4.2526 12.9843 4.01897C12.6538 3.7727 12.276 3.72219 11.8731 3.76639C10.5259 3.91794 9.97507 5.34817 10.2615 6.26377ZM11.1579 5.80011C11.1583 5.78398 11.1586 5.76796 11.1586 5.75229C11.1681 5.38921 11.2562 5.05138 11.4734 4.75144C11.571 4.61884 11.6937 4.51781 11.8574 4.47992C12.1911 4.40414 12.4649 4.59674 12.4964 4.95982C12.5342 5.40499 12.4271 5.81543 12.147 6.1722C12.04 6.30481 11.9046 6.39637 11.7315 6.41215C11.4199 6.44057 11.1838 6.22903 11.1586 5.89752C11.1565 5.86584 11.1572 5.83275 11.1579 5.80014V5.80013V5.80012V5.80012V5.80011ZM14.2245 3.8327H15.024C15.0114 4.00319 14.9988 4.16737 14.9831 4.3347C15.0122 4.30755 15.0403 4.28071 15.0678 4.2544L15.0679 4.25431L15.0681 4.25419L15.0681 4.25418L15.0681 4.25416L15.0681 4.25414C15.127 4.19795 15.1834 4.14416 15.2412 4.09475C15.5528 3.82323 15.9085 3.70325 16.3209 3.76956C16.6608 3.82639 16.8969 4.07581 16.9347 4.42626C16.9757 4.79093 16.9075 5.14463 16.8395 5.49759L16.8395 5.49761L16.8245 5.5755C16.797 5.71837 16.7698 5.86125 16.7426 6.00403L16.7422 6.0059C16.6825 6.31999 16.6227 6.63361 16.5601 6.94574C16.5506 6.98679 16.5034 7.04678 16.4719 7.04993C16.2012 7.05625 15.9305 7.05309 15.6598 7.04993C15.6508 7.04993 15.6417 7.04501 15.6279 7.03754L15.6279 7.03753L15.6278 7.03747C15.6225 7.03459 15.6165 7.03133 15.6095 7.02783C15.6598 6.76578 15.7102 6.50057 15.7574 6.23536C15.8298 5.82808 15.8991 5.42395 15.962 5.01667C15.9746 4.94721 15.9683 4.87459 15.9589 4.80513C15.9337 4.56202 15.7543 4.45152 15.5213 4.52414C15.2947 4.59675 15.1594 4.77356 15.0492 4.96931C14.8855 5.25662 14.8288 5.5755 14.7722 5.89438L14.7299 6.13103L14.7299 6.13116C14.6818 6.4017 14.6338 6.6712 14.5802 6.94259C14.5707 6.98363 14.5235 7.04678 14.492 7.04993C14.2713 7.05748 14.0486 7.05701 13.8112 7.05651H13.8111H13.8111H13.8111L13.6264 7.05625C13.8342 5.97016 14.0293 4.90616 14.2245 3.8327ZM18.7634 6.39322C18.4298 6.35218 18.2063 6.11854 18.2283 5.79019C18.2979 5.79019 18.3672 5.79125 18.4361 5.79231C18.5728 5.79441 18.7082 5.79649 18.8421 5.79019C19.1664 5.77125 19.4843 5.71757 19.7802 5.56918C20.1579 5.37975 20.3341 5.06718 20.3058 4.65989C20.2775 4.2463 20.054 3.94636 19.6542 3.82638C19.0562 3.64642 18.5053 3.77271 18.0363 4.17368C17.4666 4.65989 17.2526 5.30397 17.3344 6.03961C17.391 6.56056 17.6743 6.93311 18.1906 7.06572C18.7446 7.20779 19.2891 7.13202 19.8148 6.91733C19.8526 6.90154 19.8966 6.84155 19.8935 6.80367C19.8859 6.64959 19.8703 6.49551 19.8547 6.34143L19.8431 6.22589C19.8328 6.22589 19.8251 6.22536 19.8192 6.22495C19.8107 6.22436 19.8059 6.22403 19.8022 6.22589C19.7676 6.23852 19.7329 6.25115 19.7015 6.26378C19.3993 6.38059 19.0877 6.43111 18.7634 6.39322ZM19.2513 4.99454C19.0593 5.09558 18.562 5.15556 18.3196 5.10505C18.37 4.68514 18.8138 4.35678 19.1884 4.44834C19.3143 4.47991 19.4056 4.54622 19.4276 4.68198C19.4496 4.81458 19.3835 4.92509 19.2513 4.99454ZM21.3729 5.80285C21.3446 6.11226 21.5649 6.34905 21.9017 6.39325C22.2165 6.43114 22.5187 6.38378 22.8146 6.27643C22.8418 6.26618 22.8682 6.25592 22.8971 6.24467C22.9216 6.23513 22.9479 6.22487 22.9782 6.21329C22.9844 6.28007 22.9912 6.34552 22.9979 6.41006L22.9979 6.41036V6.41037C23.0119 6.54406 23.0254 6.67388 23.0317 6.80369C23.0349 6.84158 22.9908 6.90157 22.9562 6.91735C22.4211 7.13836 21.8702 7.21414 21.3068 7.05943C20.8 6.92051 20.5356 6.55111 20.4727 6.04595C20.394 5.39872 20.5608 4.81463 21.0109 4.33473C21.4957 3.82009 22.0906 3.63697 22.7768 3.82641C23.1954 3.94323 23.4189 4.24632 23.4441 4.67255C23.4693 5.08931 23.2804 5.40188 22.887 5.585C22.4903 5.76812 22.0686 5.79653 21.6405 5.806C21.5555 5.80285 21.4673 5.80285 21.3729 5.80285ZM21.6331 5.12116L21.6331 5.12116C21.7728 5.11415 21.9073 5.10739 22.0402 5.08932C22.1661 5.07353 22.292 5.03564 22.4054 4.98197C22.5281 4.9283 22.5879 4.81464 22.569 4.67572C22.5502 4.54311 22.462 4.47997 22.3393 4.4484C21.9678 4.34736 21.5051 4.68835 21.4642 5.13036C21.5214 5.12677 21.5777 5.12395 21.6331 5.12116ZM23.6172 6.39323C23.5763 6.60792 23.5385 6.81945 23.4976 7.05309C23.5606 7.05309 23.6228 7.05322 23.6842 7.05335C23.9264 7.05385 24.1574 7.05433 24.3884 7.04678C24.4104 7.04678 24.445 6.98679 24.4513 6.9489C24.4834 6.79121 24.5132 6.63274 24.543 6.47431C24.5978 6.18231 24.6527 5.89046 24.722 5.60391C24.8763 4.96615 25.1375 4.74514 25.7576 4.66305C25.7828 4.6599 25.8237 4.63148 25.83 4.60938C25.8695 4.42793 25.9049 4.2451 25.9416 4.05542C25.9605 3.95798 25.9797 3.85872 26 3.75693C25.4019 3.69378 25.0683 4.04108 24.7787 4.46731L24.7833 4.40562C24.7976 4.21713 24.812 4.02531 24.8291 3.82323C24.7636 3.82323 24.6994 3.82302 24.6361 3.82282C24.4496 3.82224 24.2711 3.82167 24.0925 3.82638C24.0673 3.82954 24.0201 3.88637 24.0169 3.9211C23.9498 4.73256 23.7908 5.52621 23.632 6.31932L23.6172 6.39323Z" fill="white"/>
<path fill-rule="evenodd" clip-rule="evenodd" d="M15.2833 0.0239758C15.2514 0.0155399 15.2195 0.00710393 15.1877 0C15.0901 0 14.9925 0 14.8886 0.00315725C14.8532 0.0102744 14.8177 0.0180333 14.7819 0.0258552C14.7383 0.0353829 14.6943 0.0450041 14.6494 0.0536732C14.1678 0.145233 13.7145 0.312568 13.277 0.533575C12.3295 1.01348 11.4797 1.63545 10.7179 2.37109C10.2111 2.85731 9.7201 3.36563 9.2448 3.88657C8.41066 4.80217 7.69613 5.80933 7.1264 6.91437C6.83366 7.48583 6.56925 8.06992 6.44964 8.70453C6.42761 8.82135 6.46538 8.95711 6.50315 9.07393C6.51889 9.12129 6.60703 9.15602 6.66683 9.17496C6.68257 9.18128 6.72979 9.10234 6.75182 9.05814C6.75964 9.04102 6.76765 9.02347 6.77584 9.00554C6.91254 8.70607 7.09739 8.30111 7.25777 8.03301C7.59772 7.4647 7.86611 7.02488 8.24698 6.48499C8.85763 5.61674 9.57114 4.76486 10.3203 4.01344C11.0285 3.30306 11.7378 2.66787 12.6286 2.18797C13.0378 1.97012 13.4564 1.75543 13.8845 1.57862C14.6242 1.27237 15.3954 1.06399 16.1886 0.947174C16.2736 0.934545 16.3869 0.868243 16.4153 0.798784C16.4404 0.735639 16.3806 0.615663 16.3208 0.555676C16.0785 0.306253 15.7952 0.116818 15.4426 0.0599877C15.3895 0.0520947 15.3364 0.0380352 15.2833 0.0239758ZM8.07701 4.33174C8.2281 3.9213 8.30365 3.49507 8.31309 3.05306C8.30889 3.0057 8.30539 2.95834 8.3019 2.91098C8.2949 2.81626 8.28791 2.72155 8.27532 2.62683C8.19033 1.89435 7.87556 1.27237 7.37507 0.738794C7.31527 0.678807 7.23343 0.631448 7.15159 0.603033C7.06975 0.57146 7.01624 0.618819 7.02253 0.713536C7.02268 0.715536 7.02284 0.717538 7.02299 0.719541C7.02914 0.799776 7.0355 0.88287 7.05086 0.962959C7.07298 1.08912 7.09494 1.21544 7.11692 1.34184C7.19504 1.79114 7.27335 2.24152 7.35933 2.68997C7.44432 3.14146 7.53875 3.58979 7.63948 4.03496C7.6741 4.17704 7.73076 4.31911 7.80001 4.45172C7.85352 4.55275 7.92907 4.54328 7.99832 4.45172C8.02979 4.41383 8.06127 4.37594 8.07701 4.33174Z" fill="#FC461E"/>
</svg>
