<svg width="340" height="7" viewBox="0 0 340 7" fill="none" xmlns="http://www.w3.org/2000/svg">
<circle cx="3.5" cy="3.5" r="3.5" fill="#131414"/>
<circle cx="21.5" cy="3.5" r="3.5" fill="#131414"/>
<circle cx="39.5" cy="3.5" r="3.5" fill="#131414"/>
<circle cx="57.5" cy="3.5" r="3.5" fill="#131414"/>
<circle cx="75.5" cy="3.5" r="3.5" fill="#131414"/>
<circle cx="93.5" cy="3.5" r="3.5" fill="#131414"/>
<circle cx="111.5" cy="3.5" r="3.5" fill="#131414"/>
<circle cx="129.5" cy="3.5" r="3.5" fill="#131414"/>
<circle cx="147.5" cy="3.5" r="3.5" fill="#131414"/>
<circle cx="165.5" cy="3.5" r="3.5" fill="#131414"/>
<circle cx="183.5" cy="3.5" r="3.5" fill="#131414"/>
<circle cx="201.5" cy="3.5" r="3.5" fill="#131414"/>
<circle cx="219.5" cy="3.5" r="3.5" fill="#131414"/>
<circle cx="237.5" cy="3.5" r="3.5" fill="#131414"/>
<circle cx="255.5" cy="3.5" r="3.5" fill="#131414"/>
<circle cx="273.5" cy="3.5" r="3.5" fill="#131414"/>
<circle cx="291.5" cy="3.5" r="3.5" fill="#131414"/>
<circle cx="309.5" cy="3.5" r="3.5" fill="#131414"/>
<circle cx="327.5" cy="3.5" r="3.5" fill="#131414"/>
<circle cx="12.5" cy="3.5" r="3.5" fill="#131414"/>
<circle cx="30.5" cy="3.5" r="3.5" fill="#131414"/>
<circle cx="48.5" cy="3.5" r="3.5" fill="#131414"/>
<circle cx="66.5" cy="3.5" r="3.5" fill="#131414"/>
<circle cx="84.5" cy="3.5" r="3.5" fill="#131414"/>
<circle cx="102.5" cy="3.5" r="3.5" fill="#131414"/>
<circle cx="120.5" cy="3.5" r="3.5" fill="#131414"/>
<circle cx="138.5" cy="3.5" r="3.5" fill="#131414"/>
<circle cx="156.5" cy="3.5" r="3.5" fill="#131414"/>
<circle cx="174.5" cy="3.5" r="3.5" fill="#131414"/>
<circle cx="192.5" cy="3.5" r="3.5" fill="#131414"/>
<circle cx="210.5" cy="3.5" r="3.5" fill="#131414"/>
<circle cx="228.5" cy="3.5" r="3.5" fill="#131414"/>
<circle cx="246.5" cy="3.5" r="3.5" fill="#131414"/>
<circle cx="264.5" cy="3.5" r="3.5" fill="#131414"/>
<circle cx="282.5" cy="3.5" r="3.5" fill="#131414"/>
<circle cx="300.5" cy="3.5" r="3.5" fill="#131414"/>
<circle cx="318.5" cy="3.5" r="3.5" fill="#131414"/>
<circle cx="336.5" cy="3.5" r="3.5" fill="#131414"/>
</svg>
