<svg width="28" height="28" viewBox="0 0 28 28" fill="none" xmlns="http://www.w3.org/2000/svg">
<path d="M14.0235 3.39498C10.1619 3.39498 7.02354 6.5333 7.02354 10.3949V13.7666C7.02354 14.4783 6.72021 15.5633 6.35855 16.1699L5.01689 18.3982C4.18856 19.7749 4.76022 21.3032 6.27688 21.8166C11.3052 23.4965 16.7302 23.4965 21.7585 21.8166C23.1701 21.3499 23.7885 19.6816 23.0185 18.3982L21.6768 16.1699C21.3268 15.5633 21.0235 14.4783 21.0235 13.7666V10.3949C21.0235 6.54497 17.8735 3.39498 14.0235 3.39498Z" stroke="#8B00FF" stroke-width="1.5" stroke-miterlimit="10" stroke-linecap="round"/>
<path d="M16.1818 3.73332C15.8201 3.62832 15.4468 3.54665 15.0618 3.49999C13.9418 3.35999 12.8685 3.44165 11.8651 3.73332C12.2035 2.86999 13.0435 2.26333 14.0235 2.26333C15.0035 2.26333 15.8434 2.86999 16.1818 3.73332Z" stroke="#8B00FF" stroke-width="1.5" stroke-miterlimit="10" stroke-linecap="round" stroke-linejoin="round"/>
<path d="M17.5233 22.2365C17.5233 24.1615 15.9483 25.7365 14.0233 25.7365C13.0666 25.7365 12.18 25.3399 11.55 24.7099C10.92 24.0799 10.5233 23.1932 10.5233 22.2365" stroke="#8B00FF" stroke-width="1.5" stroke-miterlimit="10"/>
</svg>
