<svg width="16" height="16" viewBox="0 0 16 16" fill="none" xmlns="http://www.w3.org/2000/svg">
<path d="M8.43997 1.67868L8.41997 1.72534L6.48664 6.21201H4.58664C4.13331 6.21201 3.69997 6.30534 3.30664 6.47201L4.47331 3.68534L4.49997 3.61868L4.54664 3.51201C4.55997 3.47201 4.57331 3.43201 4.59331 3.39868C5.46664 1.37868 6.45331 0.918676 8.43997 1.67868Z" stroke="#DCB2FF" stroke-width="1.5" stroke-linecap="round" stroke-linejoin="round"/>
<path d="M12.033 6.34538C11.733 6.25204 11.413 6.21204 11.093 6.21204H6.48633L8.41966 1.72538L8.43966 1.67871C8.53966 1.71204 8.63299 1.75871 8.73299 1.79871L10.2063 2.41871C11.0263 2.75871 11.5997 3.11204 11.9463 3.53871C12.013 3.61871 12.0663 3.69204 12.113 3.77871C12.173 3.87204 12.2197 3.96538 12.2463 4.06538C12.273 4.12538 12.293 4.18538 12.3063 4.23871C12.4863 4.79871 12.3797 5.48538 12.033 6.34538Z" stroke="#DCB2FF" stroke-width="1.5" stroke-linecap="round" stroke-linejoin="round"/>
<path d="M14.3475 9.46549V10.7655C14.3475 10.8988 14.3408 11.0322 14.3342 11.1655C14.2075 13.4922 12.9075 14.6655 10.4408 14.6655H5.24082C5.08082 14.6655 4.92082 14.6522 4.76749 14.6322C2.64749 14.4922 1.51415 13.3588 1.37415 11.2388C1.35415 11.0855 1.34082 10.9255 1.34082 10.7655V9.46549C1.34082 8.12549 2.15415 6.97216 3.31415 6.47216C3.71415 6.30549 4.14082 6.21216 4.59415 6.21216H11.1008C11.4275 6.21216 11.7475 6.25883 12.0408 6.34549C13.3675 6.75216 14.3475 7.99216 14.3475 9.46549Z" stroke="#DCB2FF" stroke-width="1.5" stroke-linecap="round" stroke-linejoin="round"/>
<path d="M4.47301 3.6853L3.30634 6.47197C2.14634 6.97197 1.33301 8.1253 1.33301 9.4653V7.51197C1.33301 5.61864 2.67967 4.03864 4.47301 3.6853Z" stroke="#DCB2FF" stroke-width="1.5" stroke-linecap="round" stroke-linejoin="round"/>
<path d="M14.3457 7.51185V9.46519C14.3457 7.99852 13.3724 6.75185 12.0391 6.35185C12.3857 5.48519 12.4857 4.80519 12.3191 4.23852C12.3057 4.17852 12.2857 4.11852 12.2591 4.06519C13.4991 4.70519 14.3457 6.01852 14.3457 7.51185Z" stroke="#DCB2FF" stroke-width="1.5" stroke-linecap="round" stroke-linejoin="round"/>
</svg>
