<svg width="24" height="24" viewBox="0 0 24 24" fill="none" xmlns="http://www.w3.org/2000/svg">
<path d="M-1628 -6048C-1628 -6049.1 -1627.1 -6050 -1626 -6050H2489C2490.1 -6050 2491 -6049.1 2491 -6048V1871C2491 1872.1 2490.1 1873 2489 1873H-1626C-1627.1 1873 -1628 1872.1 -1628 1871V-6048Z" fill="#DBE6FF"/>
<path d="M-1626 -6049H2489V-6051H-1626V-6049ZM2490 -6048V1871H2492V-6048H2490ZM2489 1872H-1626V1874H2489V1872ZM-1627 1871V-6048H-1629V1871H-1627ZM-1626 1872C-1626.55 1872 -1627 1871.55 -1627 1871H-1629C-1629 1872.66 -1627.66 1874 -1626 1874V1872ZM2490 1871C2490 1871.55 2489.55 1872 2489 1872V1874C2490.66 1874 2492 1872.66 2492 1871H2490ZM2489 -6049C2489.55 -6049 2490 -6048.55 2490 -6048H2492C2492 -6049.66 2490.66 -6051 2489 -6051V-6049ZM-1626 -6051C-1627.66 -6051 -1629 -6049.66 -1629 -6048H-1627C-1627 -6048.55 -1626.55 -6049 -1626 -6049V-6051Z" fill="black" fill-opacity="0.1"/>
<rect x="-37" y="-627" width="393" height="890" rx="30" fill="#0C0C0C"/>
<path d="M12 21C16.9706 21 21 16.9706 21 12C21 7.02944 16.9706 3 12 3C7.02944 3 3 7.02944 3 12C3 16.9706 7.02944 21 12 21Z" fill="#DE6F08" stroke="#DE6F08" stroke-width="2" stroke-miterlimit="10"/>
<path d="M12 7.5V12.75" stroke="#EDEDED" stroke-width="2" stroke-linecap="round" stroke-linejoin="round"/>
<path d="M13.0625 16.125C13.0625 16.7118 12.5868 17.1875 12 17.1875C11.4132 17.1875 10.9375 16.7118 10.9375 16.125C10.9375 15.5382 11.4132 15.0625 12 15.0625C12.5868 15.0625 13.0625 15.5382 13.0625 16.125Z" fill="#EDEDED" stroke="#EDEDED" stroke-width="0.125"/>
</svg>
