<svg width="24" height="9" viewBox="0 0 24 9" fill="none" xmlns="http://www.w3.org/2000/svg">
<path fill-rule="evenodd" clip-rule="evenodd" d="M16.2548 1.00882C16.2548 0.451823 16.696 0 17.2392 0C17.7835 0 18.2243 0.451823 18.2243 1.00882C18.2243 1.56614 17.7835 2.01698 17.2392 2.01698C16.696 2.01698 16.2548 1.56614 16.2548 1.00882ZM19.0854 0.82502L21.0821 0.45904V8.3104H19.0854V0.82502ZM22.0019 0.82502V8.3104H23.9999V0.45904L22.0019 0.82502ZM16.241 2.56776V8.3104H18.2388V2.56776H16.241ZM12.3306 5.07982C12.3306 3.3931 13.2683 2.5445 15.1141 2.48356C15.1141 2.48356 15.4475 2.47045 15.6443 2.51337V4.1919C14.4742 4.23318 14.345 4.666 14.345 5.67548V8.3104H12.3306V5.07982ZM9.69426 2.56121L9.68411 2.58826L9.68411 2.58827C9.61257 2.78058 9.28706 3.65567 8.55653 4.5605V0.45904L6.4948 0.876787V8.3104H8.55653V6.0123C9.15355 6.92971 9.44854 8.3104 9.44854 8.3104H11.9176C11.6734 7.27046 10.6051 5.3534 10.6051 5.3534C11.5643 4.1077 11.9851 2.78106 12.0523 2.56121H9.69426ZM2.20026 2.78532C2.20026 3.3243 2.78512 3.36329 3.03756 3.38C4.88908 3.50712 5.99257 4.43534 5.99257 5.86355C5.99257 7.12367 5.00586 8.39461 2.80464 8.39461C1.78401 8.39461 0.913123 8.29173 0.140776 8.08367V6.24951C0.656527 6.46674 1.5063 6.69478 2.38167 6.69478C3.18057 6.69478 3.65569 6.42415 3.65569 5.96413C3.65569 5.40915 3.0795 5.37299 2.85854 5.35912L2.85615 5.35897C0.277712 5.1791 0 3.61688 0 2.95373C0 1.80206 0.797943 0.45904 3.05004 0.45904C4.35637 0.45904 5.06057 0.66775 5.66719 0.884979L5.69758 0.89448V2.67589L5.67487 2.66933C5.43139 2.56383 5.14536 2.4603 5.14536 2.4603C4.63152 2.3027 3.91293 2.13495 3.3575 2.13495C3.04172 2.13495 2.20026 2.13495 2.20026 2.78532Z" fill="#FF40C1"/>
</svg>
