<svg width="32" height="33" viewBox="0 0 32 33" fill="none" xmlns="http://www.w3.org/2000/svg">
<circle cx="16" cy="16" r="16" fill="#292929" fill-opacity="0.6"/>
<g clip-path="url(#clip0_1310_5638)">
<path d="M16 32.25C24.8366 32.25 32 25.0866 32 16.25C32 7.41344 24.8366 0.25 16 0.25C7.16344 0.25 0 7.41344 0 16.25C0 25.0866 7.16344 32.25 16 32.25Z" fill="#FFD05B"/>
<path d="M24.3149 22.7004C23.3322 22.7004 22.3496 22.2216 22.148 20.8106C22.0472 20.2059 22.1984 19.6011 22.3496 19.0216C22.4503 18.6185 22.5511 18.2153 22.5763 17.8122C22.6015 17.157 22.3748 16.5523 21.9716 16.124C21.5181 15.6452 20.7873 15.4185 20.1322 15.5192L20.0566 15.1161C20.8377 14.9901 21.6944 15.2673 22.2488 15.8216C22.7275 16.3255 23.0047 17.0563 22.9795 17.8122C22.9543 18.2405 22.8535 18.6941 22.7527 19.0972C22.6015 19.6515 22.4755 20.1807 22.5511 20.7098C22.8031 22.3476 24.2645 22.2972 24.6929 22.2216C25.8771 22.0452 27.137 21.113 27.011 20.0799C26.885 18.9712 26.2299 17.5098 25.4488 16.5775C25.3732 16.4767 25.2724 16.3759 25.1716 16.2752C25.0456 16.124 24.8944 15.9728 24.7685 15.7964C24.4157 15.3177 24.1637 14.7885 24.0377 14.209L24.4409 14.1334C24.5417 14.6374 24.7936 15.1413 25.096 15.5696C25.222 15.7208 25.348 15.872 25.474 16.0232C25.5748 16.124 25.6503 16.2248 25.7511 16.3255C26.5826 17.3334 27.2629 18.82 27.3889 20.0295C27.5401 21.3145 26.1039 22.4232 24.7181 22.5996C24.5921 22.7004 24.4409 22.7004 24.3149 22.7004Z" fill="#2B3B4E"/>
<path d="M20.1324 8.84214L20.0568 8.99332C20.0316 9.04372 20.0568 9.06891 20.1072 9.09411L21.2662 9.47206C21.3922 9.52246 21.5182 9.57285 21.619 9.67364L22.3497 10.3288L22.6268 10.0264L21.7701 9.37128C21.6946 9.29568 21.5938 9.24529 21.493 9.22009L20.2331 8.79175C20.1827 8.79175 20.1324 8.81694 20.1324 8.84214Z" fill="white"/>
<path d="M20.6615 8.96814L20.5859 9.2705L20.6615 9.2957L20.7623 8.99334L20.6615 8.96814Z" fill="#E6E9EE"/>
<path d="M20.9641 9.0437L20.8633 9.34606L20.9389 9.37126L21.0397 9.0689L20.9641 9.0437Z" fill="#E6E9EE"/>
<path d="M21.14 9.11926L21.0645 9.42163L21.14 9.44682L21.2408 9.14446L21.14 9.11926Z" fill="#E6E9EE"/>
<path d="M23.1559 10.3288L22.6267 10.0012C22.6015 10.0012 22.5763 10.0012 22.5511 10.0012L22.1732 10.2784C22.148 10.3036 22.148 10.3288 22.1732 10.354L22.4756 10.6311L23.1559 10.3288Z" fill="#F1543F"/>
<path d="M22.9539 13.6548L23.1555 12.3193C23.1555 12.2689 23.1303 12.2186 23.1051 12.1934H23.0799L22.6012 11.8658C22.6012 11.8658 22.576 11.8658 22.576 11.8406C22.4752 11.7902 22.3744 11.8406 22.324 11.9162C22.2736 12.017 22.324 12.1178 22.3996 12.1682L22.8279 12.3697L22.7523 13.6296C22.7523 13.68 22.7775 13.7052 22.8279 13.7304C22.9035 13.7304 22.9539 13.7052 22.9539 13.6548Z" fill="white"/>
<path d="M23.962 13.68L22.7526 13.8815C22.5762 13.9067 22.3998 13.7807 22.3746 13.6044L22.1982 11.7146L22.9541 11.8658L22.7022 12.0674C22.551 12.1681 22.5006 12.3445 22.5258 12.5209L22.7022 13.4028C22.7274 13.4784 22.7778 13.5036 22.8534 13.5036L23.962 13.2012V13.68Z" fill="#324A5E"/>
<path d="M23.4333 10.3539L24.0632 11.4122C24.0884 11.4626 24.0884 11.5382 24.0632 11.5886L23.8364 11.9161L23.4585 12.0169L22.1986 11.8657C22.1231 11.8657 22.0727 11.8154 22.0727 11.7398L21.9971 11.261C21.9971 11.2358 21.9971 11.2106 21.9971 11.1854L22.2238 10.6311C22.249 10.5807 22.2742 10.5555 22.3246 10.5555L23.2317 10.3287C23.3325 10.2783 23.4081 10.3035 23.4333 10.3539Z" fill="#FF7058"/>
<path d="M23.8871 11.7397L24.3659 13.9823L23.9879 14.1083L23.4336 11.9413L23.8871 11.7397Z" fill="#FF7058"/>
<path d="M23.9368 14.5114L23.8612 14.209C23.836 14.1586 23.8864 14.0831 23.9368 14.0579L24.3651 13.9319C24.4155 13.9067 24.4911 13.9571 24.5163 14.0075L24.5919 14.3098C24.6171 14.3602 24.5667 14.4358 24.5163 14.461L24.088 14.587C24.0124 14.6122 23.9368 14.5618 23.9368 14.5114Z" fill="white"/>
<path d="M3.2002 25.8501C6.12303 29.7304 10.7593 32.2501 16.0002 32.2501C21.2411 32.2501 25.8774 29.7304 28.8002 25.8501H3.2002Z" fill="#F9B54C"/>
<path d="M21.2915 23.9351H10.6836V7.53191C10.6836 7.05317 11.0867 6.65002 11.5655 6.65002H20.4348C20.9135 6.65002 21.3167 7.05317 21.3167 7.53191V23.9351H21.2915Z" fill="#324A5E"/>
<path d="M20.2833 7.63269H11.666V14.1335H20.2833V7.63269Z" fill="#E6E9EE"/>
<path d="M21.1905 23.5823H10.7842C10.1543 23.5823 9.65039 24.0862 9.65039 24.7161C9.65039 25.3461 10.1543 25.85 10.7842 25.85H21.2157C21.8457 25.85 22.3496 25.3461 22.3496 24.7161C22.3244 24.1114 21.8205 23.5823 21.1905 23.5823Z" fill="#2B3B4E"/>
<path d="M20.3085 7.63269L11.666 14.1587H20.3085V7.63269Z" fill="#CED5E0"/>
</g>
<defs>
<clipPath id="clip0_1310_5638">
<rect width="32" height="32" fill="white" transform="translate(0 0.25)"/>
</clipPath>
</defs>
</svg>
