<svg width="16" height="16" viewBox="0 0 16 16" fill="none" xmlns="http://www.w3.org/2000/svg">
<path d="M1.33301 5.99992V4.33325C1.33301 2.67325 2.67301 1.33325 4.33301 1.33325H5.99967" stroke="#DCB2FF" stroke-width="1.5" stroke-linecap="round" stroke-linejoin="round"/>
<path d="M10 1.33325H11.6667C13.3267 1.33325 14.6667 2.67325 14.6667 4.33325V5.99992" stroke="#DCB2FF" stroke-width="1.5" stroke-linecap="round" stroke-linejoin="round"/>
<path d="M14.667 10.6667V11.6667C14.667 13.3267 13.327 14.6667 11.667 14.6667H10.667" stroke="#DCB2FF" stroke-width="1.5" stroke-linecap="round" stroke-linejoin="round"/>
<path d="M5.99967 14.6667H4.33301C2.67301 14.6667 1.33301 13.3267 1.33301 11.6667V10" stroke="#DCB2FF" stroke-width="1.5" stroke-linecap="round" stroke-linejoin="round"/>
<path d="M7.00033 4.66675V6.00008C7.00033 6.66675 6.66699 7.00008 6.00033 7.00008H4.66699C4.00033 7.00008 3.66699 6.66675 3.66699 6.00008V4.66675C3.66699 4.00008 4.00033 3.66675 4.66699 3.66675H6.00033C6.66699 3.66675 7.00033 4.00008 7.00033 4.66675Z" stroke="#DCB2FF" stroke-width="1.5" stroke-linecap="round" stroke-linejoin="round"/>
<path d="M12.3333 4.66675V6.00008C12.3333 6.66675 12 7.00008 11.3333 7.00008H10C9.33333 7.00008 9 6.66675 9 6.00008V4.66675C9 4.00008 9.33333 3.66675 10 3.66675H11.3333C12 3.66675 12.3333 4.00008 12.3333 4.66675Z" stroke="#DCB2FF" stroke-width="1.5" stroke-linecap="round" stroke-linejoin="round"/>
<path d="M7.00033 10V11.3333C7.00033 12 6.66699 12.3333 6.00033 12.3333H4.66699C4.00033 12.3333 3.66699 12 3.66699 11.3333V10C3.66699 9.33333 4.00033 9 4.66699 9H6.00033C6.66699 9 7.00033 9.33333 7.00033 10Z" stroke="#DCB2FF" stroke-width="1.5" stroke-linecap="round" stroke-linejoin="round"/>
<path d="M12.3333 10V11.3333C12.3333 12 12 12.3333 11.3333 12.3333H10C9.33333 12.3333 9 12 9 11.3333V10C9 9.33333 9.33333 9 10 9H11.3333C12 9 12.3333 9.33333 12.3333 10Z" stroke="#DCB2FF" stroke-width="1.5" stroke-linecap="round" stroke-linejoin="round"/>
</svg>
