<svg width="210" height="118" viewBox="0 0 210 118" fill="none" xmlns="http://www.w3.org/2000/svg">
<path opacity="0.5" fill-rule="evenodd" clip-rule="evenodd" d="M105 117.763C162.99 117.763 210 112.085 210 107.732C210 103.378 162.99 99.8496 105 99.8496C47.0101 99.8496 0 103.378 0 107.732C0 112.085 47.0101 117.763 105 117.763Z" fill="#323232"/>
<path d="M151.229 21.0312H58.0547C54.0963 21.0312 50.8875 24.2401 50.8875 28.1985V99.8495C50.8875 103.808 54.0963 107.017 58.0547 107.017H151.229C155.187 107.017 158.396 103.808 158.396 99.8495V28.1985C158.396 24.2401 155.187 21.0312 151.229 21.0312Z" fill="#6995FE"/>
<g style="mix-blend-mode:multiply" opacity="0.6">
<path fill-rule="evenodd" clip-rule="evenodd" d="M117.539 51.8418H156.963V80.5036H117.539C109.624 80.5036 103.208 74.0874 103.208 66.1727C103.208 58.258 109.624 51.8418 117.539 51.8418Z" fill="#B4CAFE"/>
</g>
<path fill-rule="evenodd" clip-rule="evenodd" d="M118.973 49.6914H158.396V78.3532H118.973C111.058 78.3532 104.642 71.9371 104.642 64.0223C104.642 56.1076 111.058 49.6914 118.973 49.6914Z" fill="#B4CAFE"/>
<g style="mix-blend-mode:multiply" opacity="0.5">
<path d="M118.259 72.6214C122.614 72.6214 126.143 69.0925 126.143 64.7394C126.143 60.3863 122.614 56.8574 118.259 56.8574C113.905 56.8574 110.375 60.3863 110.375 64.7394C110.375 69.0925 113.905 72.6214 118.259 72.6214Z" fill="#5283E9"/>
</g>
<path d="M118.976 71.9046C123.33 71.9046 126.86 68.3757 126.86 64.0226C126.86 59.6695 123.33 56.1406 118.976 56.1406C114.622 56.1406 111.092 59.6695 111.092 64.0226C111.092 68.3757 114.622 71.9046 118.976 71.9046Z" fill="#5283E9"/>
<g style="mix-blend-mode:multiply" opacity="0.5">
<path fill-rule="evenodd" clip-rule="evenodd" d="M126.601 107.017C123.197 103.214 121.126 98.1914 121.126 92.6858C121.126 80.8137 130.753 71.1895 142.628 71.1895C154.503 71.1895 164.13 80.8137 164.13 92.6858C164.13 98.1914 162.059 103.214 158.655 107.017H126.601Z" fill="#5283E9"/>
</g>
<path d="M144.778 112.749C156.653 112.749 166.28 103.124 166.28 91.2522C166.28 79.3801 156.653 69.7559 144.778 69.7559C132.903 69.7559 123.276 79.3801 123.276 91.2522C123.276 103.124 132.903 112.749 144.778 112.749Z" fill="#5283E9"/>
<path fill-rule="evenodd" clip-rule="evenodd" d="M143.317 99.108C142.969 99.1879 142.588 99.092 142.316 98.8204L134.664 91.1688C134.245 90.749 134.245 90.0683 134.664 89.6484L135.316 88.9968C135.736 88.577 136.417 88.577 136.837 88.9968L143.082 95.2427L154.114 84.2114C154.534 83.7915 155.214 83.7915 155.634 84.2114L156.286 84.863C156.706 85.2828 156.706 85.9635 156.286 86.3834L143.852 98.8169C143.7 98.9692 143.513 99.0662 143.317 99.108Z" fill="white"/>
<path d="M157.679 14.5814C154.117 14.5814 151.229 11.6941 151.229 8.1325C151.229 4.57087 154.117 1.68359 157.679 1.68359C161.242 1.68359 164.13 4.57087 164.13 8.1325C164.13 11.6941 161.242 14.5814 157.679 14.5814ZM157.679 13.1483C160.45 13.1483 162.696 10.9027 162.696 8.1325C162.696 5.36234 160.45 3.11668 157.679 3.11668C154.908 3.11668 152.662 5.36234 152.662 8.1325C152.662 10.9027 154.908 13.1483 157.679 13.1483Z" fill="#5283E9"/>
<path d="M37.9863 86.9535C35.2155 86.9535 32.9692 84.7079 32.9692 81.9377C32.9692 79.1675 35.2155 76.9219 37.9863 76.9219C40.7572 76.9219 43.0034 79.1675 43.0034 81.9377C43.0034 84.7079 40.7572 86.9535 37.9863 86.9535ZM37.9863 85.5204C39.9655 85.5204 41.5699 83.9164 41.5699 81.9377C41.5699 79.959 39.9655 78.355 37.9863 78.355C36.0071 78.355 34.4027 79.959 34.4027 81.9377C34.4027 83.9164 36.0071 85.5204 37.9863 85.5204Z" fill="#5283E9"/>
<path fill-rule="evenodd" clip-rule="evenodd" d="M42.6345 7.46779L44.6619 5.44034C44.9417 5.16051 45.3954 5.16051 45.6753 5.44034C45.9551 5.72017 45.9551 6.17386 45.6753 6.45369L43.6478 8.48114L45.6753 10.5086C45.9551 10.7884 45.9551 11.2421 45.6753 11.5219C45.3954 11.8018 44.9417 11.8018 44.6619 11.5219L42.6345 9.49449L40.607 11.5219C40.3272 11.8018 39.8735 11.8018 39.5937 11.5219C39.3138 11.2421 39.3138 10.7884 39.5937 10.5086L41.6211 8.48114L39.5937 6.45369C39.3138 6.17386 39.3138 5.72017 39.5937 5.44034C39.8735 5.16051 40.3272 5.16051 40.607 5.44034L42.6345 7.46779Z" fill="#5283E9"/>
<path fill-rule="evenodd" clip-rule="evenodd" d="M171.645 102.052L173.672 100.024C173.952 99.7445 174.406 99.7445 174.686 100.024C174.965 100.304 174.965 100.758 174.686 101.038L172.658 103.065L174.686 105.093C174.965 105.372 174.965 105.826 174.686 106.106C174.406 106.386 173.952 106.386 173.672 106.106L171.645 104.078L169.617 106.106C169.337 106.386 168.884 106.386 168.604 106.106C168.324 105.826 168.324 105.372 168.604 105.093L170.631 103.065L168.604 101.038C168.324 100.758 168.324 100.304 168.604 100.024C168.884 99.7445 169.337 99.7445 169.617 100.024L171.645 102.052Z" fill="#5283E9"/>
<path opacity="0.5" d="M80.8118 21.0305L115.572 0.961424C119 -1.01775 123.384 0.156779 125.363 3.58481L135.435 21.0305H80.8118Z" fill="#B4CAFE"/>
<mask id="mask0_1310_2225" style="mask-type:luminance" maskUnits="userSpaceOnUse" x="80" y="0" width="56" height="22">
<path d="M80.8118 21.0305L115.572 0.961424C119 -1.01775 123.384 0.156779 125.363 3.58481L135.435 21.0305H80.8118Z" fill="white"/>
</mask>
<g mask="url(#mask0_1310_2225)">
<g style="mix-blend-mode:multiply" opacity="0.5">
<path d="M137.611 18.8809H80.2729V27.4794H137.611V18.8809Z" fill="#6995FE"/>
</g>
</g>
</svg>
