<svg width="43" height="48" viewBox="0 0 43 48" fill="none" xmlns="http://www.w3.org/2000/svg">
<path d="M41.6419 14.4842C41.781 12.9125 41.7923 10.6945 41.1892 8.14757C40.2558 4.20656 38.3208 1.45843 37.1157 0C35.5294 1.51624 33.8318 3.31731 32.1369 5.4314C29.8165 8.32524 28.0483 11.1222 26.7055 13.579L41.6419 14.4842Z" fill="white"/>
<path d="M1.43645 14.4842C1.29733 12.9125 1.28605 10.6945 1.88907 8.14757C2.8225 4.20656 4.75752 1.45843 5.96262 0C7.54889 1.51624 9.24655 3.31731 10.9414 5.4314C13.2618 8.32524 15.03 11.1222 16.3728 13.579L1.43645 14.4842Z" fill="white"/>
<path d="M41.4382 14.4709C40.7458 13.9139 39.8721 13.5793 38.926 13.5793H37.1212C37.0944 12.4574 36.9336 10.5134 36.2164 9.03103C36.1116 8.81341 35.8206 8.77111 35.6608 8.95347C35.0959 9.60161 33.8645 11.1442 32.595 13.5793H10.4849C9.21543 11.1437 7.98354 9.60161 7.41812 8.95347C7.25879 8.77111 6.96738 8.81341 6.86257 9.03103C6.14487 10.5144 5.98554 12.4583 5.95827 13.5793H4.07402C3.12789 13.5793 2.24992 13.9135 1.55666 14.4751C0.606309 15.2408 0 16.4308 0 17.7656V43.3397C0 45.6526 1.82409 47.5265 4.07402 47.5265H38.926C41.1759 47.5265 43 45.6526 43 43.3397V17.7656C43 16.4261 42.389 15.2361 41.4382 14.4709ZM36.2103 33.4954C34.4586 33.4954 33.042 32.0788 33.042 30.327C33.042 28.5753 34.4586 27.1583 36.2103 27.1583C37.962 27.1583 39.3791 28.5758 39.3791 30.327C39.3791 32.0783 37.962 33.4954 36.2103 33.4954Z" fill="#F76730"/>
</svg>
