<svg width="22" height="14" viewBox="0 0 22 14" fill="none" xmlns="http://www.w3.org/2000/svg">
<path d="M19.5272 2.4425H12.7429L12.0529 3.24316L9.81389 5.84113V5.84122L9.12391 6.64179H2.42926L3.10856 5.83103L3.4301 5.44728L4.1094 4.63652H1.02468C0.461138 4.63652 0 5.12385 0 5.71941V8.00432C0 8.59996 0.461138 9.08729 1.02468 9.08729H12.8344C13.3979 9.08729 14.1677 8.72535 14.5451 8.28297L16.3315 6.18887L19.5272 2.4425Z" fill="#2BA4FF"/>
<path d="M20.8905 0C21.454 0 21.9151 0.487331 21.9151 1.08298V3.3678C21.9151 3.96335 21.454 4.45077 20.8905 4.45077H17.8158L18.5015 3.64609H18.5016L18.8416 3.24715L19.5273 2.44255H12.7431L9.12415 6.64488H2.38796L7.21881 1.01524L7.4016 0.802179C7.78028 0.360963 8.55115 0 9.1147 0H20.8905V0Z" fill="#FBD500"/>
<path fill-rule="evenodd" clip-rule="evenodd" d="M2.30925 12.9715C2.30925 12.8223 2.27508 12.6932 2.20693 12.5841C2.13868 12.4751 2.04894 12.3919 1.9376 12.3345C2.04894 12.2772 2.13521 12.1924 2.19652 12.0805C2.25774 11.9687 2.28835 11.8425 2.28835 11.7019V11.6244C2.28835 11.4522 2.25635 11.3088 2.19236 11.194C2.12828 11.0793 2.03844 10.9874 1.92294 10.9186C1.80744 10.8497 1.66887 10.8002 1.5075 10.77C1.34595 10.7399 1.16646 10.7249 0.968755 10.7249C0.901986 10.7249 0.832355 10.7263 0.760037 10.7292C0.687545 10.7321 0.617308 10.7356 0.549152 10.7399C0.480909 10.7442 0.418216 10.7493 0.361245 10.755C0.304102 10.7608 0.25745 10.7665 0.221291 10.7722C0.140561 10.7867 0.0835044 10.8124 0.05012 10.8497C0.0167356 10.887 0 10.9545 0 11.052V13.6687C0 13.7663 0.0173425 13.8337 0.0522011 13.871C0.0869729 13.9083 0.146111 13.9341 0.229702 13.9485C0.271411 13.957 0.321531 13.9642 0.379975 13.97C0.43842 13.9757 0.50172 13.9807 0.569963 13.985C0.638206 13.9893 0.708443 13.9929 0.780848 13.9958C0.853253 13.9986 0.924184 14.0001 0.993815 14.0001C1.17478 14.0001 1.34526 13.9857 1.50542 13.957C1.6654 13.9284 1.80458 13.8774 1.92294 13.8042C2.0413 13.7311 2.13521 13.6321 2.20484 13.5073C2.27439 13.3825 2.30925 13.2254 2.30925 13.036V12.9715ZM1.59939 11.7363C1.59939 11.7822 1.59245 11.826 1.57849 11.8676C1.56453 11.9091 1.54164 11.9449 1.50964 11.9752C1.47756 12.0053 1.43446 12.0297 1.38018 12.0483C1.32589 12.0669 1.25696 12.0762 1.17345 12.0762H0.705813V11.3317C0.719687 11.3317 0.741278 11.3311 0.770501 11.3295C0.799723 11.3281 0.830332 11.3274 0.862329 11.3274H1.02309C1.23745 11.3274 1.38711 11.3554 1.47201 11.4113C1.5569 11.4673 1.59939 11.554 1.59939 11.6717V11.7363ZM1.49291 13.2985C1.57502 13.2326 1.61612 13.1393 1.61612 13.0188V12.9715C1.61612 12.8681 1.58404 12.7785 1.52005 12.7025C1.45597 12.6265 1.34046 12.5884 1.17346 12.5884H0.705813V13.3932H0.778825C0.810822 13.3932 0.844207 13.3941 0.879065 13.3954C0.913837 13.3969 0.947222 13.3977 0.979305 13.3977H1.04816C1.26251 13.3977 1.41079 13.3646 1.49291 13.2985ZM4.59763 12.3388C4.59763 12.1811 4.57465 12.0468 4.5287 11.9364C4.48283 11.826 4.41805 11.7355 4.33455 11.6652C4.25104 11.595 4.14872 11.5434 4.02758 11.5103C3.90653 11.4774 3.77083 11.4608 3.62047 11.4608C3.48121 11.4608 3.3455 11.4709 3.21335 11.491C3.08103 11.5111 2.97593 11.5312 2.89806 11.5512C2.84517 11.5657 2.81872 11.5971 2.81872 11.6458V11.9945C2.81872 12.0232 2.82566 12.0433 2.83962 12.0547C2.85349 12.0662 2.87153 12.072 2.8939 12.072H2.91471L3.04001 12.0612C3.09013 12.0569 3.1465 12.0534 3.20919 12.0504C3.2718 12.0476 3.33718 12.0455 3.40542 12.044C3.47358 12.0425 3.54113 12.0418 3.60798 12.0418C3.70536 12.0418 3.78193 12.0605 3.8376 12.0978C3.89327 12.1351 3.9211 12.2155 3.9211 12.3388V12.4938H3.69565C3.33648 12.4938 3.07548 12.5519 2.91263 12.668C2.74979 12.7842 2.66836 12.9686 2.66836 13.221V13.2599C2.66836 13.4004 2.68857 13.518 2.72889 13.6127C2.76921 13.7074 2.82288 13.7834 2.88965 13.8409C2.95651 13.8982 3.03229 13.9391 3.11727 13.9634C3.20217 13.9878 3.29061 14.0001 3.38244 14.0001C3.50774 14.0001 3.61561 13.9828 3.70605 13.9484C3.79649 13.914 3.88208 13.8667 3.9629 13.8064V13.8752C3.9629 13.8982 3.97122 13.9183 3.98796 13.9355C4.00469 13.9527 4.02411 13.9613 4.0464 13.9613H4.51413C4.53633 13.9613 4.55584 13.9527 4.57257 13.9355C4.58931 13.9183 4.59763 13.8982 4.59763 13.8752V12.3388ZM3.77292 13.447C3.82989 13.4284 3.88356 13.4061 3.93368 13.3803V12.9069H3.69566C3.62325 12.9069 3.56342 12.9133 3.51607 12.9262C3.46873 12.9392 3.43109 12.9586 3.40335 12.9844C3.37551 13.0101 3.356 13.0432 3.3449 13.0833C3.33372 13.1235 3.32817 13.1694 3.32817 13.221V13.2599C3.32817 13.3516 3.34967 13.4104 3.39285 13.4362C3.43604 13.4621 3.50211 13.4749 3.59125 13.4749C3.65525 13.4749 3.71577 13.4657 3.77292 13.447ZM7.15327 13.8709V12.4377C7.15327 12.303 7.14286 12.176 7.12196 12.0569C7.10107 11.938 7.06352 11.8346 7.00924 11.747C6.95495 11.6595 6.87977 11.5899 6.7837 11.5383C6.68771 11.4867 6.56449 11.4608 6.41413 11.4608C6.2805 11.4608 6.16214 11.4775 6.05921 11.5107C5.9562 11.5439 5.84763 11.6025 5.73352 11.6863V11.582C5.73352 11.559 5.72511 11.5387 5.70846 11.5213C5.69172 11.504 5.67221 11.4952 5.64993 11.4952H5.18229C5.15991 11.4952 5.14049 11.5038 5.12384 11.5211C5.10711 11.5383 5.09878 11.5584 5.09878 11.5813V13.8709C5.09878 13.8939 5.10771 13.9147 5.12592 13.9333C5.14396 13.952 5.16416 13.9613 5.18645 13.9613H5.69172C5.71401 13.9613 5.73352 13.952 5.75017 13.9334C5.7669 13.9148 5.77523 13.8941 5.77523 13.8711V12.1792C5.84763 12.1391 5.91579 12.1063 5.97987 12.0805C6.04386 12.0547 6.10647 12.0418 6.16778 12.0418C6.23177 12.0418 6.28397 12.0483 6.32438 12.0612C6.3647 12.0741 6.396 12.0962 6.41829 12.1279C6.44057 12.1593 6.45592 12.2007 6.46425 12.2522C6.47257 12.3038 6.47682 12.3668 6.47682 12.4412V13.8711C6.47682 13.8941 6.48514 13.9148 6.50188 13.9334C6.51853 13.952 6.53795 13.9613 6.56032 13.9613H7.0656C7.0878 13.9613 7.108 13.952 7.12613 13.9333C7.14425 13.9147 7.15327 13.8939 7.15327 13.8709ZM9.20776 13.4536V13.8365C9.20776 13.8681 9.20074 13.8903 9.18686 13.9032C9.1729 13.9162 9.15062 13.9269 9.12001 13.9355C9.06156 13.9499 8.98569 13.9642 8.89247 13.9786C8.79917 13.9928 8.68991 14.0001 8.56461 14.0001C8.26953 14.0001 8.03359 13.9069 7.85687 13.7203C7.68006 13.5338 7.5917 13.2641 7.5917 12.9112V12.5497C7.5917 12.1968 7.68006 11.9271 7.85687 11.7406C8.03359 11.554 8.26953 11.4608 8.56461 11.4608C8.68991 11.4608 8.79917 11.468 8.89247 11.4823C8.98569 11.4968 9.06156 11.5111 9.12001 11.5254C9.15062 11.5339 9.1729 11.5447 9.18686 11.5576C9.20074 11.5706 9.20776 11.5928 9.20776 11.6244V12.0074C9.20776 12.0304 9.20004 12.0483 9.18478 12.0612C9.16943 12.0741 9.15062 12.0805 9.12842 12.0805H9.12001C9.04205 12.072 8.96765 12.0648 8.89664 12.0591C8.82562 12.0534 8.73023 12.0504 8.61057 12.0504C8.56323 12.0504 8.51874 12.0584 8.47695 12.0741C8.43515 12.0899 8.39899 12.1172 8.36838 12.1559C8.33769 12.1946 8.31341 12.2462 8.29528 12.3108C8.27716 12.3753 8.26814 12.455 8.26814 12.5497V12.9112C8.26814 13.0058 8.27716 13.0855 8.29528 13.1501C8.31341 13.2146 8.33769 13.2663 8.36838 13.305C8.39899 13.3438 8.43515 13.371 8.47695 13.3867C8.51874 13.4026 8.56323 13.4104 8.61057 13.4104C8.73023 13.4104 8.82562 13.4076 8.89664 13.4018C8.96765 13.3961 9.04205 13.3889 9.12001 13.3803H9.12842C9.15062 13.3803 9.16943 13.3867 9.18478 13.3997C9.20004 13.4127 9.20776 13.4305 9.20776 13.4536ZM11.5255 12.5798C11.5255 12.4076 11.5024 12.2527 11.4564 12.115C11.4104 11.9773 11.3434 11.8604 11.2556 11.7642C11.1677 11.6682 11.0589 11.5935 10.9293 11.5405C10.7996 11.4875 10.6495 11.4608 10.4794 11.4608C10.3093 11.4608 10.1594 11.4875 10.0296 11.5405C9.89991 11.5935 9.79039 11.6682 9.70116 11.7642C9.61185 11.8604 9.54421 11.9773 9.49825 12.115C9.45212 12.2527 9.42914 12.4076 9.42914 12.5798V12.8811C9.42914 13.0532 9.45212 13.2082 9.49825 13.3459C9.54421 13.4836 9.61185 13.6005 9.70116 13.6967C9.79039 13.7928 9.89991 13.8674 10.0296 13.9205C10.1594 13.9734 10.3093 14.0001 10.4794 14.0001C10.6495 14.0001 10.7996 13.9734 10.9293 13.9205C11.0589 13.8674 11.1677 13.7928 11.2556 13.6967C11.3434 13.6005 11.4104 13.4836 11.4564 13.3459C11.5024 13.2082 11.5255 13.0532 11.5255 12.8811V12.5798ZM10.4794 13.4104C10.7258 13.4104 10.849 13.234 10.849 12.8811V12.5798C10.849 12.2298 10.7258 12.0547 10.4794 12.0547C10.3576 12.0547 10.2649 12.0985 10.2012 12.186C10.1375 12.2736 10.1057 12.4048 10.1057 12.5798V12.8811C10.1057 13.0561 10.1375 13.1881 10.2012 13.277C10.2649 13.366 10.3576 13.4104 10.4794 13.4104ZM14.01 13.8709V12.4377C14.01 12.303 13.9994 12.176 13.9787 12.0569C13.9578 11.938 13.9201 11.8346 13.8658 11.747C13.8115 11.6595 13.7364 11.5899 13.6404 11.5383C13.5443 11.4867 13.4211 11.4608 13.2708 11.4608C13.1372 11.4608 13.0189 11.4775 12.9158 11.5107C12.8128 11.5439 12.7043 11.6025 12.5902 11.6863V11.582C12.5902 11.559 12.5818 11.5387 12.565 11.5213C12.5484 11.504 12.5288 11.4952 12.5066 11.4952H12.0389C12.0166 11.4952 11.9972 11.5038 11.9805 11.5211C11.9638 11.5383 11.9554 11.5584 11.9554 11.5813V13.8709C11.9554 13.8939 11.9644 13.9147 11.9826 13.9333C12.0007 13.952 12.0208 13.9613 12.0432 13.9613H12.5484C12.5706 13.9613 12.5902 13.952 12.6069 13.9334C12.6235 13.9148 12.6319 13.8941 12.6319 13.8711V12.1792C12.7043 12.1391 12.7725 12.1063 12.8365 12.0805C12.9006 12.0547 12.9632 12.0418 13.0245 12.0418C13.0885 12.0418 13.1407 12.0483 13.181 12.0612C13.2213 12.0741 13.2527 12.0962 13.275 12.1279C13.2973 12.1593 13.3126 12.2007 13.321 12.2522C13.3293 12.3038 13.3335 12.3668 13.3335 12.4412V13.8711C13.3335 13.8941 13.3418 13.9148 13.3585 13.9334C13.3752 13.952 13.3947 13.9613 13.417 13.9613H13.9222C13.9445 13.9613 13.9647 13.952 13.9828 13.9333C14.0009 13.9147 14.01 13.8939 14.01 13.8709ZM15.8308 13.5475V13.8806C15.8308 13.9289 15.8043 13.9574 15.7515 13.9658C15.6874 13.9773 15.6317 13.9858 15.5844 13.9915C15.5371 13.9972 15.4827 14.0001 15.4216 14.0001C15.308 14.0001 15.2077 13.9907 15.1205 13.9721C15.0334 13.9534 14.9606 13.9169 14.9025 13.8624C14.8445 13.8078 14.8002 13.7325 14.7698 13.6363C14.7394 13.5403 14.7242 13.4163 14.7242 13.2641V12.0161L14.3901 11.96C14.3678 11.9543 14.3477 11.9436 14.3295 11.9278C14.3114 11.912 14.3024 11.8926 14.3024 11.8697V11.5856C14.3024 11.5627 14.3114 11.5419 14.3295 11.5232C14.3477 11.5046 14.3678 11.4952 14.3901 11.4952H14.7242V11.1423C14.7242 11.1193 14.7325 11.1007 14.749 11.0864C14.7655 11.0721 14.785 11.0621 14.8072 11.0562L15.3136 10.966H15.3259C15.3481 10.966 15.3661 10.9723 15.38 10.9852C15.3938 10.9982 15.4007 11.0161 15.4007 11.039V11.4952H15.7431C15.7653 11.4952 15.7848 11.5039 15.8016 11.5212C15.8183 11.5386 15.8266 11.5589 15.8266 11.582V11.9335C15.8266 11.9567 15.8183 11.9769 15.8016 11.9943C15.7848 12.0116 15.7653 12.0203 15.7431 12.0203H15.4007V13.2727C15.4007 13.3588 15.4076 13.4141 15.4216 13.4384C15.4355 13.4628 15.4744 13.4749 15.5384 13.4749H15.7431C15.8016 13.4749 15.8308 13.4992 15.8308 13.5475ZM18.0606 12.3388C18.0606 12.1811 18.0377 12.0468 17.9917 11.9364C17.9458 11.826 17.8811 11.7355 17.7976 11.6652C17.7141 11.595 17.6118 11.5434 17.4906 11.5103C17.3696 11.4774 17.2339 11.4608 17.0835 11.4608C16.9442 11.4608 16.8086 11.4709 16.6764 11.491C16.5441 11.5111 16.439 11.5312 16.3611 11.5512C16.308 11.5657 16.2818 11.5971 16.2818 11.6458V11.9945C16.2818 12.0232 16.2886 12.0433 16.3026 12.0547C16.3165 12.0662 16.3346 12.072 16.3569 12.072H16.3778L16.5031 12.0612C16.5532 12.0569 16.6095 12.0534 16.6722 12.0504C16.7348 12.0476 16.8002 12.0455 16.8685 12.044C16.9366 12.0425 17.0042 12.0418 17.0709 12.0418C17.1684 12.0418 17.245 12.0605 17.3006 12.0978C17.3563 12.1351 17.3842 12.2155 17.3842 12.3388V12.4938H17.1587C16.7994 12.4938 16.5385 12.5519 16.3757 12.668C16.2128 12.7842 16.1314 12.9686 16.1314 13.221V13.2599C16.1314 13.4004 16.1515 13.518 16.1919 13.6127C16.2322 13.7074 16.2859 13.7834 16.3527 13.8409C16.4196 13.8982 16.4953 13.9391 16.5803 13.9634C16.6652 13.9878 16.7536 14.0001 16.8455 14.0001C16.9708 14.0001 17.0786 13.9828 17.1691 13.9484C17.2595 13.914 17.345 13.8667 17.4259 13.8064V13.8752C17.4259 13.8982 17.4343 13.9183 17.451 13.9355C17.4677 13.9527 17.4872 13.9613 17.5095 13.9613H17.9772C17.9994 13.9613 18.0189 13.9527 18.0356 13.9355C18.0523 13.9183 18.0606 13.8982 18.0606 13.8752V12.3388ZM17.236 13.447C17.2929 13.4284 17.3466 13.4061 17.3967 13.3803V12.9069H17.1587C17.0863 12.9069 17.0265 12.9133 16.9791 12.9262C16.9318 12.9392 16.8941 12.9586 16.8664 12.9844C16.8385 13.0101 16.819 13.0432 16.8079 13.0833C16.7968 13.1235 16.7912 13.1694 16.7912 13.221V13.2599C16.7912 13.3516 16.8127 13.4104 16.8559 13.4362C16.8991 13.4621 16.9652 13.4749 17.0543 13.4749C17.1183 13.4749 17.1787 13.4657 17.236 13.447ZM20.1152 13.8365V13.4536C20.1152 13.4305 20.1074 13.4127 20.0922 13.3997C20.0768 13.3867 20.0581 13.3803 20.0358 13.3803H20.0275C19.9495 13.3889 19.8751 13.3961 19.804 13.4018C19.7331 13.4076 19.6377 13.4104 19.5181 13.4104C19.4706 13.4104 19.4261 13.4026 19.3844 13.3867C19.3426 13.371 19.3064 13.3438 19.2758 13.305C19.2452 13.2663 19.2208 13.2146 19.2028 13.1501C19.1846 13.0855 19.1756 13.0058 19.1756 12.9112V12.5497C19.1756 12.455 19.1846 12.3753 19.2028 12.3108C19.2208 12.2462 19.2452 12.1946 19.2758 12.1559C19.3064 12.1172 19.3426 12.0899 19.3844 12.0741C19.4261 12.0584 19.4706 12.0504 19.5181 12.0504C19.6377 12.0504 19.7331 12.0534 19.804 12.0591C19.8751 12.0648 19.9495 12.072 20.0275 12.0805H20.0358C20.0581 12.0805 20.0768 12.0741 20.0922 12.0612C20.1074 12.0483 20.1152 12.0304 20.1152 12.0074V11.6244C20.1152 11.5928 20.1082 11.5706 20.0943 11.5576C20.0802 11.5447 20.0581 11.5339 20.0275 11.5254C19.9691 11.5111 19.8931 11.4968 19.7999 11.4823C19.7066 11.468 19.5974 11.4608 19.4721 11.4608C19.1768 11.4608 18.9411 11.554 18.7643 11.7406C18.5875 11.9271 18.4991 12.1968 18.4991 12.5497V12.9112C18.4991 13.2641 18.5875 13.5338 18.7643 13.7203C18.9411 13.9069 19.1768 14.0001 19.4721 14.0001C19.5974 14.0001 19.7066 13.9928 19.7999 13.9786C19.8931 13.9642 19.9691 13.9499 20.0275 13.9355C20.0581 13.9269 20.0802 13.9162 20.0943 13.9032C20.1082 13.8903 20.1152 13.8681 20.1152 13.8365ZM21.9149 13.5475V13.8806C21.9149 13.9289 21.8884 13.9574 21.8356 13.9658C21.7715 13.9773 21.7158 13.9858 21.6686 13.9915C21.6211 13.9972 21.5668 14.0001 21.5057 14.0001C21.3921 14.0001 21.2918 13.9907 21.2046 13.9721C21.1174 13.9534 21.0448 13.9169 20.9867 13.8624C20.9286 13.8078 20.8843 13.7325 20.8539 13.6363C20.8235 13.5403 20.8083 13.4163 20.8083 13.2641V12.0161L20.4743 11.96C20.4519 11.9543 20.4318 11.9436 20.4137 11.9278C20.3955 11.912 20.3865 11.8926 20.3865 11.8697V11.5856C20.3865 11.5627 20.3955 11.5419 20.4137 11.5232C20.4318 11.5046 20.4519 11.4952 20.4743 11.4952H20.8083V11.1423C20.8083 11.1193 20.8166 11.1007 20.8332 11.0864C20.8496 11.0721 20.8691 11.0621 20.8913 11.0562L21.3976 10.966H21.4101C21.4322 10.966 21.4502 10.9723 21.4639 10.9852C21.4779 10.9982 21.4848 11.0161 21.4848 11.039V11.4952H21.8272C21.8494 11.4952 21.869 11.5039 21.8857 11.5212C21.9023 11.5386 21.9108 11.5589 21.9108 11.582V11.9335C21.9108 11.9567 21.9023 11.9769 21.8857 11.9943C21.869 12.0116 21.8494 12.0203 21.8272 12.0203H21.4848V13.2727C21.4848 13.3588 21.4918 13.4141 21.5057 13.4384C21.5196 13.4628 21.5585 13.4749 21.6226 13.4749H21.8272C21.8857 13.4749 21.9149 13.4992 21.9149 13.5475Z" fill="#2BA4FF"/>
</svg>
