<svg width="16" height="16" viewBox="0 0 16 16" fill="none" xmlns="http://www.w3.org/2000/svg">
<path d="M2 3.16898V11.8315C1.99992 11.9089 2.01783 11.9853 2.05232 12.0547C2.08681 12.124 2.13694 12.1844 2.19875 12.2311C2.26056 12.2777 2.33237 12.3094 2.40851 12.3236C2.48465 12.3377 2.56304 12.334 2.6375 12.3127L13.6375 9.10648C13.742 9.07659 13.834 9.01343 13.8994 8.92659C13.9648 8.83975 14.0001 8.73395 14 8.62523V6.37523C14.0001 6.26651 13.9648 6.16072 13.8994 6.07388C13.834 5.98704 13.742 5.92388 13.6375 5.89398L2.6375 2.68773C2.56304 2.66644 2.48465 2.66273 2.40851 2.6769C2.33237 2.69107 2.26056 2.72274 2.19875 2.7694C2.13694 2.81606 2.08681 2.87644 2.05232 2.94579C2.01783 3.01513 1.99992 3.09154 2 3.16898Z" stroke="#DCB2FF" stroke-width="1.5" stroke-linecap="round" stroke-linejoin="round"/>
<path d="M11.5 9.73105V11.9998C11.5 12.1324 11.4473 12.2596 11.3536 12.3534C11.2598 12.4471 11.1326 12.4998 11 12.4998H9C8.86739 12.4998 8.74021 12.4471 8.64645 12.3534C8.55268 12.2596 8.5 12.1324 8.5 11.9998V4.39355" stroke="#DCB2FF" stroke-width="1.5" stroke-linecap="round" stroke-linejoin="round"/>
</svg>
