<svg width="210" height="140" viewBox="0 0 210 140" fill="none" xmlns="http://www.w3.org/2000/svg">
<path d="M97.4258 5.22429C95.5215 5.90789 93.2266 8.20281 93.2266 9.42351C93.2266 9.86296 92.8848 9.91179 86.6348 9.91179H79.9941V12.1579C79.9941 16.3083 78.7246 22.4606 77.4551 24.3649L77.0645 24.9509H99.0371C116.518 24.9509 120.961 24.8532 120.863 24.6091C120.766 24.4626 120.375 23.4372 119.936 22.4118C119.057 20.3122 118.471 17.0895 118.178 12.695L117.982 9.86296H111.635H105.238L104.75 8.69109C104.506 8.0075 103.773 7.03093 103.09 6.445C101.332 4.93132 99.4277 4.49187 97.4258 5.22429ZM101.332 8.64226C104.604 10.6442 103.09 15.9665 99.2813 15.9665C96.4492 15.9665 94.5938 13.5739 95.3262 10.8884C96.0586 8.20281 98.9395 7.12859 101.332 8.64226Z" fill="#6995FE"/>
<path d="M67.7383 16.0153C64.6133 16.7477 60.9512 19.5309 59.4863 22.3141L58.7051 23.7789V68.7008V113.623L59.291 114.697C60.0723 116.162 61.7324 117.627 63.7344 118.554C67.1035 120.117 66.2246 120.117 98.9394 120.117C116.371 120.117 129.408 120.019 130.141 119.873C133.559 119.189 136.439 117.382 137.709 114.99L138.295 113.916V68.8473V23.7789L137.514 22.1188C136.537 19.9703 134.291 17.8219 131.898 16.65C130.141 15.8199 130.043 15.8199 125.746 15.7223L121.4 15.6246L121.547 17.0406C121.645 17.8219 121.889 19.0426 122.133 19.8238L122.523 21.191L125.648 21.2887C129.115 21.3863 129.799 21.6793 131.264 23.6813C132.924 25.9762 132.826 23.486 132.826 68.2613C132.826 112.646 132.924 110.547 131.361 112.548C130.971 113.037 130.189 113.672 129.652 113.964C128.627 114.502 128.041 114.502 98.8906 114.502H69.2031L67.7871 113.769C66.2246 112.939 64.8086 111.328 64.3691 109.814C64.2227 109.13 64.125 95.3121 64.125 68.066C64.125 27.5387 64.125 27.2945 64.6621 25.8297C65.248 24.1695 67.1035 22.1188 68.4707 21.5328C69.0566 21.2887 70.3262 21.1422 72.2305 21.1422H75.0625L75.6484 20.3121C76.2832 19.482 77.2598 16.8942 77.2598 16.0641C77.2598 15.6246 76.9668 15.5758 72.9629 15.6246C70.668 15.7711 68.2754 15.8688 67.7383 16.0153Z" fill="#6995FE"/>
<path d="M96.1074 50.5371V52.8809L94.5938 53.3691C91.8105 54.248 89.6621 55.957 88.4902 58.1055C87.9043 59.2773 87.7578 59.7656 87.7578 61.8164C87.7578 63.8184 87.8555 64.4043 88.3437 65.332C89.5645 67.6758 92.25 69.5312 96.498 71.0449C99.0859 71.9238 100.258 72.5586 101.137 73.5352C102.797 75.293 102.064 77.5391 99.623 78.418C97.3281 79.2481 92.8848 78.6133 89.1738 76.9043C88.832 76.7578 88.6367 77.1973 88.0508 79.3457C87.6602 80.8105 87.3184 82.0801 87.3184 82.2754C87.3184 82.8613 92.7871 84.4238 94.8867 84.4238H95.7656V86.9141V89.4043H98.1582H100.551V86.7676V84.1797L102.309 83.6914C105.531 82.8125 108.168 80.5176 109.193 77.6856C109.73 76.1719 109.73 73.3887 109.193 71.7285C108.314 68.9941 106.166 67.334 101.039 65.2832C97.3281 63.7695 96.0098 62.9883 95.4238 61.8652C94.8379 60.791 95.2773 59.4238 96.4492 58.7402C98.207 57.666 102.26 57.8613 105.385 59.1309L106.898 59.7168L107.582 56.9824C107.973 55.4687 108.266 54.1992 108.266 54.1504C108.266 53.9063 104.506 52.8809 102.846 52.6855L100.99 52.4902L100.893 50.293L100.795 48.1445H98.5H96.1074V50.5371Z" fill="#6995FE"/>
<path d="M134.002 124.993C145.877 124.993 155.503 115.368 155.503 103.496C155.503 91.6243 145.877 82 134.002 82C122.127 82 112.5 91.6243 112.5 103.496C112.5 115.368 122.127 124.993 134.002 124.993Z" fill="#127700"/>
<path fill-rule="evenodd" clip-rule="evenodd" d="M131.468 111.212C131.119 111.291 130.738 111.196 130.466 110.924L122.815 103.272C122.395 102.853 122.395 102.172 122.815 101.752L123.466 101.1C123.886 100.681 124.567 100.681 124.987 101.1L131.233 107.346L142.264 96.3149C142.684 95.895 143.365 95.895 143.784 96.3149L144.436 96.9665C144.856 97.3863 144.856 98.067 144.436 98.4869L132.003 110.92C131.85 111.073 131.664 111.17 131.468 111.212Z" fill="white"/>
<path opacity="0.5" fill-rule="evenodd" clip-rule="evenodd" d="M105 139.081C162.99 139.081 210 133.402 210 129.049C210 124.696 162.99 121.167 105 121.167C47.0101 121.167 0 124.696 0 129.049C0 133.402 47.0101 139.081 105 139.081Z" fill="#323232"/>
<path d="M157.679 43.8978C154.117 43.8978 151.229 41.0105 151.229 37.4489C151.229 33.8873 154.117 31 157.679 31C161.242 31 164.13 33.8873 164.13 37.4489C164.13 41.0105 161.242 43.8978 157.679 43.8978ZM157.679 42.4647C160.45 42.4647 162.696 40.2191 162.696 37.4489C162.696 34.6787 160.45 32.4331 157.679 32.4331C154.908 32.4331 152.662 34.6787 152.662 37.4489C152.662 40.2191 154.908 42.4647 157.679 42.4647Z" fill="#5283E9"/>
<path d="M37.9863 116.269C35.2155 116.269 32.9692 114.023 32.9692 111.253C32.9692 108.483 35.2155 106.237 37.9863 106.237C40.7572 106.237 43.0034 108.483 43.0034 111.253C43.0034 114.023 40.7572 116.269 37.9863 116.269ZM37.9863 114.836C39.9655 114.836 41.5699 113.232 41.5699 111.253C41.5699 109.274 39.9655 107.67 37.9863 107.67C36.0071 107.67 34.4027 109.274 34.4027 111.253C34.4027 113.232 36.0071 114.836 37.9863 114.836Z" fill="#5283E9"/>
<path fill-rule="evenodd" clip-rule="evenodd" d="M171.645 131.367L173.672 129.34C173.952 129.06 174.406 129.06 174.686 129.34C174.965 129.62 174.965 130.073 174.686 130.353L172.658 132.381L174.686 134.408C174.965 134.688 174.965 135.142 174.686 135.421C174.406 135.701 173.952 135.701 173.672 135.421L171.645 133.394L169.617 135.421C169.337 135.701 168.884 135.701 168.604 135.421C168.324 135.142 168.324 134.688 168.604 134.408L170.631 132.381L168.604 130.353C168.324 130.073 168.324 129.62 168.604 129.34C168.884 129.06 169.337 129.06 169.617 129.34L171.645 131.367Z" fill="#5283E9"/>
<path fill-rule="evenodd" clip-rule="evenodd" d="M50.2507 39.2373L52.2781 37.2099C52.558 36.93 53.0116 36.93 53.2915 37.2099C53.5713 37.4897 53.5713 37.9434 53.2915 38.2232L51.264 40.2507L53.2915 42.2781C53.5713 42.558 53.5713 43.0116 53.2915 43.2915C53.0116 43.5713 52.558 43.5713 52.2781 43.2915L50.2507 41.264L48.2232 43.2915C47.9434 43.5713 47.4897 43.5713 47.2099 43.2915C46.93 43.0116 46.93 42.558 47.2099 42.2781L49.2373 40.2507L47.2099 38.2232C46.93 37.9434 46.93 37.4897 47.2099 37.2099C47.4897 36.93 47.9434 36.93 48.2232 37.2099L50.2507 39.2373Z" fill="#5283E9"/>
</svg>
