<svg width="24" height="24" viewBox="0 0 24 24" fill="none" xmlns="http://www.w3.org/2000/svg">
<path d="M-2830 -5595.09C-2830 -5596.19 -2829.1 -5597.09 -2828 -5597.09H1287C1288.1 -5597.09 1289 -5596.19 1289 -5595.09V2323.91C1289 2325.01 1288.1 2325.91 1287 2325.91H-2828C-2829.1 2325.91 -2830 2325.01 -2830 2323.91V-5595.09Z" fill="#DBE6FF"/>
<path d="M-2828 -5596.09H1287V-5598.09H-2828V-5596.09ZM1288 -5595.09V2323.91H1290V-5595.09H1288ZM1287 2324.91H-2828V2326.91H1287V2324.91ZM-2829 2323.91V-5595.09H-2831V2323.91H-2829ZM-2828 2324.91C-2828.55 2324.91 -2829 2324.46 -2829 2323.91H-2831C-2831 2325.57 -2829.66 2326.91 -2828 2326.91V2324.91ZM1288 2323.91C1288 2324.46 1287.55 2324.91 1287 2324.91V2326.91C1288.66 2326.91 1290 2325.57 1290 2323.91H1288ZM1287 -5596.09C1287.55 -5596.09 1288 -5595.64 1288 -5595.09H1290C1290 -5596.75 1288.66 -5598.09 1287 -5598.09V-5596.09ZM-2828 -5598.09C-2829.66 -5598.09 -2831 -5596.75 -2831 -5595.09H-2829C-2829 -5595.64 -2828.55 -5596.09 -2828 -5596.09V-5598.09Z" fill="black" fill-opacity="0.1"/>
<rect x="-333" y="-174.09" width="393" height="852" rx="30" fill="#0C0C0C"/>
<path d="M11.5 21C16.7467 21 21 16.7467 21 11.5C21 6.25329 16.7467 2 11.5 2C6.25329 2 2 6.25329 2 11.5C2 16.7467 6.25329 21 11.5 21Z" stroke="#8D8D8D" stroke-width="1.5" stroke-linecap="round" stroke-linejoin="round"/>
<path d="M22 22L20 20" stroke="#8D8D8D" stroke-width="1.5" stroke-linecap="round" stroke-linejoin="round"/>
</svg>
