<svg width="16" height="16" viewBox="0 0 16 16" fill="none" xmlns="http://www.w3.org/2000/svg">
<path d="M5 8H11" stroke="#05EBC1" stroke-width="1.5" stroke-linecap="round" stroke-linejoin="round"/>
<path d="M6.5 11H4C3.20435 11 2.44129 10.6839 1.87868 10.1213C1.31607 9.55871 1 8.79565 1 8C1 7.20435 1.31607 6.44129 1.87868 5.87868C2.44129 5.31607 3.20435 5 4 5H6.5" stroke="#05EBC1" stroke-width="1.5" stroke-linecap="round" stroke-linejoin="round"/>
<path d="M9.5 11H12C12.7956 11 13.5587 10.6839 14.1213 10.1213C14.6839 9.55871 15 8.79565 15 8C15 7.20435 14.6839 6.44129 14.1213 5.87868C13.5587 5.31607 12.7956 5 12 5H9.5" stroke="#05EBC1" stroke-width="1.5" stroke-linecap="round" stroke-linejoin="round"/>
</svg>
