<svg width="210" height="118" viewBox="0 0 210 118" fill="none" xmlns="http://www.w3.org/2000/svg">
<path opacity="0.5" fill-rule="evenodd" clip-rule="evenodd" d="M105 117.764C162.99 117.764 210 112.086 210 107.733C210 103.379 162.99 99.8506 105 99.8506C47.0101 99.8506 0 103.379 0 107.733C0 112.086 47.0101 117.764 105 117.764Z" fill="#323232"/>
<path d="M151.229 21.0305H58.0549C54.0966 21.0305 50.8877 24.2394 50.8877 28.1978V99.8487C50.8877 103.807 54.0966 107.016 58.0549 107.016H151.229C155.187 107.016 158.396 103.807 158.396 99.8487V28.1978C158.396 24.2394 155.187 21.0305 151.229 21.0305Z" fill="#E30000"/>
<g style="mix-blend-mode:multiply" opacity="0.6">
<path fill-rule="evenodd" clip-rule="evenodd" d="M117.539 51.842H156.962V80.5039H117.539C109.624 80.5039 103.208 74.0877 103.208 66.1729C103.208 58.2582 109.624 51.842 117.539 51.842Z" fill="#B4CAFE"/>
</g>
<path fill-rule="evenodd" clip-rule="evenodd" d="M118.973 49.6924H158.396V78.3542H118.973C111.058 78.3542 104.642 71.938 104.642 64.0233C104.642 56.1086 111.058 49.6924 118.973 49.6924Z" fill="#FEE9B4"/>
<g style="mix-blend-mode:multiply" opacity="0.5">
<path d="M118.259 72.6217C122.613 72.6217 126.143 69.0928 126.143 64.7397C126.143 60.3866 122.613 56.8577 118.259 56.8577C113.905 56.8577 110.375 60.3866 110.375 64.7397C110.375 69.0928 113.905 72.6217 118.259 72.6217Z" fill="#5283E9"/>
</g>
<path d="M118.976 71.9051C123.33 71.9051 126.86 68.3762 126.86 64.0231C126.86 59.67 123.33 56.1411 118.976 56.1411C114.622 56.1411 111.092 59.67 111.092 64.0231C111.092 68.3762 114.622 71.9051 118.976 71.9051Z" fill="#5283E9"/>
<g style="mix-blend-mode:multiply" opacity="0.5">
<path fill-rule="evenodd" clip-rule="evenodd" d="M126.601 107.016C123.196 103.213 121.126 98.1907 121.126 92.6851C121.126 80.813 130.753 71.1887 142.628 71.1887C154.503 71.1887 164.129 80.813 164.129 92.6851C164.129 98.1907 162.059 103.213 158.654 107.016H126.601Z" fill="#5283E9"/>
</g>
<path d="M144.778 112.748C156.653 112.748 166.28 103.124 166.28 91.252C166.28 79.3799 156.653 69.7556 144.778 69.7556C132.903 69.7556 123.276 79.3799 123.276 91.252C123.276 103.124 132.903 112.748 144.778 112.748Z" fill="#E30000"/>
<path d="M157.679 14.5817C154.117 14.5817 151.229 11.6944 151.229 8.13275C151.229 4.57111 154.117 1.68384 157.679 1.68384C161.242 1.68384 164.13 4.57111 164.13 8.13275C164.13 11.6944 161.242 14.5817 157.679 14.5817ZM157.679 13.1486C160.45 13.1486 162.696 10.9029 162.696 8.13275C162.696 5.36259 160.45 3.11693 157.679 3.11693C154.908 3.11693 152.662 5.36259 152.662 8.13275C152.662 10.9029 154.908 13.1486 157.679 13.1486Z" fill="#5283E9"/>
<path d="M37.9868 86.9528C35.2159 86.9528 32.9697 84.7071 32.9697 81.937C32.9697 79.1668 35.2159 76.9211 37.9868 76.9211C40.7576 76.9211 43.0039 79.1668 43.0039 81.937C43.0039 84.7071 40.7576 86.9528 37.9868 86.9528ZM37.9868 85.5197C39.966 85.5197 41.5704 83.9156 41.5704 81.937C41.5704 79.9583 39.966 78.3542 37.9868 78.3542C36.0076 78.3542 34.4032 79.9583 34.4032 81.937C34.4032 83.9156 36.0076 85.5197 37.9868 85.5197Z" fill="#5283E9"/>
<path fill-rule="evenodd" clip-rule="evenodd" d="M42.6345 7.46706L44.6619 5.43961C44.9417 5.15978 45.3954 5.15978 45.6753 5.43961C45.9551 5.71944 45.9551 6.17313 45.6753 6.45296L43.6478 8.48041L45.6753 10.5079C45.9551 10.7877 45.9551 11.2414 45.6753 11.5212C45.3954 11.801 44.9417 11.801 44.6619 11.5212L42.6345 9.49376L40.607 11.5212C40.3272 11.801 39.8735 11.801 39.5937 11.5212C39.3138 11.2414 39.3138 10.7877 39.5937 10.5079L41.6211 8.48041L39.5937 6.45296C39.3138 6.17313 39.3138 5.71944 39.5937 5.43961C39.8735 5.15978 40.3272 5.15978 40.607 5.43961L42.6345 7.46706Z" fill="#5283E9"/>
<path fill-rule="evenodd" clip-rule="evenodd" d="M171.645 102.052L173.673 100.024C173.952 99.7445 174.406 99.7445 174.686 100.024C174.966 100.304 174.966 100.758 174.686 101.038L172.659 103.065L174.686 105.093C174.966 105.372 174.966 105.826 174.686 106.106C174.406 106.386 173.952 106.386 173.673 106.106L171.645 104.078L169.618 106.106C169.338 106.386 168.884 106.386 168.604 106.106C168.325 105.826 168.325 105.372 168.604 105.093L170.632 103.065L168.604 101.038C168.325 100.758 168.325 100.304 168.604 100.024C168.884 99.7445 169.338 99.7445 169.618 100.024L171.645 102.052Z" fill="#5283E9"/>
<path fill-rule="evenodd" clip-rule="evenodd" d="M145 89.7069L149.678 85.0291C150.323 84.3835 151.37 84.3835 152.016 85.0291C152.661 85.6748 152.661 86.7215 152.016 87.3672L147.338 92.0449L152.016 96.7227C152.661 97.3683 152.661 98.4151 152.016 99.0607C151.37 99.7063 150.323 99.7063 149.678 99.0607L145 94.3829L140.322 99.0607C139.677 99.7063 138.63 99.7063 137.984 99.0607C137.339 98.4151 137.339 97.3683 137.984 96.7227L142.662 92.0449L137.984 87.3672C137.339 86.7215 137.339 85.6748 137.984 85.0291C138.63 84.3835 139.677 84.3835 140.322 85.0291L145 89.7069Z" fill="white"/>
<path opacity="0.5" d="M80.8115 21.0305L115.572 0.961424C119 -1.01775 123.384 0.156779 125.363 3.58481L135.435 21.0305H80.8115Z" fill="#B4CAFE"/>
<mask id="mask0_1310_3688" style="mask-type:luminance" maskUnits="userSpaceOnUse" x="80" y="0" width="56" height="22">
<path d="M80.8115 21.0305L115.572 0.961424C119 -1.01775 123.384 0.156779 125.363 3.58481L135.435 21.0305H80.8115Z" fill="white"/>
</mask>
<g mask="url(#mask0_1310_3688)">
<g style="mix-blend-mode:multiply" opacity="0.5">
<path d="M137.61 18.8809H80.2725V27.4794H137.61V18.8809Z" fill="#6995FE"/>
</g>
</g>
</svg>
