<svg width="20" height="20" viewBox="0 0 20 20" fill="none" xmlns="http://www.w3.org/2000/svg">
<path fill-rule="evenodd" clip-rule="evenodd" d="M9.99183 3.23486H9.99996C11.1626 3.23486 12.2926 3.51381 13.3333 4.03806L10.6178 6.77909C10.4227 6.74628 10.2113 6.72166 9.99996 6.72166C8.20321 6.72166 6.74793 8.19022 6.74793 10.0034C6.74793 10.2167 6.77232 10.43 6.80484 10.6269L3.79671 13.6624C2.9837 12.7108 2.27638 11.5613 1.71541 10.2413C1.65037 10.0936 1.65037 9.91311 1.71541 9.75723C3.45524 5.67152 6.5528 3.23486 9.99183 3.23486ZM15.3577 5.45821C16.5365 6.54117 17.5365 8.00152 18.2845 9.75723C18.3495 9.91311 18.3495 10.0936 18.2845 10.2413C16.5447 14.327 13.4471 16.7719 9.99996 16.7719H9.99183C8.42272 16.7719 6.91865 16.255 5.59345 15.3115L8.17069 12.7108C8.69101 13.0627 9.32516 13.2768 9.99996 13.2768C11.7886 13.2768 13.2439 11.8083 13.2439 10.0034C13.2439 9.32241 13.0325 8.68247 12.6829 8.1574L15.3577 5.45821Z" fill="#645F5F"/>
<path fill-rule="evenodd" clip-rule="evenodd" d="M15.3578 5.45789L16.8375 3.96472C17.0814 3.72679 17.0814 3.33299 16.8375 3.09507C16.6017 2.85715 16.2196 2.85715 15.9757 3.09507L15.2114 3.86627C15.2033 3.88268 15.1871 3.89908 15.1708 3.91549C15.1627 3.9319 15.1464 3.94831 15.1301 3.96472L14.4066 4.69571L11.8293 7.29646L3.10576 16.0988L3.08137 16.1316C2.91877 16.3695 2.95129 16.6985 3.15454 16.9036C3.26836 17.0259 3.43096 17.0833 3.58543 17.0833C3.7399 17.0833 3.89438 17.0259 4.01633 16.9036L12.683 8.15708L15.3578 5.45789ZM10.0001 12.0462C11.114 12.0462 12.0245 11.1273 12.0245 10.0034C12.0245 9.65879 11.9432 9.33062 11.7969 9.05167L9.05706 11.8165C9.33348 11.9642 9.65869 12.0462 10.0001 12.0462Z" fill="#645F5F"/>
</svg>
