<svg width="11" height="14" viewBox="0 0 11 14" fill="none" xmlns="http://www.w3.org/2000/svg">
<path fill-rule="evenodd" clip-rule="evenodd" d="M3.1246 12.9596L3.34951 11.483L2.84849 11.4709H0.456001L2.1187 0.574414C2.12388 0.541418 2.14062 0.510788 2.16508 0.488998C2.18965 0.467208 2.22097 0.455255 2.25374 0.455255H6.28784C7.6272 0.455255 8.55143 0.743254 9.0339 1.31178C9.26014 1.57849 9.40422 1.85727 9.47397 2.16395C9.54709 2.48582 9.5483 2.87031 9.47698 3.33936L9.4718 3.37347V3.67405L9.69804 3.80653C9.8885 3.911 10.0399 4.03053 10.1561 4.16737C10.3495 4.39548 10.4747 4.68534 10.5276 5.02888C10.5823 5.38225 10.5642 5.80285 10.4747 6.27899C10.3715 6.8266 10.2046 7.30361 9.97921 7.69384C9.772 8.05343 9.50794 8.35176 9.19436 8.58286C8.895 8.8025 8.53938 8.96922 8.13726 9.07593C7.74755 9.18077 7.30326 9.23369 6.81597 9.23369H6.50203C6.2776 9.23369 6.05955 9.31724 5.88837 9.46703C5.7167 9.61993 5.60322 9.82886 5.56841 10.0573L5.54467 10.1903L5.14725 12.793L5.1293 12.8885C5.12448 12.9188 5.11629 12.9339 5.10424 12.9441C5.09352 12.9534 5.0781 12.9596 5.06304 12.9596H3.1246Z" fill="#28356A"/>
<path fill-rule="evenodd" clip-rule="evenodd" d="M9.91256 3.40819C9.90064 3.48776 9.88678 3.56906 9.87136 3.65261C9.33938 6.47582 7.51923 7.45114 5.19468 7.45114H4.01109C3.72679 7.45114 3.48718 7.66443 3.44296 7.95429L2.66535 13.0525C2.63655 13.2429 2.77846 13.4143 2.96423 13.4143H5.0635C5.31202 13.4143 5.5232 13.2277 5.56235 12.9743L5.58295 12.8641L5.97821 10.2716L6.00363 10.1294C6.0423 9.87516 6.25396 9.68839 6.50248 9.68839H6.81642C8.85028 9.68839 10.4425 8.83498 10.9079 6.36513C11.1022 5.33342 11.0016 4.47191 10.4872 3.86603C10.3315 3.68337 10.1384 3.53171 9.91256 3.40819Z" fill="#298FC2"/>
<path fill-rule="evenodd" clip-rule="evenodd" d="M9.35568 3.17865C9.27436 3.15412 9.19052 3.13196 9.1045 3.11191C9.01801 3.09236 8.92946 3.07506 8.83827 3.05986C8.51915 3.00657 8.16943 2.9813 7.7949 2.9813H4.63298C4.55504 2.9813 4.48107 2.99948 4.41494 3.03235C4.26905 3.10481 4.16075 3.24751 4.13449 3.4222L3.4618 7.82573L3.44252 7.95411C3.48673 7.66424 3.72634 7.45095 4.01065 7.45095H5.19424C7.51879 7.45095 9.33893 6.47514 9.87092 3.65242C9.88682 3.56887 9.90019 3.48757 9.91212 3.408C9.77755 3.33417 9.63179 3.27104 9.47482 3.21725C9.43603 3.20393 9.39603 3.1911 9.35568 3.17865Z" fill="#22284F"/>
<path fill-rule="evenodd" clip-rule="evenodd" d="M4.13478 3.42237C4.16104 3.24768 4.26934 3.10499 4.41522 3.03302C4.48184 3.00002 4.55533 2.98184 4.63327 2.98184H7.79518C8.16972 2.98184 8.51944 3.00724 8.83856 3.06054C8.92975 3.0756 9.01829 3.09303 9.10479 3.11258C9.1908 3.1325 9.27465 3.15479 9.35596 3.1792C9.39632 3.19165 9.43632 3.2046 9.47547 3.21742C9.63244 3.27121 9.77832 3.33484 9.91288 3.40818C10.0712 2.36488 9.91156 1.65453 9.36584 1.0113C8.76411 0.303065 7.67821 0 6.28862 0H2.2544C1.97057 0 1.72843 0.213291 1.68458 0.503656L0.00430024 11.5122C-0.0288284 11.73 0.133682 11.9265 0.346187 11.9265H2.83674L4.13478 3.42237Z" fill="#397EFD"/>
</svg>
