<svg width="24" height="24" viewBox="0 0 24 24" fill="none" xmlns="http://www.w3.org/2000/svg">
<path d="M12.7641 3.04928C12.6807 2.88024 12.5439 2.74342 12.3748 2.66C11.9503 2.45048 11.4364 2.62478 11.2269 3.04928L8.72068 8.12734L3.1167 8.94166C2.93015 8.96875 2.75775 9.0566 2.62617 9.1916C2.29574 9.5306 2.30267 10.0733 2.64166 10.4037L6.69674 14.3564L5.73946 19.9377C5.7076 20.1235 5.73787 20.3147 5.82559 20.4815C6.04588 20.9005 6.56412 21.0616 6.98314 20.8413L11.9955 18.2062L17.0078 20.8413C17.1747 20.929 17.3658 20.9593 17.5516 20.9274C18.0182 20.8474 18.3315 20.4043 18.2515 19.9377L17.2942 14.3564L21.3493 10.4037C21.4843 10.2721 21.5722 10.0997 21.5992 9.91315C21.6673 9.44463 21.3427 9.00972 20.8743 8.94166L15.2703 8.12734L12.7641 3.04928ZM11.9955 4.397L14.4165 9.30252L19.83 10.0891L15.9127 13.9075L16.8375 19.2992V13.9075L19.83 10.0891L14.3617 9.1916L11.9955 4.397Z" fill="#FF4500"/>
</svg>
