<svg width="55" height="55" viewBox="0 0 55 55" fill="none" xmlns="http://www.w3.org/2000/svg">
<path d="M10.3125 8.59375L44.6875 46.4062" stroke="#DCB2FF" stroke-width="2" stroke-linecap="round" stroke-linejoin="round"/>
<path d="M41.6582 43.0762C39.3775 44.1393 36.8913 44.6893 34.375 44.6875H15.4688C12.2779 44.6875 9.21767 43.4199 6.96137 41.1636C4.70507 38.9073 3.4375 35.8471 3.4375 32.6563C3.4375 29.4654 4.70507 26.4052 6.96137 24.1489C9.21767 21.8926 12.2779 20.625 15.4688 20.625C16.4754 20.6246 17.4782 20.7473 18.4551 20.9902" stroke="#DCB2FF" stroke-width="2" stroke-linecap="round" stroke-linejoin="round"/>
<path d="M24.1914 13.6427C27.6148 11.1027 31.8599 9.92551 36.1024 10.3396C40.345 10.7538 44.2823 12.7297 47.1499 15.8837C50.0175 19.0378 51.6106 23.1449 51.6201 27.4076C51.6296 31.6704 50.0547 35.7845 47.2012 38.9513" stroke="#DCB2FF" stroke-width="2" stroke-linecap="round" stroke-linejoin="round"/>
<path d="M17.1876 27.5C17.1791 24.4303 18.0032 21.4157 19.5723 18.7773" stroke="#DCB2FF" stroke-width="2" stroke-linecap="round" stroke-linejoin="round"/>
</svg>
