<svg width="17" height="17" viewBox="0 0 17 17" fill="none" xmlns="http://www.w3.org/2000/svg">
<g clip-path="url(#clip0_1016_37157)">
<path d="M9.60306 2.51998C8.33422 2.28593 7.02438 2.56552 5.96168 3.29723C4.89898 4.02895 4.17048 5.15285 3.93644 6.42169C3.34078 9.651 6.88395 14.0766 7.03468 14.2652C7.12591 14.3778 7.25437 14.4541 7.39691 14.4804C7.53945 14.5067 7.68669 14.4812 7.8121 14.4086C8.05009 14.2917 12.9091 11.4159 13.5048 8.1866C13.7388 6.91776 13.4592 5.60792 12.7275 4.54522C11.9958 3.48252 10.8719 2.75402 9.60306 2.51998ZM7.65614 13.075C6.60297 11.6441 4.76405 8.63969 5.13248 6.6423C5.30801 5.69067 5.85439 4.84775 6.65141 4.29896C7.44843 3.75018 8.43082 3.54049 9.38245 3.71602C10.3341 3.89155 11.177 4.43793 11.7258 5.23495C12.2746 6.03197 12.4843 7.01436 12.3087 7.96599C11.9403 9.96338 9.14944 12.1199 7.65614 13.075ZM9.16183 4.91206C8.68872 4.82479 8.20036 4.87978 7.7585 5.07007C7.31664 5.26035 6.94113 5.57739 6.67946 5.98109C6.41778 6.38479 6.28169 6.85702 6.2884 7.33807C6.29511 7.81911 6.44432 8.28736 6.71715 8.68361C6.98998 9.07985 7.37419 9.3863 7.82118 9.56419C8.26817 9.74208 8.75788 9.78342 9.22837 9.68299C9.69886 9.58257 10.129 9.34488 10.4644 8.99998C10.7998 8.65509 11.0254 8.21848 11.1127 7.74537C11.2297 7.11095 11.0899 6.45603 10.7241 5.92468C10.3582 5.39333 9.79625 5.02908 9.16183 4.91206ZM8.49999 8.50019C8.26343 8.45655 8.04513 8.34375 7.87268 8.17605C7.70024 8.00835 7.58139 7.79328 7.53118 7.55803C7.48097 7.32278 7.50164 7.07793 7.59058 6.85443C7.67953 6.63094 7.83275 6.43883 8.03087 6.30242C8.229 6.166 8.46312 6.0914 8.70364 6.08804C8.94417 6.08469 9.18028 6.15273 9.38213 6.28357C9.58398 6.41441 9.7425 6.60216 9.83764 6.82309C9.93279 7.04402 9.96028 7.2882 9.91665 7.52476C9.85814 7.84197 9.67601 8.12294 9.41034 8.30587C9.14466 8.4888 8.8172 8.5587 8.49999 8.50019Z" fill="white"/>
</g>
<defs>
<clipPath id="clip0_1016_37157">
<rect width="14" height="14" fill="white" transform="translate(2.64741) scale(1.04247) rotate(10.451)"/>
</clipPath>
</defs>
</svg>
