<svg width="20" height="20" viewBox="0 0 20 20" fill="none" xmlns="http://www.w3.org/2000/svg">
<g clip-path="url(#clip0_1310_5696)">
<path d="M16.8966 17.5862C16.7059 17.5862 16.5518 17.4321 16.5518 17.2414V5.86204C16.5518 5.67135 16.7059 5.51721 16.8966 5.51721C17.0873 5.51721 17.2414 5.67135 17.2414 5.86204V17.2414C17.2414 17.4321 17.0873 17.5862 16.8966 17.5862Z" fill="#CAD3DB"/>
<path d="M13.7931 12.069H13.6213C13.3145 12.069 13.0445 11.8662 12.9589 11.5718L11.741 7.37831C11.5213 6.87624 11.0251 6.55176 10.4772 6.55176H4.00551C3.45759 6.55176 2.96136 6.87624 2.7417 7.37831L1.5238 11.5718C1.43828 11.8662 1.16828 12.069 0.861397 12.069H0.689658C0.308629 12.069 0 12.3777 0 12.7587V16.5518C0 16.9328 0.308629 17.2415 0.689658 17.2415H13.7931C14.1741 17.2415 14.4827 16.9328 14.4827 16.5518V12.7587C14.4827 12.3777 14.1741 12.069 13.7931 12.069Z" fill="#25B99A"/>
<path d="M2.4135 20H1.72384C1.34281 20 1.03418 19.6913 1.03418 19.3103V17.2413H3.10315V19.3103C3.10311 19.6913 2.79452 20 2.4135 20Z" fill="#485762"/>
<path d="M12.7582 20H12.0686C11.6875 20 11.3789 19.6913 11.3789 19.3103V17.2413H13.4479V19.3103C13.4479 19.6913 13.1393 20 12.7582 20Z" fill="#485762"/>
<path d="M3.79358 14.4827C3.79358 15.0541 3.33046 15.5172 2.7591 15.5172C2.18773 15.5172 1.72461 15.0541 1.72461 14.4827C1.72461 13.9114 2.18773 13.4482 2.7591 13.4482C3.33046 13.4482 3.79358 13.9113 3.79358 14.4827Z" fill="#FFD06C"/>
<path d="M12.7594 14.4827C12.7594 15.0541 12.2963 15.5172 11.7249 15.5172C11.1536 15.5172 10.6904 15.0541 10.6904 14.4827C10.6904 13.9114 11.1536 13.4482 11.7249 13.4482C12.2963 13.4482 12.7594 13.9113 12.7594 14.4827Z" fill="#FFD06C"/>
<path d="M7.93118 15.5172H6.55186C6.36117 15.5172 6.20703 15.363 6.20703 15.1723C6.20703 14.9816 6.36117 14.8275 6.55186 14.8275H7.93118C8.12187 14.8275 8.276 14.9816 8.276 15.1723C8.276 15.363 8.12187 15.5172 7.93118 15.5172Z" fill="#485762"/>
<path d="M8.62104 14.1379H5.86241C5.67171 14.1379 5.51758 13.9838 5.51758 13.7931C5.51758 13.6024 5.67171 13.4482 5.86241 13.4482H8.62104C8.81173 13.4482 8.96587 13.6024 8.96587 13.7931C8.96587 13.9838 8.81173 14.1379 8.62104 14.1379Z" fill="#485762"/>
<path d="M10.5707 11.3793H3.91146C3.68043 11.3793 3.51489 11.1566 3.58113 10.9355L4.40871 8.17688C4.4525 8.03101 4.58665 7.93103 4.73904 7.93103H9.74319C9.89562 7.93103 10.0297 8.03105 10.0735 8.17688L10.9011 10.9355C10.9673 11.1566 10.8018 11.3793 10.5707 11.3793Z" fill="#D0E8F9"/>
<path d="M14.8271 20H18.9651V18.6207H14.8271V20Z" fill="#485762"/>
<path d="M15.8623 18.6206H17.9313V17.2413H15.8623V18.6206Z" fill="#95ACB9"/>
<path d="M14.1377 5.86205H19.9997V0H14.1377V5.86205Z" fill="#2080E0"/>
<path d="M16.5519 4.82766C16.3612 4.82766 16.207 4.67353 16.207 4.48284V1.37937C16.207 1.18868 16.3612 1.03455 16.5519 1.03455C16.7426 1.03455 16.8967 1.18868 16.8967 1.37937V4.48284C16.8967 4.67349 16.7426 4.82766 16.5519 4.82766Z" fill="white"/>
<path d="M16.8967 3.10352H17.2415C17.6219 3.10352 17.9312 2.79421 17.9312 2.41386C17.9312 2.03351 17.6219 1.7242 17.2415 1.7242H16.8967V3.10352ZM17.2415 3.79318H16.5519C16.3612 3.79318 16.207 3.63904 16.207 3.44835V1.37937C16.207 1.18868 16.3612 1.03455 16.5519 1.03455H17.2415C18.0022 1.03455 18.6208 1.65316 18.6208 2.41386C18.6208 3.17457 18.0022 3.79318 17.2415 3.79318Z" fill="white"/>
</g>
<defs>
<clipPath id="clip0_1310_5696">
<rect width="20" height="20" fill="white"/>
</clipPath>
</defs>
</svg>
