<svg width="49" height="56" viewBox="0 0 49 56" fill="none" xmlns="http://www.w3.org/2000/svg">
<path d="M-3388.3 -4741.94C-3388.3 -4743.05 -3387.4 -4743.95 -3386.28 -4743.95H1472.2C1473.31 -4743.95 1474.21 -4743.05 1474.21 -4741.94V1142.83C1474.21 1143.94 1473.31 1144.84 1472.2 1144.84H-3386.28C-3387.4 1144.84 -3388.3 1143.94 -3388.3 1142.83V-4741.94Z" fill="#DBE6FF"/>
<rect x="-297.361" y="-142.293" width="395.809" height="858.09" rx="30" fill="#171717"/>
<rect width="303" height="54.1353" transform="translate(-258.082 -0.284736) scale(1.00715)" fill="#202020"/>
<path d="M42.0484 54.2375H6.79825C5.46269 54.2375 4.18183 53.7069 3.23744 52.7626C2.29306 51.8182 1.76251 50.5373 1.76251 49.2017V26.5409C1.76251 25.2054 2.29306 23.9245 3.23744 22.9801C4.18183 22.0357 5.46269 21.5052 6.79825 21.5052H42.0484C43.384 21.5052 44.6649 22.0357 45.6092 22.9801C46.5536 23.9245 47.0842 25.2054 47.0842 26.5409V49.2017C47.0842 50.5373 46.5536 51.8182 45.6092 52.7626C44.6649 53.7069 43.384 54.2375 42.0484 54.2375Z" stroke="#00C5C0" stroke-width="3.5"/>
<path d="M35.7538 39.1298C35.4199 39.1298 35.0997 38.9971 34.8636 38.761C34.6275 38.5249 34.4948 38.2047 34.4948 37.8708C34.4948 37.5369 34.6275 37.2167 34.8636 36.9806C35.0997 36.7445 35.4199 36.6119 35.7538 36.6119C36.0877 36.6119 36.4079 36.7445 36.644 36.9806C36.8801 37.2167 37.0127 37.5369 37.0127 37.8708C37.0127 38.2047 36.8801 38.5249 36.644 38.761C36.4079 38.9971 36.0877 39.1298 35.7538 39.1298Z" stroke="#00C5C0" stroke-width="3.5" stroke-linecap="round" stroke-linejoin="round"/>
<path d="M39.5306 21.5056V17.9881C39.5304 17.2164 39.3528 16.455 39.0115 15.7628C38.6703 15.0707 38.1746 14.4662 37.5626 13.996C36.9506 13.5259 36.2387 13.2027 35.482 13.0515C34.7252 12.9002 33.9438 12.9249 33.1981 13.1236L5.50155 20.5085C4.42907 20.7943 3.48105 21.4264 2.80488 22.3066C2.12871 23.1867 1.76226 24.2656 1.76251 25.3755V26.5413" stroke="#00C5C0" stroke-width="3.5"/>
<line x1="16.2124" y1="4.98159" x2="20.5541" y2="10.2719" stroke="#00C5C0" stroke-width="2" stroke-linecap="round"/>
<line x1="27.5042" y1="1.47803" x2="28.6376" y2="8.15791" stroke="#00C5C0" stroke-width="2" stroke-linecap="round"/>
<line x1="39.0416" y1="1.00734" x2="36.6881" y2="7.43368" stroke="#00C5C0" stroke-width="2" stroke-linecap="round"/>
</svg>
