<svg width="23" height="14" viewBox="0 0 23 14" fill="none" xmlns="http://www.w3.org/2000/svg">
<path fill-rule="evenodd" clip-rule="evenodd" d="M11.5 12.1383C10.282 13.165 8.70195 13.7848 6.97542 13.7848C3.123 13.7848 0 10.699 0 6.89242C0 3.08584 3.123 0 6.97542 0C8.70195 0 10.282 0.619801 11.5 1.64651C12.7181 0.619801 14.2981 0 16.0246 0C19.877 0 23 3.08584 23 6.89242C23 10.699 19.877 13.7848 16.0246 13.7848C14.2981 13.7848 12.7181 13.165 11.5 12.1383Z" fill="#ED0006"/>
<path fill-rule="evenodd" clip-rule="evenodd" d="M11.5 12.1383C12.9998 10.8741 13.9508 8.99301 13.9508 6.89242C13.9508 4.79182 12.9998 2.9107 11.5 1.6465C12.7181 0.6198 14.2981 0 16.0246 0C19.877 0 23 3.08584 23 6.89242C23 10.699 19.877 13.7848 16.0246 13.7848C14.2981 13.7848 12.7181 13.165 11.5 12.1383Z" fill="#F9A000"/>
<path fill-rule="evenodd" clip-rule="evenodd" d="M11.5001 12.1383C12.9998 10.8741 13.9509 8.99302 13.9509 6.89244C13.9509 4.79186 12.9998 2.91075 11.5001 1.64655C10.0003 2.91075 9.04926 4.79186 9.04926 6.89244C9.04926 8.99302 10.0003 10.8741 11.5001 12.1383Z" fill="#FF5E00"/>
</svg>
