<svg width="40" height="40" viewBox="0 0 40 40" fill="none" xmlns="http://www.w3.org/2000/svg">
<g clip-path="url(#clip0_989_31631)">
<path d="M20 40C31.0457 40 40 31.0457 40 20C40 8.95431 31.0457 0 20 0C8.95431 0 0 8.95431 0 20C0 31.0457 8.95431 40 20 40Z" fill="#FFD05B"/>
<path d="M30.3938 28.063C29.1654 28.063 27.9371 27.4646 27.6851 25.7008C27.5591 24.9449 27.7481 24.189 27.9371 23.4646C28.063 22.9607 28.189 22.4567 28.2205 21.9528C28.252 21.1339 27.9686 20.378 27.4646 19.8426C26.8977 19.2441 25.9843 18.9607 25.1654 19.0867L25.0709 18.5827C26.0473 18.4252 27.1182 18.7717 27.8111 19.4646C28.4095 20.0945 28.756 21.0079 28.7245 21.9528C28.693 22.4882 28.567 23.0552 28.441 23.5591C28.252 24.252 28.0945 24.9134 28.189 25.5748C28.504 27.6221 30.3308 27.5591 30.8662 27.4646C32.3465 27.2441 33.9213 26.0788 33.7638 24.7874C33.6064 23.4016 32.7875 21.5748 31.8111 20.4095C31.7166 20.2835 31.5906 20.1575 31.4646 20.0315C31.3071 19.8426 31.1182 19.6536 30.9607 19.4331C30.5197 18.8347 30.2048 18.1733 30.0473 17.4489L30.5512 17.3544C30.6772 17.9843 30.9922 18.6142 31.3701 19.1496C31.5276 19.3386 31.6851 19.5276 31.8426 19.7166C31.9686 19.8426 32.063 19.9685 32.189 20.0945C33.2284 21.3544 34.0788 23.2126 34.2363 24.7245C34.4253 26.3307 32.63 27.7166 30.8977 27.937C30.7402 28.063 30.5512 28.063 30.3938 28.063Z" fill="#2B3B4E"/>
<path d="M25.1653 10.7401L25.0708 10.9291C25.0393 10.9921 25.0708 11.0236 25.1338 11.0551L26.5826 11.5275C26.7401 11.5905 26.8976 11.6535 27.0236 11.7795L27.937 12.5984L28.2834 12.2204L27.2126 11.4015C27.1181 11.307 26.9921 11.2441 26.8661 11.2126L25.2913 10.6771C25.2283 10.6771 25.1653 10.7086 25.1653 10.7401Z" fill="white"/>
<path d="M25.8268 10.8976L25.7323 11.2755L25.8268 11.307L25.9528 10.9291L25.8268 10.8976Z" fill="#E6E9EE"/>
<path d="M26.2047 10.9921L26.0787 11.37L26.1732 11.4015L26.2992 11.0236L26.2047 10.9921Z" fill="#E6E9EE"/>
<path d="M26.4252 11.0865L26.3307 11.4645L26.4252 11.496L26.5512 11.118L26.4252 11.0865Z" fill="#E6E9EE"/>
<path d="M28.9448 12.5984L28.2834 12.189C28.2519 12.189 28.2204 12.189 28.1889 12.189L27.7165 12.5354C27.685 12.5669 27.685 12.5984 27.7165 12.6299L28.0944 12.9764L28.9448 12.5984Z" fill="#F1543F"/>
<path d="M28.6929 16.756L28.9449 15.0867C28.9449 15.0237 28.9134 14.9607 28.8819 14.9292H28.8504L28.2519 14.5197C28.2519 14.5197 28.2204 14.5197 28.2204 14.4882C28.0945 14.4253 27.9685 14.4882 27.9055 14.5827C27.8425 14.7087 27.9055 14.8347 28 14.8977L28.5354 15.1497L28.4409 16.7245C28.4409 16.7875 28.4724 16.819 28.5354 16.8505C28.6299 16.8505 28.6929 16.819 28.6929 16.756Z" fill="white"/>
<path d="M29.9528 16.7874L28.441 17.0393C28.2205 17.0708 28 16.9134 27.9685 16.6929L27.748 14.3307L28.6929 14.5197L28.378 14.7716C28.189 14.8976 28.126 15.1181 28.1575 15.3386L28.378 16.4409C28.4095 16.5354 28.4725 16.5669 28.5669 16.5669L29.9528 16.189V16.7874Z" fill="#324A5E"/>
<path d="M29.2914 12.6299L30.0788 13.9528C30.1103 14.0157 30.1103 14.1102 30.0788 14.1732L29.7953 14.5827L29.3229 14.7087L27.7481 14.5197C27.6536 14.5197 27.5906 14.4567 27.5906 14.3622L27.4961 13.7638C27.4961 13.7323 27.4961 13.7008 27.4961 13.6693L27.7796 12.9764C27.8111 12.9134 27.8425 12.8819 27.9055 12.8819L29.0394 12.5984C29.1654 12.5354 29.2599 12.5669 29.2914 12.6299Z" fill="#FF7058"/>
<path d="M29.8583 14.3622L30.4567 17.1653L29.9843 17.3228L29.2914 14.6142L29.8583 14.3622Z" fill="#FF7058"/>
<path d="M29.9212 17.8268L29.8267 17.4488C29.7952 17.3858 29.8582 17.2913 29.9212 17.2599L30.4567 17.1024C30.5197 17.0709 30.6141 17.1339 30.6456 17.1969L30.7401 17.5748C30.7716 17.6378 30.7086 17.7323 30.6456 17.7638L30.1102 17.9213C30.0157 17.9528 29.9212 17.8898 29.9212 17.8268Z" fill="white"/>
<path d="M4 32C7.65354 36.8504 13.4488 40 20 40C26.5512 40 32.3465 36.8504 36 32H4Z" fill="#F9B54C"/>
<path d="M26.6142 29.6063H13.3544V9.10236C13.3544 8.50394 13.8583 8 14.4567 8H25.5433C26.1418 8 26.6457 8.50394 26.6457 9.10236V29.6063H26.6142Z" fill="#324A5E"/>
<path d="M25.3543 9.22839H14.5826V17.3544H25.3543V9.22839Z" fill="#E6E9EE"/>
<path d="M26.4882 29.1654H13.4803C12.6929 29.1654 12.063 29.7953 12.063 30.5827C12.063 31.3701 12.6929 32.0001 13.4803 32.0001H26.5197C27.3071 32.0001 27.937 31.3701 27.937 30.5827C27.9055 29.8268 27.2756 29.1654 26.4882 29.1654Z" fill="#2B3B4E"/>
<path d="M25.3858 9.22839L14.5826 17.3859H25.3858V9.22839Z" fill="#CED5E0"/>
</g>
<defs>
<clipPath id="clip0_989_31631">
<rect width="40" height="40" fill="white"/>
</clipPath>
</defs>
</svg>
