<svg width="15" height="17" viewBox="0 0 15 17" fill="none" xmlns="http://www.w3.org/2000/svg">
<path fill-rule="evenodd" clip-rule="evenodd" d="M1.09236 11.6159L1.08928 11.6196L1.08629 11.6234C0.919593 11.8349 0.546185 11.897 0.254169 11.7122C0.0204089 11.5643 -0.0498618 11.2347 0.149192 10.9743C0.446191 10.6351 0.661886 10.2385 0.803556 9.8509C0.951044 9.44734 1.01964 8.98877 1.01696 8.53902C1.01429 8.08926 0.94025 7.63137 0.787973 7.22925C0.641704 6.84298 0.421308 6.44853 0.120294 6.1122C-0.0818451 5.85364 -0.015496 5.52341 0.216493 5.37327C0.506295 5.18572 0.880421 5.24429 1.04962 5.45414L1.05265 5.45791L1.05579 5.46161C1.43044 5.90422 1.73774 6.39599 1.92137 6.87846C2.11467 7.44602 2.2378 7.99504 2.241 8.53318C2.24436 9.09948 2.18396 9.63547 1.95201 10.1631C1.6994 10.7378 1.45478 11.1781 1.09236 11.6159ZM3.80124 12.667L3.80856 12.6577L3.81528 12.648C4.64566 11.4561 5.12462 10.0178 5.11572 8.51946C5.10681 7.02148 4.61103 5.58819 3.76691 4.40442C3.58399 4.14453 3.66616 3.83724 3.97449 3.6377C4.18157 3.50368 4.57033 3.55113 4.801 3.82808C5.75403 5.18277 6.32969 6.82037 6.33975 8.51362C6.35016 10.2647 5.79443 11.8491 4.85669 13.2137C4.63976 13.4812 4.30766 13.5562 4.02128 13.4046C3.71081 13.2007 3.65406 12.8537 3.80124 12.667ZM8.66225 2.04747L8.67043 2.06194L8.6799 2.07578C9.97129 3.96204 10.6889 6.13778 10.7029 8.49281C10.7169 10.8468 10.0258 13.0283 8.75805 14.9262C8.56369 15.2062 8.23555 15.2851 7.90287 15.1464C7.6001 14.9696 7.51876 14.6766 7.67691 14.3807C8.75511 12.6653 9.42554 10.6437 9.41279 8.49896C9.4001 6.36375 8.77689 4.34546 7.60479 2.62984C7.44619 2.33691 7.52473 2.04516 7.8239 1.86636C8.18485 1.71188 8.53649 1.82511 8.66225 2.04747ZM12.486 0.252356L12.4916 0.262243L12.4978 0.271837C14.0627 2.69533 14.9821 5.46609 15 8.47231C15.0178 11.4754 14.1332 14.2522 12.6001 16.6887C12.4054 16.9654 12.0788 17.043 11.7477 16.9049C11.4459 16.7287 11.3641 16.437 11.5203 16.1421C12.9972 13.8838 13.7925 11.2674 13.776 8.47815C13.7593 5.68173 12.863 3.07548 11.4311 0.839443C11.2517 0.513029 11.3781 0.193339 11.6285 0.0796618C11.9961 -0.0871954 12.358 0.0260703 12.486 0.252356Z" fill="white"/>
</svg>
