<svg width="48" height="48" viewBox="0 0 48 48" fill="none" xmlns="http://www.w3.org/2000/svg">
<g clip-path="url(#clip0_1310_2317)">
<path d="M22.2661 21.7415V22.9159C22.2661 24.2717 21.1633 25.3745 19.806 25.3745C18.4503 25.3745 17.3474 24.2714 17.3474 22.9159V21.7415H22.2661ZM27.6704 15.1638C26.3143 15.1638 25.2109 16.2669 25.2109 17.623V18.7967H30.1296V17.623C30.1296 16.2669 29.0265 15.1638 27.6704 15.1638ZM48 6.98462V11.1156C48 14.3036 45.4062 16.8971 42.2185 16.8971H40.5058V41.9298C40.5058 44.6137 38.3223 46.7972 35.6384 46.7972H12.2636C9.57968 46.7972 7.39612 44.6137 7.39612 41.9298V16.8971H5.78179C2.59377 16.8971 0 14.3036 0 11.1156V6.98462C0 3.7966 2.59377 1.20312 5.7815 1.20312H42.2182C45.4062 1.20312 48 3.7966 48 6.98462ZM35.7865 20.2691C35.7865 19.4561 35.1272 18.7967 34.3141 18.7967H33.0744V17.623C33.0744 14.6431 30.6502 12.219 27.6704 12.219C24.6906 12.219 22.2661 14.6431 22.2661 17.623V18.7967H17.3477V13.6914C17.3477 12.8783 16.6884 12.219 15.8753 12.219C15.0623 12.219 14.4029 12.8783 14.4029 13.6914V18.7967H13.5878C12.7748 18.7967 12.1154 19.4561 12.1154 20.2691C12.1154 21.0822 12.7748 21.7415 13.5878 21.7415H14.4029V22.9159C14.4029 25.8954 16.8268 28.3193 19.8078 28.3193C22.7873 28.3193 25.2112 25.8954 25.2112 22.9159V21.7415H30.1299V26.8469C30.1299 27.66 30.7892 28.3193 31.6023 28.3193C32.4153 28.3193 33.0747 27.66 33.0747 26.8469V21.7415H34.3144C35.1272 21.7415 35.7865 21.0825 35.7865 20.2691ZM45.0552 6.98462C45.0552 5.42035 43.7828 4.14791 42.2185 4.14791H5.7815C4.21723 4.14791 2.94479 5.42035 2.94479 6.98462V11.1156C2.94479 12.6798 4.21723 13.9523 5.7815 13.9523H7.39583V12.1421H6.82189C6.00884 12.1421 5.3495 11.4828 5.3495 10.6697V7.43046C5.3495 6.61741 6.00884 5.95807 6.82189 5.95807H41.1778C41.9909 5.95807 42.6502 6.61741 42.6502 7.43046V10.6697C42.6502 11.4828 41.9909 12.1421 41.1778 12.1421H40.5055V13.9523H42.2182C43.7825 13.9523 45.0549 12.6798 45.0549 11.1156V6.98462H45.0552Z" fill="#31A2D9"/>
</g>
<defs>
<clipPath id="clip0_1310_2317">
<rect width="48" height="48" fill="white"/>
</clipPath>
</defs>
</svg>
