<svg width="16" height="16" viewBox="0 0 16 16" fill="none" xmlns="http://www.w3.org/2000/svg">
<path d="M8.00004 14.6673C11.6819 14.6673 14.6667 11.6825 14.6667 8.00065C14.6667 4.31875 11.6819 1.33398 8.00004 1.33398C4.31814 1.33398 1.33337 4.31875 1.33337 8.00065C1.33337 11.6825 4.31814 14.6673 8.00004 14.6673Z" stroke="#DCB2FF" stroke-width="1.5" stroke-miterlimit="10" stroke-linecap="round" stroke-linejoin="round"/>
<path d="M8.00002 9.9209C7.39335 9.9209 6.90002 9.42755 6.90002 8.82088V7.17423C6.90002 6.56757 7.39335 6.07422 8.00002 6.07422C8.60669 6.07422 9.10002 6.56757 9.10002 7.17423V8.82088C9.10002 9.42755 8.60669 9.9209 8.00002 9.9209Z" stroke="#DCB2FF" stroke-width="1.5" stroke-linecap="round"/>
<path d="M11.32 8.97978C11.1866 10.6998 9.74663 12.0465 7.99996 12.0465C6.15996 12.0465 4.66663 10.5531 4.66663 8.71314V7.28646C4.66663 5.44646 6.15996 3.95312 7.99996 3.95312C9.72663 3.95312 11.1466 5.26645 11.3133 6.94645" stroke="#DCB2FF" stroke-width="1.5" stroke-linecap="round"/>
</svg>
