<svg width="32" height="20" viewBox="0 0 32 20" fill="none" xmlns="http://www.w3.org/2000/svg">
<path d="M-1741 -4765C-1741 -4766.1 -1740.1 -4767 -1739 -4767H3085C3086.1 -4767 3087 -4766.1 3087 -4765V1078C3087 1079.1 3086.1 1080 3085 1080H-1739C-1740.1 1080 -1741 1079.1 -1741 1078V-4765Z" fill="#DBE6FF"/>
<g clip-path="url(#clip0_35_0)">
<rect x="-46" y="-198" width="393" height="852" rx="30" fill="#171717"/>
<path d="M14.7221 14.8323H12.2341L13.7888 5.17334H16.2768L14.7221 14.8323Z" fill="#DBB002"/>
<path d="M10.1401 5.17334L7.76723 11.8167L7.48596 10.3852L6.64982 6.0338C6.64982 6.0338 6.54754 5.17334 5.46848 5.17334H1.54603L1.5 5.33613C2.4182 5.56912 3.29594 5.94204 4.10304 6.44207L6.26626 14.8323H8.85907L12.8173 5.17334H10.1401Z" fill="#DBB002"/>
<path d="M29.714 14.8317H31.9999L30.008 5.17283H28.0059C27.7635 5.15401 27.5215 5.21377 27.3151 5.34341C27.1086 5.47305 26.9484 5.66584 26.8578 5.89376L23.145 14.8317H25.7404L26.2518 13.3976H29.4225L29.714 14.8317ZM26.9754 11.4157L28.2846 7.79815L29.0185 11.4157H26.9754Z" fill="#DBB002"/>
<path d="M23.3396 7.49612L23.695 5.42894C22.9767 5.16625 22.2213 5.02144 21.4577 5C20.2226 5 17.2897 5.54522 17.2897 8.19897C17.2897 10.6951 20.7315 10.7261 20.7315 12.0362C20.7315 13.3463 17.6452 13.1111 16.6249 12.2946L16.2542 14.4522C17.144 14.83 18.1018 15.0165 19.0669 15C20.7647 15 23.3268 14.1111 23.3268 11.6925C23.3268 9.18088 19.8544 8.94574 19.8544 7.8553C19.8544 6.76486 22.2759 6.90181 23.3396 7.49612Z" fill="#DBB002"/>
<path d="M7.48596 10.3878L6.64982 6.03381C6.64982 6.03381 6.54754 5.17334 5.46848 5.17334H1.54603L1.5 5.33613C2.85085 5.68417 4.11127 6.32323 5.19488 7.20952C6.22348 8.04535 7.0141 9.14213 7.48596 10.3878Z" fill="#DBB002"/>
</g>
<defs>
<clipPath id="clip0_35_0">
<rect x="-46" y="-198" width="393" height="852" rx="30" fill="white"/>
</clipPath>
</defs>
</svg>
