<svg width="64" height="64" viewBox="0 0 64 64" fill="none" xmlns="http://www.w3.org/2000/svg">
<path d="M-1291 -1900C-1291 -1901.1 -1290.1 -1902 -1289 -1902H2665C2666.1 -1902 2667 -1901.1 2667 -1900V593C2667 594.104 2666.1 595 2665 595H-1289C-1290.1 595 -1291 594.104 -1291 593V-1900Z" fill="#DBE6FF"/>
<path d="M-1289 -1901H2665V-1903H-1289V-1901ZM2666 -1900V593H2668V-1900H2666ZM2665 594H-1289V596H2665V594ZM-1290 593V-1900H-1292V593H-1290ZM-1289 594C-1289.55 594 -1290 593.552 -1290 593H-1292C-1292 594.657 -1290.66 596 -1289 596V594ZM2666 593C2666 593.552 2665.55 594 2665 594V596C2666.66 596 2668 594.657 2668 593H2666ZM2665 -1901C2665.55 -1901 2666 -1900.55 2666 -1900H2668C2668 -1901.66 2666.66 -1903 2665 -1903V-1901ZM-1289 -1903C-1290.66 -1903 -1292 -1901.66 -1292 -1900H-1290C-1290 -1900.55 -1289.55 -1901 -1289 -1901V-1903Z" fill="black" fill-opacity="0.1"/>
<rect x="-165" y="-554" width="393" height="852" rx="30" fill="#171717"/>
<path d="M12.675 46.225C14.8705 41.805 16.0088 36.9352 16 32C16.0021 29.6005 16.5422 27.2319 17.5806 25.0687C18.619 22.9054 20.1291 21.0025 22 19.5" stroke="#FFA500" stroke-width="4" stroke-linecap="round" stroke-linejoin="round"/>
<path d="M32 32C32.0108 40.1343 29.9457 48.1368 26 55.25" stroke="#FFA500" stroke-width="4" stroke-linecap="round" stroke-linejoin="round"/>
<path d="M24 32C24 29.8783 24.8429 27.8434 26.3431 26.3431C27.8434 24.8429 29.8783 24 32 24C34.1217 24 36.1566 24.8429 37.6569 26.3431C39.1571 27.8434 40 29.8783 40 32C40.0165 40.2466 38.1975 48.3935 34.675 55.85" stroke="#FFA500" stroke-width="4" stroke-linecap="round" stroke-linejoin="round"/>
<path d="M54.65 46C55.5456 41.3871 55.9976 36.699 56 32C56 25.6348 53.4714 19.5303 48.9706 15.0294C44.4697 10.5286 38.3652 8 32 8C25.6348 8 19.5303 10.5286 15.0294 15.0294C10.5286 19.5303 8 25.6348 8 32C8.00715 34.7261 7.54194 37.4328 6.625 40" stroke="#FFA500" stroke-width="4" stroke-linecap="round" stroke-linejoin="round"/>
<path d="M23.2001 40C22.3365 44.2064 20.8091 48.2486 18.675 51.975" stroke="#FFA500" stroke-width="4" stroke-linecap="round" stroke-linejoin="round"/>
<path d="M30 16.125C30.6637 16.0452 31.3315 16.0035 32 16C36.2435 16 40.3131 17.6857 43.3137 20.6863C46.3143 23.6869 48 27.7565 48 32C47.9977 34.6744 47.8307 37.3461 47.5 40" stroke="#FFA500" stroke-width="4" stroke-linecap="round" stroke-linejoin="round"/>
<path d="M45.9749 48C45.5999 49.475 45.175 50.95 44.7 52.375" stroke="#FFA500" stroke-width="4" stroke-linecap="round" stroke-linejoin="round"/>
</svg>
