<svg width="17" height="16" viewBox="0 0 17 16" fill="none" xmlns="http://www.w3.org/2000/svg">
<path d="M8.00199 16C12.4214 16 16.004 12.4183 16.004 8C16.004 3.58172 12.4214 0 8.00199 0C3.58261 0 0 3.58172 0 8C0 12.4183 3.58261 16 8.00199 16Z" fill="#127700"/>
<path fill-rule="evenodd" clip-rule="evenodd" d="M7.05906 10.8709C6.92927 10.9006 6.78753 10.8649 6.68643 10.7638L3.83887 7.91627C3.68262 7.76002 3.68262 7.50669 3.83887 7.35045L4.08136 7.10795C4.23761 6.9517 4.49094 6.9517 4.64719 7.10795L6.97162 9.43238L11.077 5.32701C11.2332 5.17076 11.4866 5.17076 11.6428 5.32701L11.8853 5.56951C12.0416 5.72575 12.0416 5.97908 11.8853 6.13533L7.25811 10.7625C7.20144 10.8192 7.132 10.8553 7.05906 10.8709Z" fill="white"/>
</svg>
