<svg width="16" height="16" viewBox="0 0 16 16" fill="none" xmlns="http://www.w3.org/2000/svg">
<path fill-rule="evenodd" clip-rule="evenodd" d="M7.99354 2.58801H8.00004C8.93012 2.58801 9.83419 2.81117 10.6667 3.23057L8.49435 5.4234C8.33825 5.39714 8.16915 5.37745 8.00004 5.37745C6.56264 5.37745 5.39841 6.5523 5.39841 8.00281C5.39841 8.17346 5.41793 8.34411 5.44394 8.50163L3.03744 10.9301C2.38703 10.1687 1.82118 9.2492 1.3724 8.19315C1.32037 8.07501 1.32037 7.93061 1.3724 7.80591C2.76427 4.53734 5.24232 2.58801 7.99354 2.58801ZM12.2862 4.36669C13.2293 5.23306 14.0293 6.40134 14.6277 7.80591C14.6797 7.93061 14.6797 8.07501 14.6277 8.19315C13.2358 11.4617 10.7578 13.4176 8.00004 13.4176H7.99353C6.73825 13.4176 5.535 13.0041 4.47483 12.2493L6.53662 10.1687C6.95288 10.4503 7.4602 10.6216 8.00004 10.6216C9.43093 10.6216 10.5952 9.44675 10.5952 8.00281C10.5952 7.45805 10.4261 6.9461 10.1464 6.52604L12.2862 4.36669Z" fill="#B9B9B9"/>
<path fill-rule="evenodd" clip-rule="evenodd" d="M12.2864 4.36638L13.4701 3.17185C13.6652 2.98151 13.6652 2.66647 13.4701 2.47613C13.2815 2.28579 12.9758 2.28579 12.7807 2.47613L12.1693 3.09309C12.1628 3.10621 12.1498 3.11934 12.1368 3.13247C12.1303 3.14559 12.1172 3.15872 12.1042 3.17185L11.5254 3.75665L9.46359 5.83724L2.48473 12.8791L2.46522 12.9054C2.33514 13.0957 2.36115 13.3589 2.52375 13.523C2.61481 13.6208 2.74489 13.6667 2.86847 13.6667C2.99205 13.6667 3.11562 13.6208 3.21318 13.523L10.1465 6.52574L12.2864 4.36638ZM8.00024 9.63705C8.8913 9.63705 9.61975 8.90195 9.61975 8.00276C9.61975 7.7271 9.55471 7.46457 9.43764 7.24141L7.24577 9.45327C7.46691 9.57141 7.72707 9.63705 8.00024 9.63705Z" fill="#B9B9B9"/>
</svg>
