<svg width="17" height="16" viewBox="0 0 17 16" fill="none" xmlns="http://www.w3.org/2000/svg">
<path d="M8.00199 16C12.4214 16 16.004 12.4183 16.004 8C16.004 3.58172 12.4214 0 8.00199 0C3.58261 0 0 3.58172 0 8C0 12.4183 3.58261 16 8.00199 16Z" fill="#199901"/>
<path fill-rule="evenodd" clip-rule="evenodd" d="M7.05882 10.871C6.92903 10.9008 6.78729 10.8651 6.68619 10.764L3.83862 7.91641C3.68237 7.76016 3.68237 7.50683 3.83862 7.35058L4.08112 7.10809C4.23737 6.95184 4.4907 6.95184 4.64695 7.10809L6.97138 9.43252L11.0768 5.32715C11.233 5.1709 11.4863 5.1709 11.6426 5.32715L11.8851 5.56964C12.0413 5.72589 12.0413 5.97922 11.8851 6.13547L7.25786 10.7627C7.20119 10.8193 7.13176 10.8555 7.05882 10.871Z" fill="white"/>
</svg>
