<svg width="331" height="196" viewBox="0 0 331 196" fill="none" xmlns="http://www.w3.org/2000/svg">
<path d="M2.10156 112.742C10.8124 106.237 30.9082 86.9564 41.6043 61.8805C54.9745 30.5355 77.4607 -22.6918 96.9082 25.2128C116.356 73.1174 132.157 125.753 164.367 131.076C196.577 136.399 192.93 90.2684 206.908 90.2684C220.886 90.2684 222.102 175.432 250.057 175.432C278.013 175.432 278.621 25.2128 327.848 25.2128" stroke="#FFA500" stroke-width="2.86479"/>
<ellipse cx="4.20317" cy="110.704" rx="4.20317" ry="4.23457" fill="#FFA500"/>
<ellipse cx="45.9758" cy="53.177" rx="3.97578" ry="4.17702" fill="#FFA500"/>
<ellipse cx="79.6329" cy="4.17702" rx="3.97578" ry="4.17702" fill="#FFA500"/>
<ellipse cx="130.976" cy="104.177" rx="3.97578" ry="4.17702" fill="#FFA500"/>
<ellipse cx="176.637" cy="129.363" rx="3.97578" ry="4.17702" fill="#FFA500"/>
<ellipse cx="207.976" cy="88.9337" rx="3.97578" ry="4.17702" fill="#FFA500"/>
<ellipse cx="251.976" cy="175.809" rx="3.97578" ry="4.17702" fill="#FFA500"/>
<ellipse cx="327.024" cy="25.3822" rx="3.97578" ry="4.17702" fill="#FFA500"/>
<path opacity="0.2" d="M41.9866 60.7197C31.187 85.2743 10.8967 104.153 2.10156 110.524V196H331V24.8144C281.297 24.8144 280.683 171.91 252.457 171.91C224.231 171.91 223.003 88.5173 208.89 88.5173C194.777 88.5173 198.459 133.689 165.937 128.476C133.415 123.264 117.461 71.7229 97.8257 24.8144C78.2957 -21.8416 55.7306 29.468 42.2055 60.222L41.9866 60.7197Z" fill="#FFA500"/>
</svg>
