<svg width="11" height="11" viewBox="0 0 11 11" fill="none" xmlns="http://www.w3.org/2000/svg">
<path d="M8.93759 8.93761H2.06259C1.88026 8.93761 1.70539 8.86518 1.57646 8.73625C1.44753 8.60732 1.37509 8.43245 1.37509 8.25011V3.43762C1.37509 3.25528 1.44753 3.08041 1.57646 2.95148C1.70539 2.82255 1.88026 2.75012 2.06259 2.75012H3.43759L4.12509 1.71887H6.87509L7.56259 2.75012H8.93759C9.11992 2.75012 9.29479 2.82255 9.42372 2.95148C9.55265 3.08041 9.62509 3.25528 9.62509 3.43762V8.25011C9.62509 8.43245 9.55265 8.60732 9.42372 8.73625C9.29479 8.86518 9.11992 8.93761 8.93759 8.93761Z" stroke="#EDEDED" stroke-linecap="round" stroke-linejoin="round"/>
<path d="M5.50002 7.21853C6.35433 7.21853 7.04689 6.52597 7.04689 5.67165C7.04689 4.81734 6.35433 4.12478 5.50002 4.12478C4.6457 4.12478 3.95314 4.81734 3.95314 5.67165C3.95314 6.52597 4.6457 7.21853 5.50002 7.21853Z" stroke="#EDEDED" stroke-linecap="round" stroke-linejoin="round"/>
</svg>
