<svg width="189" height="39" viewBox="0 0 189 39" fill="none" xmlns="http://www.w3.org/2000/svg">
<path d="M0.217692 3.20811L4.60466 0.553083L7.75571 4.59852L12.1427 1.9435L15.2937 5.98894L19.6807 3.33392L22.8318 7.37936L27.2187 4.72433L30.3698 8.76977L34.7567 6.11475L37.9078 10.1602L42.2948 7.50517L45.4458 11.5506L49.8328 8.89558L52.9838 12.941L57.3708 10.286L60.5219 14.3314L64.9088 11.6764L68.0599 15.7219L72.4468 13.0668L75.5979 17.1123L79.9849 14.4572L83.1359 18.5027L87.5229 15.8477L90.6739 19.8931L95.0609 17.2381L98.212 21.2835L102.599 18.6285L105.75 22.6739L110.137 20.0189L113.288 24.0644L117.675 21.4093L120.826 25.4548L125.213 22.7997L128.364 26.8452L132.751 24.1902L135.902 28.2356L140.289 25.5806L143.44 29.626L147.827 26.971L150.978 31.0164L155.365 28.3614L158.516 32.4069L162.903 29.7518L166.054 33.7973L170.441 31.1422L173.592 35.1877L177.979 32.5327L181.13 36.5781L185.517 33.9231L188.668 37.9685" stroke="#39383D" stroke-width="0.840668"/>
</svg>
