<svg width="16" height="16" viewBox="0 0 16 16" fill="none" xmlns="http://www.w3.org/2000/svg">
<path d="M-3389 -4862C-3389 -4863.1 -3388.1 -4864 -3387 -4864H1437C1438.1 -4864 1439 -4863.1 1439 -4862V981C1439 982.104 1438.1 983 1437 983H-3387C-3388.1 983 -3389 982.104 -3389 981V-4862Z" fill="#DBE6FF"/>
<rect x="-320" y="-295" width="393" height="852" rx="30" fill="#171717"/>
<path d="M11.7895 0H1.68421C0.757895 0 0 0.654545 0 1.45455V11.6364H1.68421V1.45455H11.7895V0ZM14.3158 2.90909H5.05263C4.12632 2.90909 3.36842 3.56364 3.36842 4.36364V14.5455C3.36842 15.3455 4.12632 16 5.05263 16H14.3158C15.2421 16 16 15.3455 16 14.5455V4.36364C16 3.56364 15.2421 2.90909 14.3158 2.90909ZM14.3158 14.5455H5.05263V4.36364H14.3158V14.5455Z" fill="#EDEDED"/>
</svg>
