<svg width="48" height="30" viewBox="0 0 48 30" fill="none" xmlns="http://www.w3.org/2000/svg">
<path d="M-1963 -4755C-1963 -4756.1 -1962.1 -4757 -1961 -4757H2863C2864.1 -4757 2865 -4756.1 2865 -4755V1088C2865 1089.1 2864.1 1090 2863 1090H-1961C-1962.1 1090 -1963 1089.1 -1963 1088V-4755Z" fill="#DBE6FF"/>
<g clip-path="url(#clip0_35_0)">
<rect x="-268" y="-188" width="393" height="852" rx="30" fill="#171717"/>
<path d="M43.2692 5.00153C43.6815 4.6826 44.2743 4.7583 44.5932 5.17061C49.1419 11.0511 49.1289 18.744 44.5945 24.632C44.2764 25.045 43.6838 25.122 43.2708 24.8039C42.8578 24.4859 42.7808 23.8932 43.0989 23.4802C47.1125 18.2686 47.1207 11.5234 43.1001 6.32556C42.7812 5.91324 42.8569 5.32046 43.2692 5.00153Z" fill="white"/>
<path d="M39.5023 7.4362C39.9143 7.11692 40.5071 7.19212 40.8264 7.60416C44.2385 12.0076 44.2246 17.7872 40.8281 22.1969C40.51 22.6098 39.9174 22.6867 39.5044 22.3687C39.0915 22.0506 39.0145 21.458 39.3326 21.045C42.2089 17.3107 42.2163 12.4797 39.3343 8.76037C39.015 8.34833 39.0902 7.75548 39.5023 7.4362Z" fill="white"/>
<path d="M37.6918 10.9561C37.3739 10.543 36.7813 10.4658 36.3682 10.7838C35.9551 11.1017 35.878 11.6943 36.1959 12.1074C37.4989 13.8004 37.5068 15.9748 36.1964 17.6748C35.8781 18.0877 35.9548 18.6803 36.3677 18.9986C36.7805 19.3168 37.3732 19.2401 37.6914 18.8273C39.528 16.4447 39.5146 13.3244 37.6918 10.9561Z" fill="white"/>
</g>
<defs>
<clipPath id="clip0_35_0">
<rect x="-268" y="-188" width="393" height="852" rx="30" fill="white"/>
</clipPath>
</defs>
</svg>
