<svg width="195" height="61" viewBox="0 0 195 61" fill="none" xmlns="http://www.w3.org/2000/svg">
<path d="M0.0587844 1.21936C7.51397 0.455046 14.8755 0.012097 22.3922 0.0625556C29.2532 0.108613 37.1761 -0.139597 43.4489 2.83591C48.0464 5.01675 51.6134 8.48673 53.4135 12.8912C54.7959 16.2734 55.2304 19.9737 56.8622 23.2876C58.2394 26.0842 60.7808 29.3495 63.1958 31.5335C67.2963 35.2416 73.9141 37.4519 79.5935 38.1777C85.6137 38.947 91.9151 37.9568 97.9477 37.8069C105 37.6317 111.517 38.1486 117.678 41.4701C121.501 43.5312 123.905 46.9675 127.311 49.5381C131.284 52.5365 136.878 54.3193 141.686 55.8856C149.36 58.3857 157.19 59.6788 165.329 60.2459C170.489 60.6054 175.799 60.4159 180.915 59.712C184.022 59.2844 186.715 58.5528 189.271 56.9238C191.679 55.3889 194.275 53.8228 194.941 51.1398" stroke="white" stroke-opacity="0.1" stroke-width="0.117304" stroke-linecap="round"/>
</svg>
