<svg width="13" height="17" viewBox="0 0 13 17" fill="none" xmlns="http://www.w3.org/2000/svg">
<path fill-rule="evenodd" clip-rule="evenodd" d="M6.58959 6.14817C6.04197 6.113 4.77315 6.03094 4.77315 4.8965C4.77315 3.52749 6.5986 3.52749 7.28365 3.52749C8.48854 3.52749 10.0474 3.8806 11.1621 4.21232C11.1621 4.21232 11.7826 4.43029 12.3108 4.65238L12.3601 4.66616V0.916472L12.2941 0.8965C10.9782 0.439295 9.45049 0 6.61662 0C1.73102 0 0 2.82681 0 5.25091C0 6.64684 0.602453 9.93509 6.196 10.3137C6.67144 10.3427 7.93049 10.4151 7.93049 11.5874C7.93049 12.5558 6.89983 13.1254 5.16669 13.1254C3.2677 13.1254 1.42424 12.6454 0.30539 12.1881V16.0489C1.98089 16.4867 3.87016 16.7033 6.0843 16.7033C10.8594 16.7033 13 14.0281 13 11.3757C13 8.36961 10.6062 6.41574 6.58959 6.14817Z" fill="#EA43B3"/>
</svg>
