<svg width="16" height="16" viewBox="0 0 16 16" fill="none" xmlns="http://www.w3.org/2000/svg">
<path d="M2.33749 2.97487L5.99999 13.5561C6.15624 14.0124 6.80624 13.9999 6.94999 13.5374L8.42499 8.74987C8.44725 8.6716 8.48949 8.60048 8.54757 8.5435C8.60565 8.48651 8.67757 8.44563 8.75624 8.42487L13.5375 6.94987C14 6.80612 14.0125 6.15612 13.5562 5.99987L2.97499 2.33737C2.88609 2.30612 2.79016 2.30064 2.69828 2.32154C2.60639 2.34245 2.52228 2.3889 2.45565 2.45553C2.38902 2.52216 2.34257 2.60627 2.32166 2.69815C2.30076 2.79004 2.30624 2.88596 2.33749 2.97487V2.97487Z" stroke="white" stroke-width="1.5" stroke-linecap="round" stroke-linejoin="round"/>
</svg>
