<svg width="14" height="14" viewBox="0 0 14 14" fill="none" xmlns="http://www.w3.org/2000/svg">
<path d="M6.99992 1.1665C5.76224 1.1665 4.57526 1.65817 3.70009 2.53334C2.82492 3.40851 2.33325 4.59549 2.33325 5.83317C2.33325 8.98317 6.44575 12.5415 6.62075 12.6932C6.72641 12.7835 6.86088 12.8332 6.99992 12.8332C7.13896 12.8332 7.27342 12.7835 7.37908 12.6932C7.58325 12.5415 11.6666 8.98317 11.6666 5.83317C11.6666 4.59549 11.1749 3.40851 10.2997 2.53334C9.42458 1.65817 8.23759 1.1665 6.99992 1.1665ZM6.99992 11.4623C5.75742 10.2957 3.49992 7.7815 3.49992 5.83317C3.49992 4.90491 3.86867 4.01467 4.52504 3.3583C5.18142 2.70192 6.07166 2.33317 6.99992 2.33317C7.92818 2.33317 8.81841 2.70192 9.47479 3.3583C10.1312 4.01467 10.4999 4.90491 10.4999 5.83317C10.4999 7.7815 8.24242 10.3015 6.99992 11.4623ZM6.99992 3.49984C6.53843 3.49984 6.0873 3.63668 5.70359 3.89307C5.31987 4.14946 5.0208 4.51388 4.8442 4.94024C4.66759 5.3666 4.62139 5.83576 4.71142 6.28838C4.80145 6.741 5.02368 7.15676 5.35 7.48309C5.67632 7.80941 6.09209 8.03164 6.54471 8.12167C6.99733 8.2117 7.46649 8.16549 7.89285 7.98889C8.31921 7.81228 8.68362 7.51322 8.94001 7.1295C9.1964 6.74579 9.33325 6.29466 9.33325 5.83317C9.33325 5.21433 9.08742 4.62084 8.64983 4.18325C8.21225 3.74567 7.61876 3.49984 6.99992 3.49984ZM6.99992 6.99984C6.76917 6.99984 6.54361 6.93141 6.35175 6.80322C6.1599 6.67502 6.01036 6.49281 5.92206 6.27963C5.83376 6.06645 5.81065 5.83188 5.85567 5.60557C5.90068 5.37925 6.0118 5.17137 6.17496 5.00821C6.33812 4.84505 6.546 4.73394 6.77231 4.68892C6.99862 4.6439 7.2332 4.66701 7.44638 4.75531C7.65956 4.84361 7.84177 4.99315 7.96997 5.18501C8.09816 5.37686 8.16658 5.60243 8.16658 5.83317C8.16658 6.14259 8.04367 6.43934 7.82488 6.65813C7.60608 6.87692 7.30934 6.99984 6.99992 6.99984Z" fill="white"/>
</svg>
