<svg width="46" height="46" viewBox="0 0 46 46" fill="none" xmlns="http://www.w3.org/2000/svg">
<path d="M36.5819 3.58128C34.4595 1.16214 30.6228 0.125 25.7148 0.125H11.47C10.4658 0.125 9.6125 0.855308 9.45528 1.84554L3.52406 39.4627C3.40615 40.2045 3.98051 40.8764 4.73237 40.8764H13.5265L15.7352 26.8675L15.6667 27.3062C15.8239 26.3159 16.6709 25.5856 17.6738 25.5856H21.8528C30.0624 25.5856 36.4906 22.2511 38.3684 12.6049C38.4242 12.3196 38.4724 12.042 38.5142 11.7706C38.2771 11.6451 38.2771 11.6451 38.5142 11.7706C39.0733 8.2053 38.5104 5.77855 36.5819 3.58128Z" fill="#27346A"/>
<path d="M19.1002 10.4862C19.3347 10.3747 19.5959 10.3125 19.8698 10.3125H31.0374C32.3598 10.3125 33.5935 10.3988 34.7206 10.5801C35.044 10.6321 35.3571 10.6916 35.6614 10.7601C35.9657 10.8273 36.2611 10.9034 36.5477 10.9871C36.691 11.0289 36.8317 11.072 36.9699 11.1177C37.524 11.3028 38.04 11.5183 38.5142 11.7706C39.0733 8.20403 38.5104 5.77855 36.5819 3.58128C34.4582 1.16214 30.6228 0.125 25.7148 0.125H11.4687C10.4658 0.125 9.6125 0.855308 9.45528 1.84553L3.52407 39.4615C3.40615 40.2045 3.98051 40.8752 4.7311 40.8752H13.5265L18.1087 11.8175C18.2025 11.2216 18.5854 10.7335 19.1002 10.4862Z" fill="#27346A"/>
<path d="M38.3683 12.6058C36.4906 22.2506 30.0624 25.5865 21.8527 25.5865H17.6725C16.6696 25.5865 15.8226 26.3168 15.6667 27.307L12.9191 44.7254C12.8164 45.3745 13.3185 45.9628 13.9753 45.9628H21.3887C22.2661 45.9628 23.0129 45.3238 23.1498 44.4578L23.2221 44.08L24.6193 35.225L24.7093 34.7356C24.8462 33.8696 25.593 33.2306 26.4704 33.2306H27.5798C34.7612 33.2306 40.3843 30.3132 42.0275 21.8753C42.7134 18.3493 42.3584 15.4053 40.544 13.3373C39.9938 12.711 39.3104 12.1937 38.5141 11.7715C38.471 12.0441 38.4241 12.3205 38.3683 12.6058Z" fill="#2790C3"/>
<path d="M36.549 10.987C36.2624 10.9033 35.967 10.8273 35.6627 10.7601C35.3584 10.6929 35.044 10.6333 34.7219 10.5813C33.5935 10.3987 32.3611 10.3125 31.0374 10.3125H19.871C19.5959 10.3125 19.3347 10.3746 19.1014 10.4875C18.5854 10.7347 18.2038 11.2216 18.1099 11.8188L15.7364 26.8674L15.668 27.3061C15.8239 26.3159 16.6709 25.5856 17.6738 25.5856H21.854C30.0637 25.5856 36.4919 22.251 38.3697 12.6049C38.4254 12.3196 38.4723 12.0432 38.5155 11.7706C38.04 11.5195 37.5252 11.3027 36.9712 11.1189C36.833 11.0732 36.6922 11.0289 36.549 10.987Z" fill="#1F264F"/>
</svg>
