<svg width="84" height="84" viewBox="0 0 84 84" fill="none" xmlns="http://www.w3.org/2000/svg">
<path d="M17.8828 66.1172C14.8641 63.0984 16.8656 56.7656 15.3234 53.0578C13.7813 49.35 7.875 46.1016 7.875 42C7.875 37.8984 13.7156 34.7812 15.3234 30.9422C16.9313 27.1031 14.8641 20.9016 17.8828 17.8828C20.9016 14.8641 27.2344 16.8656 30.9422 15.3234C34.65 13.7813 37.8984 7.875 42 7.875C46.1016 7.875 49.2188 13.7156 53.0578 15.3234C56.8969 16.9313 63.0984 14.8641 66.1172 17.8828C69.1359 20.9016 67.1344 27.2344 68.6766 30.9422C70.2188 34.65 76.125 37.8984 76.125 42C76.125 46.1016 70.2844 49.2188 68.6766 53.0578C67.0688 56.8969 69.1359 63.0984 66.1172 66.1172C63.0984 69.1359 56.7656 67.1344 53.0578 68.6766C49.35 70.2188 46.1016 76.125 42 76.125C37.8984 76.125 34.7812 70.2844 30.9422 68.6766C27.1031 67.0688 20.9016 69.1359 17.8828 66.1172Z" fill="#FF4500" stroke="#FF4500" stroke-width="2" stroke-linecap="round" stroke-linejoin="round"/>
<path d="M42 26.25V44.625" stroke="#EDEDED" stroke-width="5" stroke-linecap="round" stroke-linejoin="round"/>
<path d="M43.4375 56.4375C43.4375 57.2314 42.7939 57.875 42 57.875C41.2061 57.875 40.5625 57.2314 40.5625 56.4375C40.5625 55.6436 41.2061 55 42 55C42.7939 55 43.4375 55.6436 43.4375 56.4375Z" fill="#EDEDED" stroke="#EDEDED" stroke-width="5"/>
</svg>
