<svg width="60" height="66" viewBox="0 0 60 66" fill="none" xmlns="http://www.w3.org/2000/svg">
<path d="M57.8289 20.1144C58.0221 17.9317 58.0378 14.8516 57.2004 11.3146C55.9041 5.84169 53.2169 2.02534 51.5434 0C49.3405 2.10562 46.9829 4.60679 44.6293 7.54265C41.4069 11.5613 38.9514 15.4456 37.0867 18.8573L57.8289 20.1144Z" fill="#8B00FF"/>
<path d="M1.99465 20.1144C1.80145 17.9317 1.78578 14.8516 2.6232 11.3146C3.91947 5.84169 6.60665 2.02534 8.28019 0C10.4831 2.10562 12.8406 4.60679 15.1943 7.54265C18.4167 11.5613 20.8721 15.4456 22.7369 18.8573L1.99465 20.1144Z" fill="#8B00FF"/>
<path d="M57.5456 20.0954C56.5842 19.3219 55.3708 18.8572 54.0569 18.8572H51.5505C51.5133 17.2992 51.2901 14.5996 50.2941 12.541C50.1485 12.2388 49.7445 12.18 49.5226 12.4333C48.738 13.3334 47.0279 15.4755 45.265 18.8572H14.5605C12.7976 15.4749 11.0868 13.3334 10.3016 12.4333C10.0803 12.18 9.67567 12.2388 9.53012 12.541C8.53344 14.6009 8.31217 17.3005 8.27432 18.8572H5.65763C4.34374 18.8572 3.12449 19.3213 2.16175 20.1012C0.841987 21.1645 0 22.8171 0 24.6708V60.1857C0 63.3977 2.53314 66 5.65763 66H54.0569C57.1814 66 59.7145 63.3977 59.7145 60.1857V24.6708C59.7145 22.8106 58.866 21.158 57.5456 20.0954ZM50.2856 46.5149C47.8529 46.5149 45.8857 44.5476 45.8857 42.115C45.8857 39.6823 47.8529 37.7144 50.2856 37.7144C52.7182 37.7144 54.6861 39.683 54.6861 42.115C54.6861 44.5469 52.7182 46.5149 50.2856 46.5149Z" fill="#F76730"/>
</svg>
