<svg width="36" height="36" viewBox="0 0 36 36" fill="none" xmlns="http://www.w3.org/2000/svg">
<g clip-path="url(#clip0_990_31657)">
<path d="M30.4139 31.6552C30.0707 31.6552 29.7932 31.3777 29.7932 31.0345V10.5517C29.7932 10.2085 30.0707 9.93103 30.4139 9.93103C30.7572 9.93103 31.0346 10.2085 31.0346 10.5517V31.0345C31.0346 31.3777 30.7572 31.6552 30.4139 31.6552Z" fill="#CAD3DB"/>
<path d="M24.8277 21.7242H24.5185C23.9661 21.7242 23.4801 21.3592 23.3262 20.8291L21.1339 13.2809C20.7385 12.3772 19.8454 11.7931 18.8591 11.7931H7.21004C6.22378 11.7931 5.33058 12.3772 4.93519 13.2809L2.74295 20.8291C2.58903 21.3592 2.10302 21.7242 1.55064 21.7242H1.24151C0.555655 21.7242 0.00012207 22.2797 0.00012207 22.9655V29.7932C0.00012207 30.479 0.555655 31.0345 1.24151 31.0345H24.8277C25.5135 31.0345 26.069 30.479 26.069 29.7932V22.9655C26.069 22.2797 25.5136 21.7242 24.8277 21.7242Z" fill="#2080E0"/>
<path d="M4.34495 36H3.10357C2.41772 36 1.86218 35.4444 1.86218 34.7586V31.0344H5.58633V34.7586C5.58626 35.4444 5.0308 36 4.34495 36Z" fill="#485762"/>
<path d="M22.9656 36H21.7242C21.0383 36 20.4828 35.4444 20.4828 34.7586V31.0344H24.2069V34.7586C24.2069 35.4444 23.6515 36 22.9656 36Z" fill="#485762"/>
<path d="M6.82767 26.069C6.82767 27.0974 5.99405 27.9311 4.96559 27.9311C3.93714 27.9311 3.10352 27.0974 3.10352 26.069C3.10352 25.0405 3.93714 24.2069 4.96559 24.2069C5.99405 24.2069 6.82767 25.0405 6.82767 26.069Z" fill="#FFD06C"/>
<path d="M22.9656 26.069C22.9656 27.0974 22.132 27.9311 21.1035 27.9311C20.0751 27.9311 19.2415 27.0974 19.2415 26.069C19.2415 25.0405 20.0751 24.2069 21.1035 24.2069C22.1321 24.2069 22.9656 25.0405 22.9656 26.069Z" fill="#FFD06C"/>
<path d="M14.2759 27.931H11.7932C11.4499 27.931 11.1725 27.6535 11.1725 27.3103C11.1725 26.967 11.4499 26.6896 11.7932 26.6896H14.2759C14.6192 26.6896 14.8966 26.967 14.8966 27.3103C14.8966 27.6535 14.6192 27.931 14.2759 27.931Z" fill="#485762"/>
<path d="M15.5174 25.4483H10.5518C10.2086 25.4483 9.93115 25.1708 9.93115 24.8276C9.93115 24.4844 10.2086 24.2069 10.5518 24.2069H15.5174C15.8606 24.2069 16.1381 24.4844 16.1381 24.8276C16.1381 25.1708 15.8606 25.4483 15.5174 25.4483Z" fill="#485762"/>
<path d="M19.028 20.4828H7.04126C6.62541 20.4828 6.32744 20.0818 6.44667 19.6839L7.93632 14.7184C8.01514 14.4558 8.25661 14.2759 8.5309 14.2759H17.5384C17.8127 14.2759 18.0541 14.4559 18.133 14.7184L19.6226 19.6839C19.7418 20.0818 19.4439 20.4828 19.028 20.4828Z" fill="#D0E8F9"/>
<path d="M26.6896 36H34.1378V33.5172H26.6896V36Z" fill="#485762"/>
<path d="M28.5516 33.5172H32.2758V31.0344H28.5516V33.5172Z" fill="#95ACB9"/>
<path d="M25.4481 10.5517H35.9998V0H25.4481V10.5517Z" fill="#2080E0"/>
<path d="M29.7932 8.68967C29.4499 8.68967 29.1725 8.41223 29.1725 8.06898V2.48275C29.1725 2.13951 29.4499 1.86206 29.7932 1.86206C30.1364 1.86206 30.4139 2.13951 30.4139 2.48275V8.06898C30.4139 8.41216 30.1364 8.68967 29.7932 8.68967Z" fill="white"/>
<path d="M30.4139 5.58621H31.0346C31.7192 5.58621 32.2759 5.02946 32.2759 4.34483C32.2759 3.66019 31.7192 3.10344 31.0346 3.10344H30.4139V5.58621ZM31.0346 6.8276H29.7932C29.4499 6.8276 29.1725 6.55015 29.1725 6.20691V2.48275C29.1725 2.13951 29.4499 1.86206 29.7932 1.86206H31.0346C32.4038 1.86206 33.5173 2.97556 33.5173 4.34483C33.5173 5.7141 32.4038 6.8276 31.0346 6.8276Z" fill="white"/>
</g>
<defs>
<clipPath id="clip0_990_31657">
<rect width="36" height="36" fill="white"/>
</clipPath>
</defs>
</svg>
