<svg width="16" height="16" viewBox="0 0 16 16" fill="none" xmlns="http://www.w3.org/2000/svg">
<path d="M8 14C11.3137 14 14 11.3137 14 8C14 4.68629 11.3137 2 8 2C4.68629 2 2 4.68629 2 8C2 11.3137 4.68629 14 8 14Z" stroke="#DCB2FF" stroke-width="1.5" stroke-linecap="round" stroke-linejoin="round"/>
<path d="M8.8375 8.28659C9.17899 8.10046 9.44875 7.80588 9.60417 7.44938C9.7596 7.09287 9.79184 6.69474 9.69581 6.31787C9.59977 5.94099 9.38093 5.60685 9.07384 5.3682C8.76675 5.12955 8.38892 5 8 5C7.61108 5 7.23325 5.12955 6.92616 5.3682C6.61907 5.60685 6.40023 5.94099 6.30419 6.31787C6.20816 6.69474 6.2404 7.09287 6.39583 7.44938C6.55126 7.80588 6.82101 8.10046 7.1625 8.28659L6.3 10.2991C6.26686 10.375 6.25311 10.458 6.25998 10.5406C6.26685 10.6231 6.29414 10.7027 6.33938 10.7721C6.38462 10.8415 6.4464 10.8986 6.51916 10.9382C6.59193 10.9778 6.6734 10.9988 6.75625 10.9991H9.24375C9.3266 10.9988 9.40807 10.9778 9.48084 10.9382C9.5536 10.8986 9.61538 10.8415 9.66062 10.7721C9.70586 10.7027 9.73315 10.6231 9.74002 10.5406C9.74689 10.458 9.73314 10.375 9.7 10.2991L8.8375 8.28659Z" stroke="#DCB2FF" stroke-width="1.5" stroke-linecap="round" stroke-linejoin="round"/>
</svg>
