<svg width="24" height="24" viewBox="0 0 24 24" fill="none" xmlns="http://www.w3.org/2000/svg">
<path d="M1.99609 8.5H11.4961" stroke="white" stroke-width="1.5" stroke-miterlimit="10" stroke-linecap="round" stroke-linejoin="round"/>
<path d="M5.99609 16.5H7.99609" stroke="white" stroke-width="1.5" stroke-miterlimit="10" stroke-linecap="round" stroke-linejoin="round"/>
<path d="M10.4961 16.5H14.4961" stroke="white" stroke-width="1.5" stroke-miterlimit="10" stroke-linecap="round" stroke-linejoin="round"/>
<path d="M21.9961 12.03V16.11C21.9961 19.62 21.1061 20.5 17.5561 20.5H6.43609C2.88609 20.5 1.99609 19.62 1.99609 16.11V7.89C1.99609 4.38 2.88609 3.5 6.43609 3.5H14.4961" stroke="white" stroke-width="1.5" stroke-linecap="round" stroke-linejoin="round"/>
<path d="M19.0761 4.12933L15.3661 7.83933C15.2261 7.97933 15.0861 8.25933 15.0561 8.45933L14.8561 9.87933C14.7861 10.3893 15.1461 10.7493 15.6561 10.6793L17.0761 10.4793C17.2761 10.4493 17.5561 10.3093 17.6961 10.1693L21.4061 6.45933C22.0461 5.81933 22.3461 5.07933 21.4061 4.13933C20.4561 3.18933 19.7161 3.48933 19.0761 4.12933Z" stroke="white" stroke-width="1.5" stroke-miterlimit="10" stroke-linecap="round" stroke-linejoin="round"/>
<path d="M18.5461 4.66016C18.8661 5.79016 19.7461 6.67016 20.8661 6.98016" stroke="white" stroke-width="1.5" stroke-miterlimit="10" stroke-linecap="round" stroke-linejoin="round"/>
</svg>
