<svg width="292" height="280" viewBox="0 0 292 280" fill="none" xmlns="http://www.w3.org/2000/svg">
<path d="M-1218.5 -1372.5C-1218.5 -1373.6 -1217.6 -1374.5 -1216.5 -1374.5H1885.5C1886.6 -1374.5 1887.5 -1373.6 1887.5 -1372.5V1869.5C1887.5 1870.6 1886.6 1871.5 1885.5 1871.5H-1216.5C-1217.6 1871.5 -1218.5 1870.6 -1218.5 1869.5V-1372.5Z" fill="#DBE6FF"/>
<path d="M-1216.5 -1373.5H1885.5V-1375.5H-1216.5V-1373.5ZM1886.5 -1372.5V1869.5H1888.5V-1372.5H1886.5ZM1885.5 1870.5H-1216.5V1872.5H1885.5V1870.5ZM-1217.5 1869.5V-1372.5H-1219.5V1869.5H-1217.5ZM-1216.5 1870.5C-1217.05 1870.5 -1217.5 1870.05 -1217.5 1869.5H-1219.5C-1219.5 1871.16 -1218.16 1872.5 -1216.5 1872.5V1870.5ZM1886.5 1869.5C1886.5 1870.05 1886.05 1870.5 1885.5 1870.5V1872.5C1887.16 1872.5 1888.5 1871.16 1888.5 1869.5H1886.5ZM1885.5 -1373.5C1886.05 -1373.5 1886.5 -1373.05 1886.5 -1372.5H1888.5C1888.5 -1374.16 1887.16 -1375.5 1885.5 -1375.5V-1373.5ZM-1216.5 -1375.5C-1218.16 -1375.5 -1219.5 -1374.16 -1219.5 -1372.5H-1217.5C-1217.5 -1373.05 -1217.05 -1373.5 -1216.5 -1373.5V-1375.5Z" fill="black" fill-opacity="0.1"/>
<rect x="-50.5" y="-289.5" width="393" height="852" rx="30" fill="#0C0C0C"/>
<path d="M239.5 1.5H285.5C288.261 1.5 290.5 3.73858 290.5 6.5V50" stroke="#8B00FF" stroke-width="3"/>
<path d="M52.5 1.5H6.5C3.73858 1.5 1.5 3.73858 1.5 6.5V50" stroke="#8B00FF" stroke-width="3"/>
<path d="M239.5 278.5H285.5C288.261 278.5 290.5 276.261 290.5 273.5V230" stroke="#8B00FF" stroke-width="3"/>
<path d="M52.5 278.5H6.5C3.73858 278.5 1.5 276.261 1.5 273.5V230" stroke="#8B00FF" stroke-width="3"/>
</svg>
